STARTFONT 2.1
COMMENT
COMMENT Converted from OpenType font "ibmplex.ttf" by "otf2bdf 3.0".
COMMENT
FONT -FreeType-IBM Plex Sans Thin-Medium-R-Normal--89-640-100-100-P-388-ISO10646-1
SIZE 64 100 100
FONTBOUNDINGBOX 118 116 -14 -19
STARTPROPERTIES 19
FOUNDRY "FreeType"
FAMILY_NAME "IBM Plex Sans Thin"
WEIGHT_NAME "Medium"
SLANT "R"
SETWIDTH_NAME "Normal"
ADD_STYLE_NAME ""
PIXEL_SIZE 89
POINT_SIZE 640
RESOLUTION_X 100
RESOLUTION_Y 100
SPACING "P"
AVERAGE_WIDTH 388
CHARSET_REGISTRY "ISO10646"
CHARSET_ENCODING "1"
FONT_ASCENT 91
FONT_DESCENT 24
COPYRIGHT "Copyright 2018 IBM Corp. All rights reserved."
_OTF_FONTFILE "ibmplex.ttf"
_OTF_PSNAME "IBMPlexSans-Thin"
ENDPROPERTIES
CHARS 826
STARTCHAR 0000
ENCODING 0
SWIDTH 0 0
DWIDTH 0 0
BBX 0 0 0 0
BITMAP
ENDCHAR
STARTCHAR 000D
ENCODING 13
SWIDTH 225 0
DWIDTH 20 0
BBX 0 0 0 0
BITMAP
ENDCHAR
STARTCHAR 0020
ENCODING 32
SWIDTH 225 0
DWIDTH 20 0
BBX 0 0 0 0
BITMAP
ENDCHAR
STARTCHAR 0021
ENCODING 33
SWIDTH 247 0
DWIDTH 22 0
BBX 5 62 9 0
BITMAP
60
60
60
60
60
60
60
60
60
60
60
60
60
60
60
60
60
60
60
60
60
60
60
60
60
60
60
60
60
60
60
60
60
60
60
60
60
60
20
20
20
20
20
20
20
20
00
00
00
00
00
00
00
00
00
00
00
60
F0
F8
F8
F0
ENDCHAR
STARTCHAR 0022
ENCODING 34
SWIDTH 371 0
DWIDTH 33 0
BBX 15 22 9 44
BITMAP
C006
C006
C006
C006
C006
C006
C006
C006
C006
C006
C006
C006
C006
C006
C006
C006
C006
C006
C006
C006
C006
C006
ENDCHAR
STARTCHAR 0023
ENCODING 35
SWIDTH 708 0
DWIDTH 63 0
BBX 51 62 6 0
BITMAP
00000600018000
00000400018000
00000C00018000
00000C00018000
00000C00030000
00000C00030000
00000C00030000
00000800030000
00001800030000
00001800020000
00001800060000
00001800060000
00001800060000
00003000060000
00003000060000
00003000040000
000030000C0000
000030000C0000
000030000C0000
000060000C0000
0FFFFFFFFFFFE0
00006000080000
00006000180000
00006000180000
00006000180000
0000C000180000
0000C000180000
0000C000300000
0000C000300000
0000C000300000
00008000300000
00018000300000
00018000200000
00018000600000
00018000600000
00018000600000
00010000600000
00030000600000
00030000400000
00030000C00000
00030000C00000
FFFFFFFFFFFF00
00020000C00000
00060000C00000
00060000800000
00060001800000
00060001800000
00060001800000
00040001800000
000C0001800000
000C0001000000
000C0003000000
000C0003000000
000C0003000000
00180003000000
00180003000000
00180002000000
00180006000000
00180006000000
00100006000000
00300006000000
00300006000000
ENDCHAR
STARTCHAR 0024
ENCODING 36
SWIDTH 540 0
DWIDTH 48 0
BBX 39 76 4 -7
BITMAP
00000C0000
00000C0000
00000C0000
00000C0000
00000C0000
00000C0000
00000C0000
0003FFC000
003FFFFC00
00F80C1F00
03C00C0380
07000C00E0
0E000C0070
1C000C0038
18000C001C
30000C000C
30000C0000
30000C0000
60000C0000
60000C0000
60000C0000
60000C0000
60000C0000
60000C0000
60000C0000
60000C0000
30000C0000
30000C0000
38000C0000
18000C0000
0C000C0000
06000C0000
03800C0000
01E00C0000
00780C0000
001F8C0000
0003FE0000
00003FF000
00000CFC00
00000C0F00
00000C01C0
00000C00E0
00000C0030
00000C0038
00000C001C
00000C000C
00000C000E
00000C0006
00000C0006
00000C0006
00000C0006
00000C0006
00000C0002
00000C0006
00000C0006
00000C0006
00000C0006
00000C0006
C0000C0006
E0000C000C
70000C000C
38000C0018
1C000C0038
0E000C0070
07800C00E0
01E00C03C0
007C0C1F00
001FFFFC00
0001FFC000
00000C0000
00000C0000
00000C0000
00000C0000
00000C0000
00000C0000
00000C0000
ENDCHAR
STARTCHAR 0025
ENCODING 37
SWIDTH 877 0
DWIDTH 78 0
BBX 65 64 7 -1
BITMAP
00FF00000000000000
03E7C00000000C0000
0700700000000C0000
0C0038000000180000
18000C000000300000
30000C000000700000
300006000000600000
600006000000C00000
600003000001800000
400003000001800000
C00003000003000000
C00001000006000000
C00001800006000000
C0000180000C000000
C00001800018000000
C00001800018000000
C00001800030000000
C00001800060000000
C000018000E0000000
C000018000C0000000
C00001800180000000
C00001800300000000
C00001000300000000
C00003000600000000
400003000C00000000
600003000C00000000
600006001800000000
300006003000000000
30000C003000000000
18001C006000000000
0C003800C000FF0000
07007001C003E7C000
03FFC0018007007000
007F0003000C003800
000000060018001800
000000060030000C00
0000000C0020000600
000000180060000600
000000180060000200
0000003000C0000300
0000006000C0000300
0000006000C0000300
000000C000C0000100
0000018000C0000180
000003800080000180
000003000180000180
000006000180000180
00000C000180000180
00000C000080000180
000018000080000180
0000300000C0000180
0000300000C0000100
0000600000C0000300
0000C00000C0000300
0001C00000C0000300
000180000060000200
000300000060000600
000700000020000600
000600000030000C00
000C00000018001800
00180000000C003800
001800000007007000
003000000003E7C000
000000000000FF0000
ENDCHAR
STARTCHAR 0026
ENCODING 38
SWIDTH 675 0
DWIDTH 60 0
BBX 50 64 6 -1
BITMAP
0000FFC0000000
0003FFF8000000
000F001E000000
001C0007000000
00300003800000
00600001C00000
00C00000C00000
00C00000600000
01800000600000
01800000600000
01800000300000
01800000300000
03000000300000
03000000300000
03000000300000
01800000600000
01800000600000
01800000600000
01800000C00000
00C00001C00000
00C00001800000
00600003000000
00600006000000
0030001C000000
00180038000000
001C00E0000000
000E03C0000000
00060700000000
00031C00000000
0001F000000000
0003C000000000
000F6000000000
001C3000007FC0
00701800007FC0
01C00C00004000
03800600004000
0700030000C000
0C00018000C000
1C0000C000C000
1800006000C000
3000003800C000
3000001C00C000
6000000E00C000
60000007008000
60000003818000
C0000001C18000
C0000000E18000
C0000000710000
C00000003B0000
C00000001F0000
C00000000E0000
40000000070000
600000000F8000
600000000DC000
6000000018E000
30000000307000
38000000603800
1C000000E01800
0E000001C00C00
07000007000600
03C0000E000300
00F00078000180
003FFFE00000C0
0007FF00000000
ENDCHAR
STARTCHAR 0027
ENCODING 39
SWIDTH 213 0
DWIDTH 19 0
BBX 2 22 9 44
BITMAP
C0
C0
C0
C0
C0
C0
C0
C0
C0
C0
C0
C0
C0
C0
C0
C0
C0
C0
C0
C0
C0
C0
ENDCHAR
STARTCHAR 0028
ENCODING 40
SWIDTH 326 0
DWIDTH 29 0
BBX 19 80 9 -12
BITMAP
000060
0000C0
000180
000300
000600
000C00
001800
001800
003000
006000
004000
00C000
018000
018000
030000
030000
060000
060000
040000
0C0000
0C0000
180000
180000
180000
100000
300000
300000
200000
200000
600000
600000
600000
600000
400000
400000
C00000
C00000
C00000
C00000
C00000
C00000
C00000
C00000
C00000
C00000
400000
400000
600000
600000
600000
600000
600000
200000
300000
300000
300000
100000
180000
180000
080000
0C0000
0C0000
040000
060000
020000
030000
030000
018000
008000
00C000
006000
006000
003000
001800
001C00
000C00
000600
000300
000180
0000C0
ENDCHAR
STARTCHAR 0029
ENCODING 41
SWIDTH 326 0
DWIDTH 29 0
BBX 18 80 2 -12
BITMAP
C00000
600000
300000
180000
0C0000
0C0000
060000
030000
018000
018000
00C000
006000
006000
003000
003000
001800
001800
000C00
000C00
000400
000600
000600
000200
000300
000300
000100
000100
000180
000180
000180
000080
000080
0000C0
0000C0
0000C0
0000C0
0000C0
0000C0
0000C0
0000C0
0000C0
0000C0
0000C0
0000C0
0000C0
0000C0
0000C0
0000C0
0000C0
000080
000080
000180
000180
000180
000100
000300
000300
000300
000200
000600
000600
000C00
000C00
000800
001800
001000
003000
002000
006000
00C000
00C000
018000
030000
030000
060000
0C0000
180000
380000
700000
E00000
ENDCHAR
STARTCHAR 002A
ENCODING 42
SWIDTH 360 0
DWIDTH 32 0
BBX 29 27 2 39
BITMAP
00060000
00060000
00060000
00060000
00060000
00060000
00060000
00060000
00060000
80060010
F00600F8
3E0607C0
07C63E00
00FFF000
000F8000
000F0000
000D0000
00198000
0030C000
00606000
00606000
00C03000
01801800
01800C00
03000C00
06000600
04000200
ENDCHAR
STARTCHAR 002B
ENCODING 43
SWIDTH 596 0
DWIDTH 53 0
BBX 42 43 6 6
BITMAP
00000C000000
00000C000000
00000C000000
00000C000000
00000C000000
00000C000000
00000C000000
00000C000000
00000C000000
00000C000000
00000C000000
00000C000000
00000C000000
00000C000000
00000C000000
00000C000000
00000C000000
00000C000000
00000C000000
00000C000000
00000C000000
FFFFFFFFFFC0
FFFFFFFFFFC0
00000C000000
00000C000000
00000C000000
00000C000000
00000C000000
00000C000000
00000C000000
00000C000000
00000C000000
00000C000000
00000C000000
00000C000000
00000C000000
00000C000000
00000C000000
00000C000000
00000C000000
00000C000000
00000C000000
00000C000000
ENDCHAR
STARTCHAR 002C
ENCODING 44
SWIDTH 236 0
DWIDTH 21 0
BBX 8 18 5 -13
BITMAP
06
1F
1F
1F
0F
03
03
03
06
06
04
0C
08
18
10
30
60
C0
ENDCHAR
STARTCHAR 002D
ENCODING 45
SWIDTH 393 0
DWIDTH 35 0
BBX 21 2 7 26
BITMAP
FFFFF8
FFFFF8
ENDCHAR
STARTCHAR 002E
ENCODING 46
SWIDTH 236 0
DWIDTH 21 0
BBX 5 5 8 0
BITMAP
70
F8
F8
F8
78
ENDCHAR
STARTCHAR 002F
ENCODING 47
SWIDTH 303 0
DWIDTH 27 0
BBX 23 79 1 -13
BITMAP
000006
000006
000004
00000C
00000C
00000C
000008
000018
000018
000018
000010
000030
000030
000030
000060
000060
000060
000040
0000C0
0000C0
0000C0
000080
000180
000180
000180
000100
000300
000300
000300
000600
000600
000600
000400
000C00
000C00
000C00
000800
001800
001800
001800
001000
003000
003000
003000
006000
006000
006000
004000
00C000
00C000
00C000
008000
018000
018000
018000
010000
030000
030000
030000
060000
060000
060000
040000
0C0000
0C0000
0C0000
080000
180000
180000
180000
100000
300000
300000
300000
600000
600000
600000
400000
C00000
ENDCHAR
STARTCHAR 0030
ENCODING 48
SWIDTH 596 0
DWIDTH 53 0
BBX 41 64 6 -1
BITMAP
0001FFC00000
000FFFF80000
001E003E0000
007800070000
00E000038000
01C00000C000
038000006000
030000007000
060000003000
0C0000001800
0C0000001800
180000000C00
180000000C00
180000000600
300000000600
300000000600
300000000200
300000000300
600000000300
600000000300
600000000300
600000000300
600000000100
600000000180
600000000180
E00000000180
C00000000180
C00000000180
C00000000180
C00000000180
C00000000180
C00000000180
C00000000180
C00000000180
C00000000180
C00000000180
C00000000180
C00000000180
600000000180
600000000180
600000000180
600000000180
600000000300
600000000300
600000000300
600000000300
300000000300
300000000200
300000000600
300000000600
180000000600
180000000C00
180000000C00
0C0000001800
0E0000001800
060000003000
030000007000
038000006000
01C00000C000
00E000038000
007800070000
001E003E0000
000FFFF80000
0001FFC00000
ENDCHAR
STARTCHAR 0031
ENCODING 49
SWIDTH 596 0
DWIDTH 53 0
BBX 41 62 7 0
BITMAP
00001E000000
000076000000
0000E6000000
0001C6000000
000386000000
000706000000
001C06000000
003806000000
007006000000
00E006000000
01C006000000
030006000000
0E0006000000
1C0006000000
380006000000
700006000000
C00006000000
000006000000
000006000000
000006000000
000006000000
000006000000
000006000000
000006000000
000006000000
000006000000
000006000000
000006000000
000006000000
000006000000
000006000000
000006000000
000006000000
000006000000
000006000000
000006000000
000006000000
000006000000
000006000000
000006000000
000006000000
000006000000
000006000000
000006000000
000006000000
000006000000
000006000000
000006000000
000006000000
000006000000
000006000000
000006000000
000006000000
000006000000
000006000000
000006000000
000006000000
000006000000
000006000000
000006000000
7FFFFFFFFF80
7FFFFFFFFF80
ENDCHAR
STARTCHAR 0032
ENCODING 50
SWIDTH 596 0
DWIDTH 53 0
BBX 38 63 8 0
BITMAP
0007FF0000
003FFFE000
00F000F000
0380003C00
0700000E00
0E00000700
1C00000300
1800000180
30000001C0
70000000C0
60000000C0
C000000060
C000000060
C000000060
0000000060
0000000060
0000000060
0000000060
0000000060
0000000060
0000000060
0000000060
0000000060
00000000C0
00000000C0
00000000C0
0000000180
0000000180
0000000300
0000000300
0000000600
0000000E00
0000000C00
0000001800
0000003000
0000006000
000000C000
000001C000
0000038000
0000070000
00000E0000
00001C0000
0000380000
0000700000
0000E00000
0001C00000
0003800000
0007000000
000E000000
001C000000
0038000000
0070000000
00E0000000
01C0000000
0380000000
0700000000
0E00000000
1C00000000
3800000000
7000000000
E000000000
FFFFFFFFFC
FFFFFFFFFC
ENDCHAR
STARTCHAR 0033
ENCODING 51
SWIDTH 596 0
DWIDTH 53 0
BBX 38 64 6 -1
BITMAP
0003FF8000
001FFFF000
0078007C00
01E0001E00
0380000700
0700000380
0E000001C0
0C000000C0
1800000060
1800000060
0000000070
0000000030
0000000030
0000000030
0000000030
0000000030
0000000030
0000000030
0000000030
0000000030
0000000070
0000000060
0000000060
00000000C0
00000001C0
0000000380
0000000700
0000000E00
0000007800
00000FE000
001FFF0000
000007F000
0000003C00
0000000700
0000000380
00000001C0
00000000E0
0000000060
0000000030
0000000030
0000000018
0000000018
0000000018
0000000018
0000000018
000000001C
000000001C
000000001C
0000000018
0000000018
0000000018
0000000018
0000000018
0000000030
C000000030
6000000070
3000000060
38000000C0
1C000001C0
0F00000700
03C0000E00
01F0007C00
003FFFF000
0007FF8000
ENDCHAR
STARTCHAR 0034
ENCODING 52
SWIDTH 596 0
DWIDTH 53 0
BBX 45 62 4 0
BITMAP
00000000C000
00000001C000
000000034000
000000034000
000000064000
0000000C4000
0000000C4000
000000184000
000000304000
000000304000
000000604000
000000C04000
000001804000
000001804000
000003004000
000006004000
000006004000
00000C004000
000018004000
000018004000
000030004000
000060004000
0000E0004000
0000C0004000
000180004000
000300004000
000300004000
000600004000
000C00004000
000C00004000
001800004000
003000004000
007000004000
006000004000
00C000004000
01C000004000
018000004000
030000004000
060000004000
060000004000
0C0000004000
180000004000
180000004000
300000004000
600000004000
E00000004000
FFFFFFFFFFF8
FFFFFFFFFFF8
000000004000
000000004000
000000004000
000000004000
000000004000
000000004000
000000004000
000000004000
000000004000
000000004000
000000004000
000000004000
000000004000
000000004000
ENDCHAR
STARTCHAR 0035
ENCODING 53
SWIDTH 596 0
DWIDTH 53 0
BBX 37 63 8 -1
BITMAP
0FFFFFFFE0
0FFFFFFFE0
0C00000000
0C00000000
0C00000000
0C00000000
0C00000000
0C00000000
0C00000000
0800000000
0800000000
0800000000
0800000000
1800000000
1800000000
1800000000
1800000000
1800000000
1800000000
1800000000
1800000000
1800000000
1800000000
1000000000
1000000000
1001FC0000
101FFFE000
107C01F800
31C0001C00
3300000E00
3600000300
3C00000180
38000000C0
00000000E0
0000000060
0000000060
0000000030
0000000030
0000000030
0000000018
0000000018
0000000018
0000000018
0000000018
0000000018
0000000018
0000000018
0000000018
0000000038
0000000030
0000000030
0000000030
0000000060
C000000060
C0000000C0
60000000C0
3000000180
1800000300
0E00000E00
0780001C00
01F000F800
007FFFE000
000FFE0000
ENDCHAR
STARTCHAR 0036
ENCODING 54
SWIDTH 596 0
DWIDTH 53 0
BBX 37 63 8 -1
BITMAP
000001C000
0000030000
00000E0000
00001C0000
0000300000
0000E00000
0001C00000
0003800000
0007000000
000E000000
001C000000
0038000000
0030000000
0060000000
00C0000000
01C0000000
0180000000
0300000000
0300000000
0600000000
0E00000000
0C00000000
0C00000000
1800000000
1800000000
3003FF0000
303FFFE000
30F800F800
61C0001E00
6380000700
6600000380
6C000001C0
58000000C0
D000000060
F000000060
E000000030
E000000030
E000000018
C000000018
C000000018
C000000018
C000000018
C000000018
C000000018
C000000018
C000000018
C000000018
C000000018
C000000018
4000000018
6000000010
6000000030
2000000030
3000000060
3800000060
18000000C0
0C00000180
0600000380
0380000700
01C0001C00
00F800F800
003FFFE000
0007FF0000
ENDCHAR
STARTCHAR 0037
ENCODING 55
SWIDTH 596 0
DWIDTH 53 0
BBX 39 62 7 0
BITMAP
FFFFFFFFFE
FFFFFFFFFE
C00000000C
C00000000C
C000000018
C000000018
C000000030
C000000030
C000000070
C000000060
C000000060
C0000000C0
C0000000C0
C000000180
C000000180
C000000300
0000000300
0000000700
0000000600
0000000600
0000000C00
0000000C00
0000001800
0000001800
0000003000
0000003000
0000007000
0000006000
0000006000
000000C000
000000C000
0000018000
0000018000
0000030000
0000030000
0000070000
0000060000
0000060000
00000C0000
00000C0000
0000180000
0000180000
0000300000
0000300000
0000700000
0000600000
0000600000
0000C00000
0000C00000
0001800000
0001800000
0003000000
0003000000
0007000000
0006000000
0006000000
000C000000
000C000000
0018000000
0018000000
0030000000
0030000000
ENDCHAR
STARTCHAR 0038
ENCODING 56
SWIDTH 596 0
DWIDTH 53 0
BBX 41 64 6 -1
BITMAP
0001FFE00000
000FFFFC0000
003C001F0000
00F000038000
01C00001C000
038000006000
070000003000
0E0000003800
0C0000001800
0C0000000C00
180000000C00
180000000C00
180000000600
180000000600
180000000600
180000000600
180000000600
180000000600
180000000600
180000000C00
180000000C00
1C0000000C00
0C0000001800
0E0000001800
060000003000
030000007000
01C00000E000
00E000038000
0078000F0000
001FE3FC0000
0003FFE00000
001FE1FE0000
00F8000F8000
01C00001E000
078000007000
0E0000003800
0C0000001C00
180000000C00
380000000600
300000000600
700000000300
600000000300
600000000300
600000000180
600000000180
E00000000180
E00000000180
E00000000180
E00000000180
600000000180
600000000180
600000000300
600000000300
300000000300
300000000600
180000000E00
1C0000000C00
0E0000001800
070000003000
03800000E000
01E00003C000
007C001F0000
001FFFFC0000
0001FFE00000
ENDCHAR
STARTCHAR 0039
ENCODING 57
SWIDTH 596 0
DWIDTH 53 0
BBX 38 63 8 0
BITMAP
0003FF8000
001FFFF000
0078007800
01E0001E00
0380000700
0700000380
0C000001C0
1C000000E0
1800000060
3000000030
3000000030
6000000010
6000000018
6000000018
6000000018
C000000008
C00000000C
C00000000C
C00000000C
C00000000C
C00000000C
C00000000C
E00000000C
600000001C
600000001C
600000001C
600000001C
300000003C
3000000038
1800000078
1C000000D8
0E00000198
0700000398
0380000730
01E0001E30
0078007830
001FFFE020
0003FF0060
0000000060
00000000C0
00000000C0
00000000C0
0000000180
0000000380
0000000300
0000000600
0000000600
0000000C00
0000001800
0000003800
0000003000
0000006000
000000C000
0000018000
0000030000
0000060000
00000C0000
0000380000
0000700000
0000E00000
0003800000
0007000000
000C000000
ENDCHAR
STARTCHAR 003A
ENCODING 58
SWIDTH 258 0
DWIDTH 23 0
BBX 5 45 9 0
BITMAP
F8
F8
F8
F8
70
00
00
00
00
00
00
00
00
00
00
00
00
00
00
00
00
00
00
00
00
00
00
00
00
00
00
00
00
00
00
00
00
00
00
00
70
F8
F8
F8
F8
ENDCHAR
STARTCHAR 003B
ENCODING 59
SWIDTH 258 0
DWIDTH 23 0
BBX 8 58 6 -13
BITMAP
1F
1F
1F
1F
0E
00
00
00
00
00
00
00
00
00
00
00
00
00
00
00
00
00
00
00
00
00
00
00
00
00
00
00
00
00
00
00
00
00
00
00
0E
1F
1F
1F
1F
03
03
02
06
06
04
0C
08
18
30
20
60
C0
ENDCHAR
STARTCHAR 003C
ENCODING 60
SWIDTH 596 0
DWIDTH 53 0
BBX 38 47 8 3
BITMAP
0000000004
000000000C
0000000038
00000000F0
00000001C0
0000000700
0000001E00
0000003800
000000E000
000003C000
0000070000
00001C0000
0000780000
0000E00000
0003800000
000F000000
001C000000
0070000000
01C0000000
0380000000
0E00000000
3800000000
7000000000
C000000000
C000000000
7000000000
1C00000000
0F00000000
0380000000
00E0000000
0078000000
001C000000
0007000000
0003C00000
0000E00000
0000380000
00001E0000
0000070000
000001C000
000000F000
0000003800
0000000E00
0000000780
00000001C0
0000000070
000000003C
000000000C
ENDCHAR
STARTCHAR 003D
ENCODING 61
SWIDTH 596 0
DWIDTH 53 0
BBX 42 18 6 18
BITMAP
FFFFFFFFFFC0
FFFFFFFFFFC0
000000000000
000000000000
000000000000
000000000000
000000000000
000000000000
000000000000
000000000000
000000000000
000000000000
000000000000
000000000000
000000000000
000000000000
FFFFFFFFFFC0
FFFFFFFFFFC0
ENDCHAR
STARTCHAR 003E
ENCODING 62
SWIDTH 596 0
DWIDTH 53 0
BBX 38 46 8 4
BITMAP
C000000000
E000000000
3800000000
1E00000000
0700000000
01C0000000
00F0000000
0038000000
000E000000
0007800000
0001C00000
0000700000
00003C0000
00000E0000
0000038000
000001E000
0000007000
0000001C00
0000000700
0000000380
00000000E0
0000000038
000000001C
000000001C
0000000070
00000001E0
0000000380
0000000E00
0000003C00
0000007000
000001C000
0000078000
00000E0000
0000380000
0000F00000
0001C00000
0007000000
001E000000
0038000000
00E0000000
03C0000000
0700000000
1C00000000
7800000000
E000000000
8000000000
ENDCHAR
STARTCHAR 003F
ENCODING 63
SWIDTH 450 0
DWIDTH 40 0
BBX 34 63 3 0
BITMAP
0007FE0000
003FFFC000
00F000F000
0380003800
0700000C00
0E00000600
1C00000300
1800000300
3000000180
3000000180
60000000C0
60000000C0
C0000000C0
40000000C0
00000000C0
00000000C0
00000000C0
00000000C0
00000000C0
00000000C0
00000000C0
00000000C0
0000000180
0000000180
0000000380
0000000300
0000000600
0000000C00
0000001C00
0000007000
000001E000
00001F8000
0001FE0000
0001C00000
0001800000
0001800000
0001800000
0001800000
0001800000
0001800000
0001800000
0001800000
0001800000
0001800000
0001800000
0001800000
0001800000
0000000000
0000000000
0000000000
0000000000
0000000000
0000000000
0000000000
0000000000
0000000000
0000000000
0000000000
0003800000
0007C00000
0007C00000
0007C00000
0007C00000
ENDCHAR
STARTCHAR 0040
ENCODING 64
SWIDTH 877 0
DWIDTH 78 0
BBX 66 74 6 -11
BITMAP
0000001FFF00000000
000001FFFFF0000000
00000F80003E000000
00003C000007800000
0000F0000001E00000
0001C0000000780000
0007000000001C0000
000E000000000E0000
001800000000030000
003000000000018000
00600000000000C000
00C000000000006000
018000000000003000
018000000000003000
030000000000001800
060000000000000C00
060000000000000C00
0C0000000000000600
0C00000FFC00000600
1800007F7F06000300
180000E00386000300
1000018000C6000300
300003000066000180
300006000036000180
20000C00001E000180
60000C00000E000080
60001800000E000080
6000180000060000C0
6000100000060000C0
4000300000060000C0
4000300000060000C0
C000300000060000C0
C000300000060000C0
C000200000060000C0
C000300000060000C0
C000600000060000C0
C000600000060000C0
C000600000060000C0
C000600000060000C0
C000200000060000C0
C000200000060000C0
C00020000006000080
400030000006000080
400030000006000180
600030000006000180
600030000006000180
600010000006000100
60001800000E000300
20001800000E000300
30000C00000E000600
30000E00001E000600
300006000036000C00
180003000063001C00
180001C001C3803800
080000F00781C07000
0C00003FFE00FFE000
04000007F0001F0000
060000000000000000
030000000000000000
030000000000000000
018000000000000000
00C000000000000000
00E000000000000000
007000000000000000
003800000000000000
001C00000000000000
000E00000000000000
000380000000000000
0001C0000000000000
000070000000000000
00001E000000000000
000007C00000000000
000000FFFFFFFC0000
00000007FFFFFC0000
ENDCHAR
STARTCHAR 0041
ENCODING 65
SWIDTH 596 0
DWIDTH 53 0
BBX 47 62 3 0
BITMAP
000003800000
000003C00000
000006C00000
000006C00000
000006600000
00000C600000
00000C600000
00000C300000
000018300000
000018300000
000030180000
000030180000
0000300C0000
0000600C0000
0000600C0000
000060060000
0000C0060000
0000C0060000
0000C0030000
000180030000
000180030000
000180018000
000300018000
00030000C000
00060000C000
00060000C000
000600006000
000C00006000
000C00006000
000C00003000
001800003000
001800003000
001800001800
003000001800
003000001C00
007000000C00
006000000C00
006000000600
00C000000600
00C000000600
00FFFFFFFF00
018000000300
018000000300
018000000180
030000000180
0300000001C0
0700000000C0
0600000000C0
060000000060
0C0000000060
0C0000000060
0C0000000030
180000000030
180000000030
180000000018
300000000018
300000000018
70000000000C
60000000000C
600000000006
C00000000006
C00000000006
ENDCHAR
STARTCHAR 0042
ENCODING 66
SWIDTH 607 0
DWIDTH 54 0
BBX 39 62 10 0
BITMAP
FFFFFFE000
FFFFFFF800
C000001E00
C000000700
C000000380
C0000001C0
C0000000C0
C000000060
C000000060
C000000060
C000000030
C000000030
C000000030
C000000030
C000000030
C000000030
C000000030
C000000030
C000000030
C000000030
C000000060
C000000060
C000000060
C0000000C0
C0000001C0
C000000380
C000000700
C000001E00
FFFFFFF800
FFFFFFF800
C000001E00
C000000380
C0000000C0
C000000060
C000000030
C000000038
C000000018
C00000000C
C00000000C
C00000000C
C00000000C
C000000006
C000000006
C000000006
C000000006
C000000006
C000000006
C000000006
C000000006
C000000006
C00000000C
C00000000C
C00000000C
C000000018
C000000018
C000000030
C000000070
C0000000E0
C0000001C0
C000000F80
FFFFFFFE00
FFFFFFF000
ENDCHAR
STARTCHAR 0043
ENCODING 67
SWIDTH 607 0
DWIDTH 54 0
BBX 43 64 6 -1
BITMAP
00003FF80000
0003FFFF0000
000F8007C000
001C0000E000
007800007000
00E000001C00
01C000000C00
038000000600
030000000300
060000000180
0E0000000180
0C00000000C0
0C00000000C0
180000000000
180000000000
300000000000
300000000000
300000000000
300000000000
600000000000
600000000000
600000000000
600000000000
600000000000
600000000000
E00000000000
C00000000000
C00000000000
C00000000000
C00000000000
C00000000000
C00000000000
C00000000000
C00000000000
C00000000000
C00000000000
C00000000000
C00000000000
E00000000000
600000000000
600000000000
600000000000
600000000000
600000000000
600000000000
300000000000
300000000000
300000000000
300000000000
180000000000
180000000060
0C00000000C0
0C00000000C0
0600000001C0
060000000180
030000000300
038000000600
01C000000E00
00E000001C00
007800003800
001C0000E000
000F8007C000
0003FFFF0000
00003FF00000
ENDCHAR
STARTCHAR 0044
ENCODING 68
SWIDTH 652 0
DWIDTH 58 0
BBX 42 62 10 0
BITMAP
FFFFFF000000
FFFFFFF00000
C00000FC0000
C000001F0000
C00000078000
C0000001C000
C0000000E000
C00000007000
C00000003800
C00000001800
C00000000C00
C00000000E00
C00000000600
C00000000600
C00000000300
C00000000300
C00000000100
C00000000180
C00000000180
C00000000180
C00000000180
C000000000C0
C000000000C0
C000000000C0
C000000000C0
C000000000C0
C000000000C0
C000000000C0
C000000000C0
C000000000C0
C000000000C0
C000000000C0
C000000000C0
C000000000C0
C000000000C0
C000000000C0
C000000000C0
C000000000C0
C000000000C0
C000000000C0
C000000000C0
C00000000180
C00000000180
C00000000180
C00000000180
C00000000180
C00000000300
C00000000300
C00000000600
C00000000600
C00000000E00
C00000000C00
C00000001800
C00000003800
C00000007000
C0000000E000
C0000001C000
C00000078000
C000001F0000
C00000FC0000
FFFFFFE00000
FFFFFF000000
ENDCHAR
STARTCHAR 0045
ENCODING 69
SWIDTH 551 0
DWIDTH 49 0
BBX 33 62 10 0
BITMAP
FFFFFFFF80
FFFFFFFF80
C000000000
C000000000
C000000000
C000000000
C000000000
C000000000
C000000000
C000000000
C000000000
C000000000
C000000000
C000000000
C000000000
C000000000
C000000000
C000000000
C000000000
C000000000
C000000000
C000000000
C000000000
C000000000
C000000000
C000000000
C000000000
C000000000
C000000000
C000000000
FFFFFFFF00
C000000000
C000000000
C000000000
C000000000
C000000000
C000000000
C000000000
C000000000
C000000000
C000000000
C000000000
C000000000
C000000000
C000000000
C000000000
C000000000
C000000000
C000000000
C000000000
C000000000
C000000000
C000000000
C000000000
C000000000
C000000000
C000000000
C000000000
C000000000
C000000000
FFFFFFFF80
FFFFFFFF80
ENDCHAR
STARTCHAR 0046
ENCODING 70
SWIDTH 528 0
DWIDTH 47 0
BBX 33 62 10 0
BITMAP
FFFFFFFF80
FFFFFFFF80
C000000000
C000000000
C000000000
C000000000
C000000000
C000000000
C000000000
C000000000
C000000000
C000000000
C000000000
C000000000
C000000000
C000000000
C000000000
C000000000
C000000000
C000000000
C000000000
C000000000
C000000000
C000000000
C000000000
C000000000
C000000000
C000000000
C000000000
C000000000
FFFFFFFF00
C000000000
C000000000
C000000000
C000000000
C000000000
C000000000
C000000000
C000000000
C000000000
C000000000
C000000000
C000000000
C000000000
C000000000
C000000000
C000000000
C000000000
C000000000
C000000000
C000000000
C000000000
C000000000
C000000000
C000000000
C000000000
C000000000
C000000000
C000000000
C000000000
C000000000
C000000000
ENDCHAR
STARTCHAR 0047
ENCODING 71
SWIDTH 663 0
DWIDTH 59 0
BBX 46 64 6 -1
BITMAP
00003FFC0000
0001FFFF8000
0007C003E000
001E00007800
003800001C00
007000000600
00C000000380
018000000180
0300000000C0
070000000060
060000000070
0C0000000030
0C0000000038
180000000000
180000000000
300000000000
300000000000
300000000000
300000000000
600000000000
600000000000
600000000000
600000000000
600000000000
600000000000
E00000000000
C00000000000
C00000000000
C00000000000
C00000000000
C00000000000
C00000000000
C00000000000
C000000FFFFC
C000000FFFFC
C0000000000C
C0000000000C
C0000000000C
E0000000000C
60000000000C
60000000000C
60000000000C
60000000000C
60000000000C
60000000000C
30000000000C
30000000000C
30000000000C
38000000000C
18000000000C
18000000001C
0C000000001C
0C000000003C
06000000003C
07000000006C
03000000004C
0180000000CC
00C00000018C
00700000070C
003800000E0C
001E0000380C
0007C001F00C
0001FFFFC00C
00003FFC0000
ENDCHAR
STARTCHAR 0048
ENCODING 72
SWIDTH 686 0
DWIDTH 61 0
BBX 42 62 10 0
BITMAP
C000000000C0
C000000000C0
C000000000C0
C000000000C0
C000000000C0
C000000000C0
C000000000C0
C000000000C0
C000000000C0
C000000000C0
C000000000C0
C000000000C0
C000000000C0
C000000000C0
C000000000C0
C000000000C0
C000000000C0
C000000000C0
C000000000C0
C000000000C0
C000000000C0
C000000000C0
C000000000C0
C000000000C0
C000000000C0
C000000000C0
C000000000C0
C000000000C0
C000000000C0
C000000000C0
FFFFFFFFFFC0
C000000000C0
C000000000C0
C000000000C0
C000000000C0
C000000000C0
C000000000C0
C000000000C0
C000000000C0
C000000000C0
C000000000C0
C000000000C0
C000000000C0
C000000000C0
C000000000C0
C000000000C0
C000000000C0
C000000000C0
C000000000C0
C000000000C0
C000000000C0
C000000000C0
C000000000C0
C000000000C0
C000000000C0
C000000000C0
C000000000C0
C000000000C0
C000000000C0
C000000000C0
C000000000C0
C000000000C0
ENDCHAR
STARTCHAR 0049
ENCODING 73
SWIDTH 371 0
DWIDTH 33 0
BBX 21 62 6 0
BITMAP
FFFFF8
FFFFF8
003000
003000
003000
003000
003000
003000
003000
003000
003000
003000
003000
003000
003000
003000
003000
003000
003000
003000
003000
003000
003000
003000
003000
003000
003000
003000
003000
003000
003000
003000
003000
003000
003000
003000
003000
003000
003000
003000
003000
003000
003000
003000
003000
003000
003000
003000
003000
003000
003000
003000
003000
003000
003000
003000
003000
003000
003000
003000
FFFFF8
FFFFF8
ENDCHAR
STARTCHAR 004A
ENCODING 74
SWIDTH 461 0
DWIDTH 41 0
BBX 30 63 2 -1
BITMAP
01FFFFFC
01FFFFFC
0000000C
0000000C
0000000C
0000000C
0000000C
0000000C
0000000C
0000000C
0000000C
0000000C
0000000C
0000000C
0000000C
0000000C
0000000C
0000000C
0000000C
0000000C
0000000C
0000000C
0000000C
0000000C
0000000C
0000000C
0000000C
0000000C
0000000C
0000000C
0000000C
0000000C
0000000C
0000000C
0000000C
0000000C
0000000C
0000000C
0000000C
0000000C
0000000C
0000000C
0000000C
0000000C
0000000C
0000000C
0000000C
0000000C
0000000C
0000000C
0000000C
4000000C
C000000C
C0000018
60000018
70000030
30000030
18000060
0C0000E0
07000380
03C00F00
00FFFE00
003FF000
ENDCHAR
STARTCHAR 004B
ENCODING 75
SWIDTH 562 0
DWIDTH 50 0
BBX 39 62 10 0
BITMAP
C00000000C
C000000018
C000000030
C000000070
C0000000E0
C0000001C0
C000000380
C000000700
C000000600
C000000C00
C000001800
C000003000
C000006000
C00000C000
C00001C000
C000038000
C000070000
C0000E0000
C0001C0000
C000180000
C000300000
C000600000
C000C00000
C001800000
C003000000
C007000000
C00E000000
C01F000000
C03B000000
C071800000
C060C00000
C0C0C00000
C180600000
C300300000
C600380000
CC00180000
D8000C0000
F8000E0000
F000060000
E000030000
C000038000
C000018000
C00000C000
C00000E000
C000006000
C000003000
C000003800
C000001800
C000000C00
C000000E00
C000000600
C000000300
C000000380
C000000180
C0000000C0
C0000000E0
C000000060
C000000030
C000000038
C000000018
C00000000C
C00000000E
ENDCHAR
STARTCHAR 004C
ENCODING 76
SWIDTH 472 0
DWIDTH 42 0
BBX 30 62 10 0
BITMAP
C0000000
C0000000
C0000000
C0000000
C0000000
C0000000
C0000000
C0000000
C0000000
C0000000
C0000000
C0000000
C0000000
C0000000
C0000000
C0000000
C0000000
C0000000
C0000000
C0000000
C0000000
C0000000
C0000000
C0000000
C0000000
C0000000
C0000000
C0000000
C0000000
C0000000
C0000000
C0000000
C0000000
C0000000
C0000000
C0000000
C0000000
C0000000
C0000000
C0000000
C0000000
C0000000
C0000000
C0000000
C0000000
C0000000
C0000000
C0000000
C0000000
C0000000
C0000000
C0000000
C0000000
C0000000
C0000000
C0000000
C0000000
C0000000
C0000000
C0000000
FFFFFFFC
FFFFFFFC
ENDCHAR
STARTCHAR 004D
ENCODING 77
SWIDTH 787 0
DWIDTH 70 0
BBX 51 62 10 0
BITMAP
E00000000000E0
E00000000001E0
B00000000001E0
98000000000360
98000000000760
8C000000000660
8E000000000C60
86000000000C60
83000000001860
83000000003860
81800000003060
81C00000006060
80C00000006060
8060000000C060
8060000001C060
80300000018060
80380000030060
80180000030060
800C0000060060
800C00000C0060
800600000C0060
80070000180060
80030000180060
80018000300060
8001C000600060
8000C000600060
80006000C00060
80006001C00060
80003001800060
80003803000060
80001803000060
80000C06000060
80000C0E000060
8000060C000060
80000718000060
80000318000060
800001B0000060
800001F0000060
800000E0000060
800000C0000060
80000040000060
80000000000060
80000000000060
80000000000060
80000000000060
80000000000060
80000000000060
80000000000060
80000000000060
80000000000060
80000000000060
80000000000060
80000000000060
80000000000060
80000000000060
80000000000060
80000000000060
80000000000060
80000000000060
80000000000060
80000000000060
80000000000060
ENDCHAR
STARTCHAR 004E
ENCODING 78
SWIDTH 686 0
DWIDTH 61 0
BBX 42 62 10 0
BITMAP
E000000000C0
E000000000C0
B000000000C0
B800000000C0
9800000000C0
8C00000000C0
8E00000000C0
8600000000C0
8300000000C0
8300000000C0
8180000000C0
81C0000000C0
80C0000000C0
8060000000C0
8070000000C0
8030000000C0
8018000000C0
8018000000C0
800C000000C0
800E000000C0
8006000000C0
8003000000C0
8003800000C0
8001800000C0
8000C00000C0
8000C00000C0
8000600000C0
8000700000C0
8000300000C0
8000180000C0
80001C0000C0
80000C0000C0
8000060000C0
8000060000C0
8000030000C0
8000038000C0
8000018000C0
800000C000C0
800000E000C0
8000006000C0
8000003000C0
8000003000C0
8000001800C0
8000001C00C0
8000000C00C0
8000000600C0
8000000700C0
8000000300C0
8000000180C0
8000000180C0
80000000C0C0
80000000E0C0
8000000060C0
8000000030C0
8000000038C0
8000000018C0
800000000CC0
800000000CC0
8000000006C0
8000000007C0
8000000003C0
8000000001C0
ENDCHAR
STARTCHAR 004F
ENCODING 79
SWIDTH 675 0
DWIDTH 60 0
BBX 48 64 6 -1
BITMAP
00003FFC0000
0001FFFFC000
0007C001F000
001E00007800
003800001E00
007000000700
00C000000380
0180000001C0
0300000000C0
070000000060
060000000070
0C0000000030
0C0000000018
180000000018
18000000000C
30000000000C
30000000000C
300000000006
300000000006
600000000006
600000000006
600000000006
600000000003
600000000003
600000000003
E00000000003
C00000000003
C00000000003
C00000000003
C00000000003
C00000000003
C00000000003
C00000000003
C00000000003
C00000000003
C00000000003
C00000000003
C00000000003
E00000000003
600000000003
600000000003
600000000003
600000000006
600000000006
600000000006
300000000006
300000000006
30000000000C
38000000000C
18000000001C
180000000018
0C0000000018
0C0000000030
060000000070
070000000060
0300000000C0
0180000001C0
00C000000380
007000000700
003800001E00
001E00007800
0007C003F000
0001FFFF8000
00003FFC0000
ENDCHAR
STARTCHAR 0050
ENCODING 80
SWIDTH 585 0
DWIDTH 52 0
BBX 39 62 10 0
BITMAP
FFFFFFF000
FFFFFFFE00
C000000F80
C0000001C0
C0000000E0
C000000070
C000000030
C000000018
C000000018
C00000000C
C00000000C
C00000000C
C000000006
C000000006
C000000006
C000000006
C000000006
C000000006
C000000006
C000000006
C000000006
C00000000C
C00000000C
C00000000C
C00000000C
C000000018
C000000038
C000000030
C000000060
C0000001C0
C000000780
C000007F00
FFFFFFF800
C000000000
C000000000
C000000000
C000000000
C000000000
C000000000
C000000000
C000000000
C000000000
C000000000
C000000000
C000000000
C000000000
C000000000
C000000000
C000000000
C000000000
C000000000
C000000000
C000000000
C000000000
C000000000
C000000000
C000000000
C000000000
C000000000
C000000000
C000000000
C000000000
ENDCHAR
STARTCHAR 0051
ENCODING 81
SWIDTH 675 0
DWIDTH 60 0
BBX 48 76 6 -13
BITMAP
00003FFC0000
0001FFFFC000
0007C001F000
001E00007800
003800001E00
007000000700
00C000000380
0180000001C0
0300000000C0
070000000060
060000000070
0C0000000030
0C0000000018
180000000018
18000000000C
30000000000C
30000000000C
300000000006
300000000006
600000000006
600000000006
600000000006
600000000003
600000000003
600000000003
E00000000003
C00000000003
C00000000003
C00000000003
C00000000003
C00000000003
C00000000003
C00000000003
C00000000003
C00000000003
C00000000003
C00000000003
C00000000003
E00000000003
600000000003
600000000003
600000000003
600000000006
600000000006
600000000006
300000000006
300000000006
30000000000C
38000000000C
18000000001C
180000000018
0C0000000018
0C0000000030
060000000070
070000000060
0300000000C0
0180000001C0
00C000000380
007000000700
003800001E00
001E00007800
0007C003F000
0001FFFF8000
00003FFC0000
000001800000
000001800000
000001800000
000001800000
000001800000
000001800000
000001800000
000001800000
000001800000
000001800000
000001FFE000
000000FFE000
ENDCHAR
STARTCHAR 0052
ENCODING 82
SWIDTH 630 0
DWIDTH 56 0
BBX 40 62 10 0
BITMAP
FFFFFFF000
FFFFFFFE00
C000000F80
C0000001C0
C0000000E0
C000000070
C000000030
C000000018
C000000018
C00000000C
C00000000C
C00000000C
C000000006
C000000006
C000000006
C000000006
C000000006
C000000006
C000000006
C000000006
C000000006
C00000000C
C00000000C
C00000000C
C00000000C
C000000018
C000000038
C000000030
C000000060
C0000001C0
C000000780
C000007F00
FFFFFFF800
C000060000
C000030000
C000038000
C000018000
C00001C000
C00000C000
C000006000
C000007000
C000003000
C000003800
C000001800
C000000C00
C000000C00
C000000600
C000000700
C000000300
C000000180
C000000180
C0000000C0
C0000000E0
C000000060
C000000030
C000000030
C000000018
C00000001C
C00000000C
C000000006
C000000006
C000000003
ENDCHAR
STARTCHAR 0053
ENCODING 83
SWIDTH 540 0
DWIDTH 48 0
BBX 39 64 4 -1
BITMAP
0003FFE000
003FFFFC00
00F8001F00
01C00003C0
07000000E0
0E00000070
0C00000038
180000001C
380000000C
3000000000
3000000000
3000000000
6000000000
6000000000
6000000000
6000000000
6000000000
6000000000
6000000000
3000000000
3000000000
3000000000
3800000000
1800000000
0C00000000
0E00000000
0780000000
01C0000000
00F8000000
003F800000
0007FC0000
00007FE000
000003FC00
0000003F00
0000000380
00000000E0
0000000070
0000000038
0000000018
000000000C
000000000C
0000000006
0000000006
0000000006
0000000006
0000000006
0000000006
0000000006
0000000006
0000000006
0000000006
0000000006
0000000006
C000000006
E00000000C
700000000C
3800000018
1C00000038
0E00000070
07800000E0
01E0000380
00FC001F00
001FFFFC00
0003FFE000
ENDCHAR
STARTCHAR 0054
ENCODING 84
SWIDTH 551 0
DWIDTH 49 0
BBX 46 62 2 0
BITMAP
FFFFFFFFFFFC
FFFFFFFFFFFC
000003000000
000003000000
000003000000
000003000000
000003000000
000003000000
000003000000
000003000000
000003000000
000003000000
000003000000
000003000000
000003000000
000003000000
000003000000
000003000000
000003000000
000003000000
000003000000
000003000000
000003000000
000003000000
000003000000
000003000000
000003000000
000003000000
000003000000
000003000000
000003000000
000003000000
000003000000
000003000000
000003000000
000003000000
000003000000
000003000000
000003000000
000003000000
000003000000
000003000000
000003000000
000003000000
000003000000
000003000000
000003000000
000003000000
000003000000
000003000000
000003000000
000003000000
000003000000
000003000000
000003000000
000003000000
000003000000
000003000000
000003000000
000003000000
000003000000
000003000000
ENDCHAR
STARTCHAR 0055
ENCODING 85
SWIDTH 641 0
DWIDTH 57 0
BBX 40 63 9 -1
BITMAP
C000000003
C000000003
C000000003
C000000003
C000000003
C000000003
C000000003
C000000003
C000000003
C000000003
C000000003
C000000003
C000000003
C000000003
C000000003
C000000003
C000000003
C000000003
C000000003
C000000003
C000000003
C000000003
C000000003
C000000003
C000000003
C000000003
C000000003
C000000003
C000000003
C000000003
C000000003
C000000003
C000000003
C000000003
C000000003
C000000003
C000000003
C000000003
C000000003
C000000003
C000000003
C000000003
C000000003
C000000003
C000000003
C000000003
C000000003
C000000006
6000000006
6000000006
6000000006
6000000006
300000000C
300000000C
3800000018
1800000018
0C00000030
0E00000070
07000000E0
03C0000380
00F8001F00
003FFFFC00
0003FFC000
ENDCHAR
STARTCHAR 0056
ENCODING 86
SWIDTH 562 0
DWIDTH 50 0
BBX 45 62 3 0
BITMAP
C00000000018
C00000000030
600000000030
600000000030
600000000060
300000000060
300000000060
3000000000C0
1800000000C0
1800000000C0
180000000180
0C0000000180
0C0000000180
0C0000000300
060000000300
060000000300
060000000600
030000000600
030000000600
030000000C00
018000000C00
018000000C00
01C000001800
00C000001800
00C000001800
00E000003000
006000003000
006000003000
007000006000
003000006000
003000006000
00180000C000
00180000C000
001800018000
000C00018000
000C00018000
000C00030000
000600030000
000600030000
000600060000
000300060000
000300060000
0003000C0000
0001800C0000
0001800C0000
000180180000
0000C0180000
0000C0180000
0000C0300000
000060300000
000060300000
000060600000
000030600000
000030600000
000030C00000
000018C00000
000018C00000
000019800000
00000D800000
00000D800000
00000F000000
000007000000
ENDCHAR
STARTCHAR 0057
ENCODING 87
SWIDTH 866 0
DWIDTH 77 0
BBX 72 62 3 0
BITMAP
C00000003800000003
C00000003C00000006
C00000002C00000006
600000006C00000006
600000006400000006
60000000660000000C
70000000C60000000C
30000000C60000000C
30000000C30000000C
30000000C300000018
380000018300000018
180000018300000018
180000018180000038
180000010180000030
0C0000030180000030
0C00000300C0000030
0C00000300C0000060
0C00000600C0000060
0600000600C0000060
060000060060000060
0600000400600000C0
0600000C00600000C0
0300000C00200000C0
0300000C00300000C0
030000180030000180
038000180030000180
018000180018000180
018000180018000380
018000300018000300
00C000300008000300
00C00030000C000300
00C00060000C000600
00C00060000C000600
006000600006000600
006000600006000600
006000C00006000C00
006000C00006000C00
003000C00003000C00
003000800003000C00
003001800003001800
003001800001801800
001801800001801800
001803000001803800
001803000001803000
000C03000000C03000
000C02000000C03000
000C06000000C06000
000C06000000606000
000606000000606000
00060C000000606000
00060C00000060C000
00060C00000030C000
00030C00000030C000
00031800000030C000
000318000000118000
000318000000198000
0001B0000000198000
0001B0000000198000
0001B00000000F0000
0000F00000000F0000
0000E00000000F0000
0000E00000000E0000
ENDCHAR
STARTCHAR 0058
ENCODING 88
SWIDTH 551 0
DWIDTH 49 0
BBX 44 62 3 0
BITMAP
600000000060
7000000000C0
3000000001C0
180000000180
1C0000000300
0C0000000700
060000000600
070000000C00
030000001C00
018000001800
01C000003000
00C000007000
006000006000
00700000C000
00300001C000
001800018000
001C00030000
000C00070000
000600060000
0007000C0000
0003001C0000
000180180000
0001C0300000
0000C0700000
000060600000
000070C00000
000031C00000
000019800000
00001F000000
00000F000000
000006000000
00000F000000
00001F800000
000019800000
000031C00000
000070E00000
000060600000
0000C0700000
0001C0380000
000180180000
0003001C0000
0007000E0000
000600060000
000C00070000
001C00038000
001800018000
00300001C000
00700000C000
006000006000
00C000007000
01C000003000
018000001800
030000001C00
070000000C00
060000000600
0C0000000700
1C0000000300
180000000180
3000000001C0
6000000000C0
E00000000060
C00000000070
ENDCHAR
STARTCHAR 0059
ENCODING 89
SWIDTH 540 0
DWIDTH 48 0
BBX 44 62 2 0
BITMAP
C00000000030
600000000030
700000000060
3000000000E0
1800000000C0
180000000180
0C0000000180
0E0000000300
060000000700
030000000600
030000000C00
018000000C00
01C000001800
00C000003800
006000003000
006000006000
003000006000
00380000C000
00180001C000
000C00018000
000C00030000
000600030000
000700060000
0003000E0000
0001800C0000
000180180000
0000C0180000
0000E0300000
000060700000
000070600000
000030C00000
000018C00000
00001D800000
00000F800000
00000F000000
000006000000
000006000000
000006000000
000006000000
000006000000
000006000000
000006000000
000006000000
000006000000
000006000000
000006000000
000006000000
000006000000
000006000000
000006000000
000006000000
000006000000
000006000000
000006000000
000006000000
000006000000
000006000000
000006000000
000006000000
000006000000
000006000000
000006000000
ENDCHAR
STARTCHAR 005A
ENCODING 90
SWIDTH 551 0
DWIDTH 49 0
BBX 44 62 3 0
BITMAP
1FFFFFFFFFC0
1FFFFFFFFFC0
0000000001C0
000000000180
000000000300
000000000700
000000000600
000000000C00
000000001C00
000000001800
000000003000
000000007000
000000006000
00000000C000
000000018000
000000018000
000000030000
000000060000
000000060000
0000000C0000
000000180000
000000380000
000000300000
000000600000
000000E00000
000000C00000
000001800000
000003800000
000003000000
000006000000
00000E000000
00000C000000
000018000000
000038000000
000030000000
000060000000
0000E0000000
0000C0000000
000180000000
000380000000
000300000000
000600000000
000E00000000
000C00000000
001800000000
003800000000
003000000000
006000000000
00E000000000
00C000000000
018000000000
030000000000
030000000000
060000000000
0C0000000000
0C0000000000
180000000000
300000000000
300000000000
600000000000
FFFFFFFFFFF0
FFFFFFFFFFF0
ENDCHAR
STARTCHAR 005B
ENCODING 91
SWIDTH 292 0
DWIDTH 26 0
BBX 11 80 10 -12
BITMAP
FFE0
FFE0
8000
8000
8000
8000
8000
8000
8000
8000
8000
8000
8000
8000
8000
8000
8000
8000
8000
8000
8000
8000
8000
8000
8000
8000
8000
8000
8000
8000
8000
8000
8000
8000
8000
8000
8000
8000
8000
8000
8000
8000
8000
8000
8000
8000
8000
8000
8000
8000
8000
8000
8000
8000
8000
8000
8000
8000
8000
8000
8000
8000
8000
8000
8000
8000
8000
8000
8000
8000
8000
8000
8000
8000
8000
8000
8000
8000
8000
FFE0
ENDCHAR
STARTCHAR 005C
ENCODING 92
SWIDTH 303 0
DWIDTH 27 0
BBX 22 79 4 -13
BITMAP
C00000
C00000
C00000
400000
600000
600000
600000
200000
300000
300000
300000
100000
180000
180000
180000
080000
0C0000
0C0000
0C0000
040000
060000
060000
060000
030000
030000
030000
010000
018000
018000
018000
008000
00C000
00C000
00C000
004000
006000
006000
006000
002000
003000
003000
003000
001000
001800
001800
001800
000C00
000C00
000C00
000400
000600
000600
000600
000200
000300
000300
000300
000100
000180
000180
000180
000080
0000C0
0000C0
0000C0
000060
000060
000060
000060
000030
000030
000030
000010
000018
000018
000018
000008
00000C
00000C
ENDCHAR
STARTCHAR 005D
ENCODING 93
SWIDTH 292 0
DWIDTH 26 0
BBX 11 80 6 -12
BITMAP
FFE0
FFE0
0060
0060
0060
0060
0060
0060
0060
0060
0060
0060
0060
0060
0060
0060
0060
0060
0060
0060
0060
0060
0060
0060
0060
0060
0060
0060
0060
0060
0060
0060
0060
0060
0060
0060
0060
0060
0060
0060
0060
0060
0060
0060
0060
0060
0060
0060
0060
0060
0060
0060
0060
0060
0060
0060
0060
0060
0060
0060
0060
0060
0060
0060
0060
0060
0060
0060
0060
0060
0060
0060
0060
0060
0060
0060
0060
0060
0060
FFE0
ENDCHAR
STARTCHAR 005E
ENCODING 94
SWIDTH 596 0
DWIDTH 53 0
BBX 41 33 6 29
BITMAP
00001C000000
00001E000000
000036000000
000033000000
000063000000
0000C1800000
0000C0C00000
000180C00000
000180600000
000300600000
000600300000
000600180000
000C00180000
001C000C0000
0018000C0000
003000060000
003000030000
006000030000
00E000018000
00C000018000
01800000C000
018000006000
030000006000
070000003000
060000003000
0C0000001800
0C0000000C00
180000000C00
380000000600
300000000700
600000000300
600000000180
C00000000180
ENDCHAR
STARTCHAR 005F
ENCODING 95
SWIDTH 562 0
DWIDTH 50 0
BBX 45 2 3 -13
BITMAP
FFFFFFFFFFF8
FFFFFFFFFFF8
ENDCHAR
STARTCHAR 0060
ENCODING 96
SWIDTH 596 0
DWIDTH 53 0
BBX 11 15 18 52
BITMAP
4000
E000
6000
3000
3800
1800
0C00
0600
0700
0300
0180
00C0
00C0
0060
0020
ENDCHAR
STARTCHAR 0061
ENCODING 97
SWIDTH 517 0
DWIDTH 46 0
BBX 39 47 5 -1
BITMAP
000FFC0000
007FFF8000
01E001E000
0380007000
0600003800
0C00001C00
1C00000C00
1800000600
3000000600
3000000600
0000000200
0000000300
0000000300
0000000300
0000000300
0000000300
0000000300
0000000300
0000000300
0000000300
0000000300
0000000300
007FFFFF00
01F0000300
0780000300
0E00000300
1800000300
3000000300
3000000300
6000000300
6000000300
6000000300
4000000300
C000000300
C000000300
C000000300
4000000700
6000000700
6000000700
6000000B00
3000001B00
3000003300
1800006300
0E0001C300
07800783FE
01FFFE01FE
003FF00000
ENDCHAR
STARTCHAR 0062
ENCODING 98
SWIDTH 562 0
DWIDTH 50 0
BBX 36 67 9 -1
BITMAP
C000000000
C000000000
C000000000
C000000000
C000000000
C000000000
C000000000
C000000000
C000000000
C000000000
C000000000
C000000000
C000000000
C000000000
C000000000
C000000000
C000000000
C000000000
C000000000
C000000000
C00FFC0000
C07FFF8000
C1F001E000
C380007800
C600001C00
CC00000E00
D800000600
D000000300
F000000180
E000000180
E0000000C0
C0000000C0
C000000040
C000000060
C000000060
C000000060
C000000060
C000000030
C000000030
C000000030
C000000030
C000000030
C000000030
C000000030
C000000030
C000000030
C000000030
C000000030
C000000030
C000000030
C000000060
C000000060
C000000060
C000000060
C000000040
C0000000C0
E0000000C0
E000000180
F000000180
D000000300
D800000600
CC00000E00
C600001C00
C380007000
C1F001E000
C07FFF8000
000FFC0000
ENDCHAR
STARTCHAR 0063
ENCODING 99
SWIDTH 483 0
DWIDTH 43 0
BBX 34 47 5 -1
BITMAP
0003FF0000
001FFFC000
007800F000
00E0001800
0380000E00
0300000600
0600000300
0C00000180
1C00000180
1800000000
3000000000
3000000000
3000000000
6000000000
6000000000
6000000000
6000000000
6000000000
4000000000
C000000000
C000000000
C000000000
C000000000
C000000000
C000000000
C000000000
C000000000
C000000000
4000000000
6000000000
6000000000
6000000000
6000000000
6000000000
3000000000
3000000000
3000000000
1800000000
18000000C0
0C000000C0
0600000180
0700000300
0380000600
00E0001C00
0078007800
001FFFE000
0003FF0000
ENDCHAR
STARTCHAR 0064
ENCODING 100
SWIDTH 562 0
DWIDTH 50 0
BBX 36 67 5 -1
BITMAP
0000000030
0000000030
0000000030
0000000030
0000000030
0000000030
0000000030
0000000030
0000000030
0000000030
0000000030
0000000030
0000000030
0000000030
0000000030
0000000030
0000000030
0000000030
0000000030
0000000030
0003FF0030
001FFFE030
0078007830
00E0001C30
0180000630
0300000330
06000001B0
0C000000F0
1C00000070
1800000070
3000000070
3000000030
3000000030
6000000030
6000000030
6000000030
6000000030
6000000030
4000000030
C000000030
C000000030
C000000030
C000000030
C000000030
C000000030
C000000030
C000000030
C000000030
4000000030
6000000030
6000000030
6000000030
6000000030
6000000030
3000000030
3000000030
3000000070
1800000070
1C00000070
0C000000F0
06000001B0
0300000330
0180000630
00E0001C30
0078007830
001FFFE030
0003FF0000
ENDCHAR
STARTCHAR 0065
ENCODING 101
SWIDTH 528 0
DWIDTH 47 0
BBX 37 47 5 -1
BITMAP
0003FE0000
001FFFC000
007800F000
00E0003800
0380000E00
0300000700
0600000300
0C00000180
1C000000C0
18000000C0
3000000060
3000000060
3000000030
6000000030
6000000030
6000000030
6000000018
6000000018
4000000018
C000000018
C000000018
C000000018
FFFFFFFFF8
C000000000
C000000000
C000000000
C000000000
C000000000
4000000000
6000000000
6000000000
6000000000
6000000000
6000000000
3000000000
3000000030
3000000030
1800000060
1C00000060
0C000000C0
0600000180
0300000300
0180000700
00E0001C00
0078007800
001FFFE000
0003FF0000
ENDCHAR
STARTCHAR 0066
ENCODING 102
SWIDTH 281 0
DWIDTH 25 0
BBX 20 66 3 0
BITMAP
007FF0
00FFF0
00C000
00C000
00C000
00C000
00C000
00C000
00C000
00C000
00C000
00C000
00C000
00C000
00C000
00C000
00C000
00C000
00C000
00C000
00C000
FFFFF0
FFFFF0
00C000
00C000
00C000
00C000
00C000
00C000
00C000
00C000
00C000
00C000
00C000
00C000
00C000
00C000
00C000
00C000
00C000
00C000
00C000
00C000
00C000
00C000
00C000
00C000
00C000
00C000
00C000
00C000
00C000
00C000
00C000
00C000
00C000
00C000
00C000
00C000
00C000
00C000
00C000
00C000
00C000
00C000
00C000
ENDCHAR
STARTCHAR 0067
ENCODING 103
SWIDTH 517 0
DWIDTH 46 0
BBX 41 69 4 -19
BITMAP
00000003FF80
00000007FF80
000000060000
000000060000
0001FF060000
000FFFE60000
003C007E0000
0060001E0000
00C000060000
018000030000
030000038000
030000018000
06000000C000
06000000C000
0C000000C000
0C000000C000
0C0000006000
0C0000006000
0C0000006000
0C0000006000
0C0000006000
0C0000006000
0C000000C000
0C000000C000
06000000C000
06000000C000
030000018000
030000030000
018000030000
00C000060000
0070001C0000
003C00700000
000FFFE00000
003DFF000000
00E000000000
018000000000
030000000000
060000000000
060000000000
040000000000
040000000000
040000000000
060000000000
070000000000
038000000000
01FFFFFC0000
007FFFFFC000
01C00001F000
070000003C00
0C0000000C00
180000000600
300000000300
700000000300
600000000300
600000000300
600000000180
C00000000180
C00000000300
C00000000300
600000000300
600000000300
600000000600
300000000E00
380000001C00
1C0000003800
07000000E000
03E0000F8000
007FFFFE0000
0007FF800000
ENDCHAR
STARTCHAR 0068
ENCODING 104
SWIDTH 551 0
DWIDTH 49 0
BBX 32 66 9 0
BITMAP
C0000000
C0000000
C0000000
C0000000
C0000000
C0000000
C0000000
C0000000
C0000000
C0000000
C0000000
C0000000
C0000000
C0000000
C0000000
C0000000
C0000000
C0000000
C0000000
C0000000
C01FF800
C07FFF00
C1E003C0
C30000E0
C6000030
CC000018
D800001C
D000000C
E0000006
E0000006
E0000006
C0000006
C0000003
C0000003
C0000003
C0000003
C0000003
C0000003
C0000003
C0000003
C0000003
C0000003
C0000003
C0000003
C0000003
C0000003
C0000003
C0000003
C0000003
C0000003
C0000003
C0000003
C0000003
C0000003
C0000003
C0000003
C0000003
C0000003
C0000003
C0000003
C0000003
C0000003
C0000003
C0000003
C0000003
C0000003
ENDCHAR
STARTCHAR 0069
ENCODING 105
SWIDTH 225 0
DWIDTH 20 0
BBX 4 64 8 0
BITMAP
70
F0
F0
70
00
00
00
00
00
00
00
00
00
00
00
00
00
00
00
60
60
60
60
60
60
60
60
60
60
60
60
60
60
60
60
60
60
60
60
60
60
60
60
60
60
60
60
60
60
60
60
60
60
60
60
60
60
60
60
60
60
60
60
60
ENDCHAR
STARTCHAR 006A
ENCODING 106
SWIDTH 225 0
DWIDTH 20 0
BBX 10 82 2 -18
BITMAP
01C0
03C0
03C0
01C0
0000
0000
0000
0000
0000
0000
0000
0000
0000
0000
0000
0000
0000
0000
0000
0180
0180
0180
0180
0180
0180
0180
0180
0180
0180
0180
0180
0180
0180
0180
0180
0180
0180
0180
0180
0180
0180
0180
0180
0180
0180
0180
0180
0180
0180
0180
0180
0180
0180
0180
0180
0180
0180
0180
0180
0180
0180
0180
0180
0180
0180
0180
0180
0180
0180
0180
0180
0180
0180
0180
0180
0180
0180
0180
0180
0180
FF80
FF00
ENDCHAR
STARTCHAR 006B
ENCODING 107
SWIDTH 483 0
DWIDTH 43 0
BBX 32 66 9 0
BITMAP
C0000000
C0000000
C0000000
C0000000
C0000000
C0000000
C0000000
C0000000
C0000000
C0000000
C0000000
C0000000
C0000000
C0000000
C0000000
C0000000
C0000000
C0000000
C0000000
C0000000
C0000000
C000001C
C0000038
C0000070
C00000E0
C00001C0
C0000380
C0000700
C0000E00
C0001C00
C0003800
C0007000
C000E000
C001C000
C0038000
C0070000
C00E0000
C01C0000
C0380000
C0700000
C0F00000
C1F80000
C3980000
C70C0000
CE060000
DC070000
F8038000
F001C000
E000C000
C0006000
C0003000
C0003800
C0001C00
C0000E00
C0000600
C0000300
C0000180
C00001C0
C00000E0
C0000060
C0000030
C0000018
C000000C
C000000E
C0000007
C0000003
ENDCHAR
STARTCHAR 006C
ENCODING 108
SWIDTH 247 0
DWIDTH 22 0
BBX 10 66 9 0
BITMAP
C000
C000
C000
C000
C000
C000
C000
C000
C000
C000
C000
C000
C000
C000
C000
C000
C000
C000
C000
C000
C000
C000
C000
C000
C000
C000
C000
C000
C000
C000
C000
C000
C000
C000
C000
C000
C000
C000
C000
C000
C000
C000
C000
C000
C000
C000
C000
C000
C000
C000
C000
C000
C000
C000
C000
C000
C000
C000
C000
C000
C000
C000
C000
C000
FFC0
7FC0
ENDCHAR
STARTCHAR 006D
ENCODING 109
SWIDTH 877 0
DWIDTH 78 0
BBX 61 46 9 0
BITMAP
001FF80000FFC000
C0FFFF0007FFF800
C1C007800F001E00
C70000C018000700
CE00006030000380
C8000030600001C0
D8000018C00000C0
D000000980000060
E000000D80000060
E000000D00000030
E000000700000030
C000000700000030
C000000700000030
C000000600000010
C000000600000018
C000000200000018
C000000200000018
C000000200000018
C000000200000018
C000000200000018
C000000200000018
C000000200000018
C000000200000018
C000000200000018
C000000200000018
C000000200000018
C000000200000018
C000000200000018
C000000200000018
C000000200000018
C000000200000018
C000000200000018
C000000200000018
C000000200000018
C000000200000018
C000000200000018
C000000200000018
C000000200000018
C000000200000018
C000000200000018
C000000200000018
C000000200000018
C000000200000018
C000000200000018
C000000200000018
C000000200000018
ENDCHAR
STARTCHAR 006E
ENCODING 110
SWIDTH 551 0
DWIDTH 49 0
BBX 32 46 9 0
BITMAP
001FF800
C07FFF00
C1E003C0
C30000E0
C6000030
CC000018
D800001C
D000000C
E0000006
E0000006
E0000006
C0000006
C0000003
C0000003
C0000003
C0000003
C0000003
C0000003
C0000003
C0000003
C0000003
C0000003
C0000003
C0000003
C0000003
C0000003
C0000003
C0000003
C0000003
C0000003
C0000003
C0000003
C0000003
C0000003
C0000003
C0000003
C0000003
C0000003
C0000003
C0000003
C0000003
C0000003
C0000003
C0000003
C0000003
C0000003
ENDCHAR
STARTCHAR 006F
ENCODING 111
SWIDTH 540 0
DWIDTH 48 0
BBX 38 47 5 -1
BITMAP
0003FF0000
001FFFE000
0078007800
00E0001C00
0380000700
0300000300
0600000180
0C000000C0
1C000000E0
1800000060
3000000030
3000000030
3000000030
6000000018
6000000018
6000000018
6000000018
6000000018
4000000018
C000000008
C00000000C
C00000000C
C00000000C
C00000000C
C00000000C
C00000000C
C00000000C
C00000000C
4000000018
6000000018
6000000018
6000000018
6000000018
6000000018
3000000030
3000000030
3000000030
1800000060
18000000E0
0C000000C0
0600000180
0700000380
0380000700
00E0001C00
0078007800
001FFFE000
0003FF0000
ENDCHAR
STARTCHAR 0070
ENCODING 112
SWIDTH 562 0
DWIDTH 50 0
BBX 36 64 9 -18
BITMAP
000FFC0000
C07FFF8000
C1F001E000
C380007800
C600001C00
CC00000E00
D800000600
D000000300
F000000180
E000000180
E0000000C0
C0000000C0
C000000040
C000000060
C000000060
C000000060
C000000060
C000000030
C000000030
C000000030
C000000030
C000000030
C000000030
C000000030
C000000030
C000000030
C000000030
C000000030
C000000030
C000000030
C000000060
C000000060
C000000060
C000000060
C000000040
C0000000C0
E0000000C0
E000000180
F000000180
D000000300
D800000600
CC00000E00
C600001C00
C380007000
C1F001E000
C07FFF8000
C00FFC0000
C000000000
C000000000
C000000000
C000000000
C000000000
C000000000
C000000000
C000000000
C000000000
C000000000
C000000000
C000000000
C000000000
C000000000
C000000000
C000000000
C000000000
ENDCHAR
STARTCHAR 0071
ENCODING 113
SWIDTH 562 0
DWIDTH 50 0
BBX 36 64 5 -18
BITMAP
0003FF0000
001FFFE030
0078007830
00E0001C30
0180000630
0300000330
06000001B0
0C000000F0
1C00000070
1800000070
3000000070
3000000030
3000000030
6000000030
6000000030
6000000030
6000000030
6000000030
4000000030
C000000030
C000000030
C000000030
C000000030
C000000030
C000000030
C000000030
C000000030
C000000030
4000000030
6000000030
6000000030
6000000030
6000000030
6000000030
3000000030
3000000030
3000000070
1800000070
1C00000070
0C000000F0
06000001B0
0300000330
0180000630
00E0001C30
0078007830
001FFFE030
0003FF0030
0000000030
0000000030
0000000030
0000000030
0000000030
0000000030
0000000030
0000000030
0000000030
0000000030
0000000030
0000000030
0000000030
0000000030
0000000030
0000000030
0000000030
ENDCHAR
STARTCHAR 0072
ENCODING 114
SWIDTH 337 0
DWIDTH 30 0
BBX 20 45 9 0
BITMAP
C00FF0
C07FF0
C1E000
C30000
C60000
CC0000
D80000
D00000
E00000
E00000
E00000
C00000
C00000
C00000
C00000
C00000
C00000
C00000
C00000
C00000
C00000
C00000
C00000
C00000
C00000
C00000
C00000
C00000
C00000
C00000
C00000
C00000
C00000
C00000
C00000
C00000
C00000
C00000
C00000
C00000
C00000
C00000
C00000
C00000
C00000
ENDCHAR
STARTCHAR 0073
ENCODING 115
SWIDTH 461 0
DWIDTH 41 0
BBX 31 47 5 -1
BITMAP
003FF000
01FFFE00
07800780
0E0000E0
1C000070
18000038
3000001C
60000008
60000000
60000000
60000000
60000000
60000000
60000000
60000000
60000000
30000000
30000000
18000000
0E000000
07800000
01F00000
007FC000
0007FC00
00001F80
000003E0
00000070
00000038
00000018
0000000C
0000000C
00000004
00000006
00000006
00000006
00000006
00000006
00000006
C000000C
C000000C
6000000C
30000018
1C000030
0E000060
07C003C0
01FFFF00
003FF800
ENDCHAR
STARTCHAR 0074
ENCODING 116
SWIDTH 303 0
DWIDTH 27 0
BBX 21 58 3 0
BITMAP
00C000
00C000
00C000
00C000
00C000
00C000
00C000
00C000
00C000
00C000
00C000
00C000
00C000
FFFFF8
FFFFF8
00C000
00C000
00C000
00C000
00C000
00C000
00C000
00C000
00C000
00C000
00C000
00C000
00C000
00C000
00C000
00C000
00C000
00C000
00C000
00C000
00C000
00C000
00C000
00C000
00C000
00C000
00C000
00C000
00C000
00C000
00C000
00C000
00C000
00C000
00C000
00C000
00C000
00C000
00C000
00C000
00C000
00FFF0
007FF0
ENDCHAR
STARTCHAR 0075
ENCODING 117
SWIDTH 551 0
DWIDTH 49 0
BBX 32 46 8 -1
BITMAP
C0000003
C0000003
C0000003
C0000003
C0000003
C0000003
C0000003
C0000003
C0000003
C0000003
C0000003
C0000003
C0000003
C0000003
C0000003
C0000003
C0000003
C0000003
C0000003
C0000003
C0000003
C0000003
C0000003
C0000003
C0000003
C0000003
C0000003
C0000003
C0000003
C0000003
C0000003
40000003
60000003
60000003
60000003
60000003
60000003
30000007
30000007
1800000B
1C00001B
0E000033
070000E3
03C003C3
00FFFF03
001FF800
ENDCHAR
STARTCHAR 0076
ENCODING 118
SWIDTH 450 0
DWIDTH 40 0
BBX 36 45 2 0
BITMAP
C000000030
6000000020
6000000060
2000000060
30000000C0
30000000C0
18000000C0
1800000180
1800000180
0C00000100
0C00000300
0C00000300
0600000600
0600000600
0300000600
0300000C00
0300000C00
0180000800
0180001800
0180001800
00C0001000
00C0003000
0040003000
0060006000
0060006000
0030004000
003000C000
003000C000
0018008000
0018018000
0008018000
000C030000
000C030000
0006030000
0006060000
0006060000
0003040000
00030C0000
00010C0000
0001980000
0001980000
0000D80000
0000F00000
0000F00000
0000600000
ENDCHAR
STARTCHAR 0077
ENCODING 119
SWIDTH 720 0
DWIDTH 64 0
BBX 58 45 3 0
BITMAP
C000000C000000C0
6000000E000000C0
6000000E000000C0
6000001E00000180
6000001B00000180
3000001300000180
3000003300000100
3000003180000300
1800002180000300
1800006180000200
1800006080000600
0C000040C0000600
0C0000C0C0000600
0C0000C040000C00
040000C060000C00
0600018060000C00
0600018020000800
0600018030001800
0300010030001800
0300030030001000
0300030018003000
0180020018003000
0180060018003000
018006000C006000
008004000C006000
00C00C000C006000
00C00C000400C000
00C00C000600C000
006018000600C000
0060180002008000
0060180003018000
0030100003018000
0030300003010000
0030300001830000
0010200001830000
0018600001830000
0018600000C60000
0008400000C60000
000CC00000C60000
000CC00000440000
000CC000006C0000
00078000006C0000
0007800000280000
0007800000380000
0003000000380000
ENDCHAR
STARTCHAR 0078
ENCODING 120
SWIDTH 461 0
DWIDTH 41 0
BBX 35 45 3 0
BITMAP
6000000060
30000000C0
30000001C0
1800000180
0C00000300
0E00000600
0600000E00
0300000C00
0180001800
01C0003000
00C0003000
0060006000
003000C000
0030018000
0018018000
000C030000
000E060000
00060E0000
00030C0000
0001980000
0001F00000
0000F00000
0000600000
0000F00000
0001980000
0003980000
00030C0000
0006060000
000C070000
001C030000
0018018000
003000C000
006000E000
00E0006000
00C0003000
0180001800
0300001C00
0300000C00
0600000600
0C00000300
1800000300
1800000180
30000000C0
6000000060
E000000060
ENDCHAR
STARTCHAR 0079
ENCODING 121
SWIDTH 450 0
DWIDTH 40 0
BBX 36 63 2 -18
BITMAP
C000000030
6000000020
6000000060
2000000060
30000000C0
30000000C0
18000000C0
1800000180
1800000180
0C00000100
0C00000300
0C00000300
0600000600
0600000600
0300000600
0300000C00
0300000C00
0180000800
0180001800
0180001800
00C0001000
00C0003000
0040003000
0060006000
0060006000
0030006000
003000C000
003000C000
0018008000
0018018000
0008018000
000C030000
000C030000
0006030000
0006060000
0006060000
0003040000
00030C0000
00010C0000
0001980000
0001980000
0000D80000
0000F00000
0000F00000
0000600000
0000600000
0000600000
0000C00000
0000C00000
0000C00000
0001800000
0001800000
0001800000
0003000000
0003000000
0006000000
0006000000
0006000000
000C000000
000C000000
000C000000
1FF8000000
1FF0000000
ENDCHAR
STARTCHAR 007A
ENCODING 122
SWIDTH 416 0
DWIDTH 37 0
BBX 33 45 2 0
BITMAP
7FFFFFFF00
7FFFFFFF00
0000000300
0000000600
0000000C00
0000000C00
0000001800
0000003000
0000007000
0000006000
000000C000
0000018000
0000018000
0000030000
0000060000
00000C0000
00000C0000
0000180000
0000300000
0000700000
0000600000
0000C00000
0001800000
0001800000
0003000000
0006000000
000E000000
000C000000
0018000000
0030000000
0030000000
0060000000
00C0000000
0180000000
0180000000
0300000000
0600000000
0E00000000
0C00000000
1800000000
3000000000
3000000000
6000000000
FFFFFFFF80
FFFFFFFF80
ENDCHAR
STARTCHAR 007B
ENCODING 123
SWIDTH 315 0
DWIDTH 28 0
BBX 20 80 2 -12
BITMAP
003FF0
007FF0
006000
006000
006000
006000
006000
006000
006000
006000
006000
006000
006000
006000
006000
006000
006000
006000
006000
006000
006000
006000
006000
006000
006000
006000
006000
006000
006000
006000
006000
006000
004000
00C000
00C000
018000
038000
070000
FE0000
F00000
C00000
F80000
FE0000
070000
018000
00C000
00C000
004000
006000
006000
006000
006000
006000
006000
006000
006000
006000
006000
006000
006000
006000
006000
006000
006000
006000
006000
006000
006000
006000
006000
006000
006000
006000
006000
006000
006000
006000
006000
006000
007FF0
ENDCHAR
STARTCHAR 007C
ENCODING 124
SWIDTH 225 0
DWIDTH 20 0
BBX 1 80 10 -12
BITMAP
80
80
80
80
80
80
80
80
80
80
80
80
80
80
80
80
80
80
80
80
80
80
80
80
80
80
80
80
80
80
80
80
80
80
80
80
80
80
80
80
80
80
80
80
80
80
80
80
80
80
80
80
80
80
80
80
80
80
80
80
80
80
80
80
80
80
80
80
80
80
80
80
80
80
80
80
80
80
80
80
ENDCHAR
STARTCHAR 007D
ENCODING 125
SWIDTH 315 0
DWIDTH 28 0
BBX 20 80 6 -12
BITMAP
FF8000
FFE000
006000
006000
006000
006000
006000
006000
006000
006000
006000
006000
006000
006000
006000
006000
006000
006000
006000
006000
006000
006000
006000
006000
006000
006000
006000
006000
006000
006000
006000
006000
002000
003000
003000
003800
001C00
000E00
0007F0
0000F0
000030
0001F0
0007F0
000E00
001800
003000
003000
002000
006000
006000
006000
006000
006000
006000
006000
006000
006000
006000
006000
006000
006000
006000
006000
006000
006000
006000
006000
006000
006000
006000
006000
006000
006000
006000
006000
006000
006000
006000
006000
FFE000
ENDCHAR
STARTCHAR 007E
ENCODING 126
SWIDTH 596 0
DWIDTH 53 0
BBX 41 8 6 23
BITMAP
07FE00000000
1FBF80000000
3801F0000000
E0007C000080
C0001F000380
000003E00700
000000FFFC00
0000001FF000
ENDCHAR
STARTCHAR 00A0
ENCODING 160
SWIDTH 225 0
DWIDTH 20 0
BBX 0 0 0 0
BITMAP
ENDCHAR
STARTCHAR 00A1
ENCODING 161
SWIDTH 247 0
DWIDTH 22 0
BBX 5 62 9 -17
BITMAP
F0
F8
F8
F0
70
00
00
00
00
00
00
00
00
00
00
00
20
20
20
20
20
20
20
60
60
60
60
60
60
60
60
60
60
60
60
60
60
60
60
60
60
60
60
60
60
60
60
60
60
60
60
60
60
60
60
60
60
60
60
60
60
60
ENDCHAR
STARTCHAR 00A2
ENCODING 162
SWIDTH 495 0
DWIDTH 44 0
BBX 34 65 5 -10
BITMAP
0000600000
0000600000
0000600000
0000600000
0000600000
0000600000
0000600000
0000600000
0000600000
0003FE0000
001FFFC000
0078607000
00E0601800
0180600E00
0300600600
0600600300
0C00600180
1C00600180
1800600000
3800600000
3000600000
3000600000
6000600000
6000600000
6000600000
6000600000
6000600000
4000600000
C000600000
C000600000
C000600000
C000600000
C000600000
C000600000
C000600000
C000600000
C000600000
4000600000
6000600000
6000600000
6000600000
6000600000
6000600000
3000600000
3000600000
3000600000
1800600000
1C006000C0
0C006000C0
0600600180
0700600300
0380600600
00E0601C00
0078607800
001FFFE000
0003FF0000
0000600000
0000600000
0000600000
0000600000
0000600000
0000600000
0000600000
0000600000
0000600000
ENDCHAR
STARTCHAR 00A3
ENCODING 163
SWIDTH 573 0
DWIDTH 51 0
BBX 40 63 6 0
BITMAP
00007FF000
0003FFFE00
000F800F80
003C0001C0
00700000E0
00E0000030
01C0000018
018000000C
0300000006
0300000007
0600000003
0600000000
0600000000
0C00000000
0C00000000
0C00000000
0C00000000
0C00000000
0C00000000
0C00000000
0C00000000
0C00000000
0C00000000
0600000000
0600000000
0600000000
0300000000
0300000000
0300000000
0180000000
0180000000
0180000000
00C0000000
00C0000000
FFFFFFF800
0060000000
0060000000
0060000000
0060000000
0030000000
0030000000
0030000000
0030000000
0030000000
0030000000
0030000000
0030000000
0030000000
0060000000
0060000000
0060000000
00C0000000
00C0000000
00C0000000
0180000000
0380000000
0300000000
0600000000
0C00000000
1800000000
3000000000
7FFFFFFFFF
7FFFFFFFFF
ENDCHAR
STARTCHAR 00A4
ENCODING 164
SWIDTH 585 0
DWIDTH 52 0
BBX 48 48 2 7
BITMAP
400000000002
E00000000007
70000000000E
38000000001C
1C0001800038
0E007FFE0070
0701F00F80E0
03878001E1C0
01CE00007380
00FC00003F00
007800001E00
003000000C00
006000000600
006000000600
00C000000300
00C000000300
00C000000300
018000000180
018000000180
018000000180
018000000180
018000000180
018000000180
018000000180
018000000180
018000000180
018000000180
018000000180
018000000180
018000000180
018000000180
00C000000300
00C000000300
00C000000300
006000000600
006000000600
003000000C00
007800001E00
00FC00003F00
01CE00007380
03878001E1C0
0701F00F80E0
0E007FFE0070
1C0002400038
38000000001C
70000000000E
E00000000007
400000000002
ENDCHAR
STARTCHAR 00A5
ENCODING 165
SWIDTH 573 0
DWIDTH 51 0
BBX 42 62 5 0
BITMAP
C000000000C0
C00000000180
600000000180
700000000300
300000000600
180000000600
1C0000000C00
0C0000001C00
060000001800
060000003000
030000003000
038000006000
01800000E000
00C00000C000
00C000018000
006000018000
007000030000
003000060000
001800060000
001C000C0000
000C001C0000
000600180000
000600300000
000300300000
000380600000
000180E00000
0000C0C00000
0000C1800000
000061800000
000033000000
000036000000
3FFFFFFFFE00
3FFFFFFFFE00
00000C000000
00000C000000
00000C000000
00000C000000
00000C000000
00000C000000
00000C000000
00000C000000
00000C000000
00000C000000
00000C000000
00000C000000
3FFFFFFFFE00
3FFFFFFFFE00
00000C000000
00000C000000
00000C000000
00000C000000
00000C000000
00000C000000
00000C000000
00000C000000
00000C000000
00000C000000
00000C000000
00000C000000
00000C000000
00000C000000
00000C000000
ENDCHAR
STARTCHAR 00A6
ENCODING 166
SWIDTH 225 0
DWIDTH 20 0
BBX 1 80 10 -12
BITMAP
80
80
80
80
80
80
80
80
80
80
80
80
80
80
80
80
80
80
80
80
80
80
80
80
80
80
80
80
80
80
80
80
00
00
00
00
00
00
00
00
00
00
00
00
00
00
00
00
80
80
80
80
80
80
80
80
80
80
80
80
80
80
80
80
80
80
80
80
80
80
80
80
80
80
80
80
80
80
80
80
ENDCHAR
STARTCHAR 00A7
ENCODING 167
SWIDTH 562 0
DWIDTH 50 0
BBX 34 77 8 -14
BITMAP
0007FF0000
003FFFE000
00F0007800
01C0001C00
0300000700
0600000200
0C00000000
0C00000000
1800000000
1800000000
1800000000
1800000000
1800000000
1800000000
1800000000
1800000000
0800000000
0C00000000
0600000000
0700000000
0380000000
01C0000000
00F0000000
007E000000
01CFC00000
0701F80000
0C003F0000
180007C000
300000F000
7000003C00
6000000E00
C000000700
C000000300
C000000180
C0000001C0
C0000000C0
C0000000C0
C0000000C0
C000000040
C000000040
C000000040
C000000040
60000000C0
60000000C0
30000000C0
1800000180
0E00000180
0780000300
01E0000700
007C000E00
001F801C00
0003F03000
00003EC000
00000F8000
000001C000
0000006000
0000003000
0000001800
0000000C00
0000000C00
0000000600
0000000600
0000000600
0000000600
0000000600
0000000600
0000000600
0000000600
0000000600
0000000C00
1000000C00
3800001800
1C00003000
0F0000E000
03E0078000
00FFFE0000
0007E00000
ENDCHAR
STARTCHAR 00A8
ENCODING 168
SWIDTH 596 0
DWIDTH 53 0
BBX 20 4 17 57
BITMAP
E000F0
F000F0
F000F0
E000E0
ENDCHAR
STARTCHAR 00A9
ENCODING 169
SWIDTH 697 0
DWIDTH 62 0
BBX 57 64 3 -1
BITMAP
000003FFE0000000
00001FFFFC000000
0000F8000F800000
0003C00001E00000
0007000000700000
001C0000001C0000
00380000000E0000
0060000000070000
00C0000000018000
018000000000C000
030000000000E000
0300000000006000
0600000000003000
0C00000000001800
0C00000000001800
180000FF80000C00
180003C3E0000C00
30000E0030000400
3000180018000600
300030000C000600
6000300006000200
6000600006000300
6000400000000300
4000C00000000300
4000C00000000100
C000800000000180
C001800000000180
C001800000000180
C001800000000180
C001800000000180
C001800000000180
C001800000000180
C001800000000180
C001800000000180
C001800000000180
C001800000000180
C001800000000180
C001800000000180
C000800000000180
4000800000000100
4000C00000000300
6000C00000000300
6000400002000300
6000600002000200
3000300006000600
300018000C000600
30000C0018000400
1800070070000C00
180003FFC0000C00
0C00007E00001800
0C00000000001000
0600000000003000
0300000000006000
038000000000E000
018000000001C000
00C0000000018000
0070000000070000
00380000000E0000
001C0000001C0000
0007000000700000
0003C00001E00000
0000F8000F800000
00001FFFFC000000
000003FFE0000000
ENDCHAR
STARTCHAR 00AA
ENCODING 170
SWIDTH 348 0
DWIDTH 31 0
BBX 25 31 4 32
BITMAP
00300000
07FF0000
1E03C000
38006000
30003000
60003000
40001800
00001800
00001800
00001800
00001800
00001800
00001800
00001800
00001800
07FFF800
1F801800
30001800
60001800
C0001800
C0001800
80001800
80001800
80001800
80001800
C0003800
C0003800
60005800
30019800
1FFF1F80
07F80000
ENDCHAR
STARTCHAR 00AB
ENCODING 171
SWIDTH 461 0
DWIDTH 41 0
BBX 34 33 3 9
BITMAP
0000400040
0000C000C0
0001800180
0003000300
0006000600
000C000C00
0018001800
0070007000
00E000E000
01C001C000
0380038000
0700070000
0E000E0000
1C001C0000
3800380000
7000700000
C000C00000
E000E00000
7000700000
3800380000
1C001C0000
0E000E0000
0700070000
0380038000
00C000C000
0060006000
0030003000
0018001800
000C000C00
0007000700
0003800380
0001C001C0
0000C000C0
ENDCHAR
STARTCHAR 00AC
ENCODING 172
SWIDTH 596 0
DWIDTH 53 0
BBX 40 19 6 9
BITMAP
FFFFFFFFFF
FFFFFFFFFF
0000000001
0000000001
0000000001
0000000001
0000000001
0000000001
0000000001
0000000001
0000000001
0000000001
0000000001
0000000001
0000000001
0000000001
0000000001
0000000001
0000000001
ENDCHAR
STARTCHAR 00AD
ENCODING 173
SWIDTH 393 0
DWIDTH 35 0
BBX 21 2 7 26
BITMAP
FFFFF8
FFFFF8
ENDCHAR
STARTCHAR 00AE
ENCODING 174
SWIDTH 461 0
DWIDTH 41 0
BBX 35 37 3 26
BITMAP
0007FE0000
003F0F8000
00E000E000
0180003800
0300000C00
0600000600
0C00000300
1800000300
3000000180
300FFC0080
20080700C0
6008010040
4008018060
4008018060
C008018060
C008018020
C008010020
C008030020
C00FFE0020
C00FF80020
C008180020
C0080C0060
4008040060
4008060060
6008020040
60080300C0
20080180C0
3008018180
1800000180
1800000300
0C00000600
0600000C00
0380001800
01E0007000
007803C000
001FFF0000
0000A00000
ENDCHAR
STARTCHAR 00AF
ENCODING 175
SWIDTH 596 0
DWIDTH 53 0
BBX 23 2 15 58
BITMAP
FFFFFE
FFFFFE
ENDCHAR
STARTCHAR 00B0
ENCODING 176
SWIDTH 461 0
DWIDTH 41 0
BBX 29 30 6 33
BITMAP
003FE000
00FFF800
03C01E00
07000700
0E000180
1C0000C0
18000060
30000060
30000030
60000030
60000018
60000018
C0000018
C0000018
C0000018
C0000018
C0000018
C0000018
60000018
60000030
60000030
30000030
30000060
180000E0
0C0001C0
0E000380
03000700
01E01C00
007FF800
000FC000
ENDCHAR
STARTCHAR 00B1
ENCODING 177
SWIDTH 596 0
DWIDTH 53 0
BBX 42 54 6 0
BITMAP
00000C000000
00000C000000
00000C000000
00000C000000
00000C000000
00000C000000
00000C000000
00000C000000
00000C000000
00000C000000
00000C000000
00000C000000
00000C000000
00000C000000
00000C000000
00000C000000
00000C000000
00000C000000
00000C000000
00000C000000
00000C000000
FFFFFFFFFFC0
FFFFFFFFFFC0
00000C000000
00000C000000
00000C000000
00000C000000
00000C000000
00000C000000
00000C000000
00000C000000
00000C000000
00000C000000
00000C000000
00000C000000
00000C000000
00000C000000
00000C000000
00000C000000
00000C000000
00000C000000
00000C000000
00000C000000
00000C000000
000000000000
000000000000
000000000000
000000000000
000000000000
000000000000
000000000000
000000000000
FFFFFFFFFFC0
FFFFFFFFFFC0
ENDCHAR
STARTCHAR 00B2
ENCODING 178
SWIDTH 337 0
DWIDTH 30 0
BBX 23 34 4 29
BITMAP
003000
03FF80
0E01C0
180060
300030
600018
C00018
C00018
800008
00000C
00000C
000008
000018
000018
000010
000030
000060
000060
0000C0
000180
000300
000600
001C00
003000
006000
00C000
018000
070000
0C0000
180000
300000
E00000
FFFFFE
FFFFFE
ENDCHAR
STARTCHAR 00B3
ENCODING 179
SWIDTH 337 0
DWIDTH 30 0
BBX 22 34 4 29
BITMAP
007800
07FF00
1E01C0
380060
600030
400030
000018
000018
000018
000018
000018
000018
000030
000030
000060
000380
03FE00
001F80
0000E0
000030
000018
000018
000008
000008
00000C
000008
000008
000018
000018
C00010
600030
3800E0
1E07C0
07FE00
ENDCHAR
STARTCHAR 00B4
ENCODING 180
SWIDTH 596 0
DWIDTH 53 0
BBX 11 14 24 52
BITMAP
0040
0060
00C0
01C0
0180
0300
0600
0E00
0C00
1800
3000
7000
6000
C000
ENDCHAR
STARTCHAR 00B5
ENCODING 181
SWIDTH 562 0
DWIDTH 50 0
BBX 32 63 9 -18
BITMAP
C0000003
C0000003
C0000003
C0000003
C0000003
C0000003
C0000003
C0000003
C0000003
C0000003
C0000003
C0000003
C0000003
C0000003
C0000003
C0000003
C0000003
C0000003
C0000003
C0000003
C0000003
C0000003
C0000003
C0000003
C0000003
C0000003
C0000003
C0000003
C0000003
C0000003
C0000003
C0000003
C0000003
E0000003
E0000003
E0000003
E0000007
F0000007
F000000F
D800000B
DC00001B
CE000033
C70000E3
C3C00383
C0FFFF03
C01FF800
C0000000
C0000000
C0000000
C0000000
C0000000
C0000000
C0000000
C0000000
C0000000
C0000000
C0000000
C0000000
C0000000
C0000000
C0000000
C0000000
C0000000
ENDCHAR
STARTCHAR 00B6
ENCODING 182
SWIDTH 585 0
DWIDTH 52 0
BBX 39 75 5 -13
BITMAP
000FFFFFFE
007FFFFFFE
01FFE00180
03FFE00180
0FFFE00180
1FFFE00180
1FFFE00180
3FFFE00180
7FFFE00180
7FFFE00180
FFFFE00180
FFFFE00180
FFFFE00180
FFFFE00180
FFFFE00180
FFFFE00180
FFFFE00180
FFFFE00180
FFFFE00180
FFFFE00180
FFFFE00180
FFFFE00180
7FFFE00180
7FFFE00180
3FFFE00180
3FFFE00180
1FFFE00180
0FFFE00180
07FFE00180
03FFE00180
00FFE00180
003FE00180
0001E00180
0000600180
0000600180
0000600180
0000600180
0000600180
0000600180
0000600180
0000600180
0000600180
0000600180
0000600180
0000600180
0000600180
0000600180
0000600180
0000600180
0000600180
0000600180
0000600180
0000600180
0000600180
0000600180
0000600180
0000600180
0000600180
0000600180
0000600180
0000600180
0000600180
0000600180
0000600180
0000600180
0000600180
0000600180
0000600180
0000600180
0000600180
0000600180
0000600180
0000600180
0000600180
0000600180
ENDCHAR
STARTCHAR 00B7
ENCODING 183
SWIDTH 292 0
DWIDTH 26 0
BBX 5 5 11 25
BITMAP
70
F0
F8
F8
F0
ENDCHAR
STARTCHAR 00B8
ENCODING 184
SWIDTH 596 0
DWIDTH 53 0
BBX 14 18 21 -18
BITMAP
0400
0400
0C00
0C00
0800
0800
1B00
1FF0
0038
0018
000C
000C
000C
0008
8018
C030
7FE0
1FC0
ENDCHAR
STARTCHAR 00B9
ENCODING 185
SWIDTH 371 0
DWIDTH 33 0
BBX 25 33 4 29
BITMAP
001C0000
00340000
00640000
01C40000
03840000
06040000
0C040000
18040000
30040000
E0040000
00040000
00040000
00040000
00040000
00040000
00040000
00040000
00040000
00040000
00040000
00040000
00040000
00040000
00040000
00040000
00040000
00040000
00040000
00040000
00040000
00040000
7FFFFF80
7FFFFF80
ENDCHAR
STARTCHAR 00BA
ENCODING 186
SWIDTH 360 0
DWIDTH 32 0
BBX 24 31 4 32
BITMAP
001800
01FFC0
0780E0
0E0030
1C0018
18000C
300006
200006
600002
600003
400003
C00003
C00003
C00001
C00001
C00001
C00001
C00001
C00001
C00003
400003
400003
600003
600006
300006
30000C
18001C
0C0038
070070
03FFC0
00FF00
ENDCHAR
STARTCHAR 00BB
ENCODING 187
SWIDTH 461 0
DWIDTH 41 0
BBX 34 33 5 9
BITMAP
8000800000
C000C00000
6000600000
3000300000
1800180000
0C000C0000
0600060000
0380038000
01C001C000
00E000E000
0070007000
0038003800
001C001C00
000E000E00
0007000700
0003800380
0001C001C0
0001C001C0
0003800380
0007000700
000E000E00
001C001C00
0038003800
0070007000
00C000C000
0180018000
0300030000
0600060000
0C000C0000
3800380000
7000700000
E000E00000
C000C00000
ENDCHAR
STARTCHAR 00BC
ENCODING 188
SWIDTH 843 0
DWIDTH 75 0
BBX 69 62 4 0
BITMAP
001C0000000000C000
003400000000018000
006400000000030000
01C400000000030000
038400000000060000
0604000000000C0000
0C04000000000C0000
180400000000180000
300400000000180000
E00400000000300000
000400000000600000
000400000000600000
000400000000C00000
000400000001800000
000400000001800000
000400000003000000
000400000006000000
000400000006000000
00040000000C000000
000400000018000000
000400000018000000
000400000030000000
000400000030000000
000400000060000000
0004000000C0000000
0004000000C0000000
000400000180000000
000400000300000000
000400000300000000
000400000600000600
000400000C00000E00
7FFFFF800C00001A00
7FFFFF801800003200
000000003000006200
000000003000006200
00000000600000C200
000000006000018200
00000000C000030200
000000018000020200
000000018000060200
0000000300000C0200
000000060000180200
000000060000300200
0000000C0000300200
000000180000600200
000000180000C00200
000000300001800200
000000300003000200
000000600003000200
000000C00006000200
000000C0000C000200
000001800018000200
000003000018000200
00000300001FFFFFF8
000006000000000200
00000C000000000200
00000C000000000200
000018000000000200
000030000000000200
000030000000000200
000060000000000200
000060000000000200
ENDCHAR
STARTCHAR 00BD
ENCODING 189
SWIDTH 877 0
DWIDTH 78 0
BBX 71 62 4 0
BITMAP
001C0000000000C000
003400000000018000
006400000000030000
01C400000000030000
038400000000060000
0604000000000C0000
0C04000000000C0000
180400000000180000
300400000000180000
E00400000000300000
000400000000600000
000400000000600000
000400000000C00000
000400000001800000
000400000001800000
000400000003000000
000400000006000000
000400000006000000
00040000000C000000
000400000018000000
000400000018000000
000400000030000000
000400000030000000
000400000060000000
0004000000C0000000
0004000000C0000000
000400000180000000
000400000300000000
000400000300000000
00040000060003FF00
000400000C000F83C0
7FFFFF800C001C0060
7FFFFF801800300030
000000003000600010
000000003000600018
000000006000C00018
000000006000800008
00000000C00000000C
00000001800000000C
000000018000000008
000000030000000018
000000060000000018
000000060000000018
0000000C0000000030
000000180000000030
000000180000000060
0000003000000000C0
000000300000000180
000000600000000300
000000C00000000600
000000C00000000C00
000001800000003800
000003000000007000
00000300000000C000
000006000000018000
00000C000000030000
00000C0000000E0000
000018000000180000
000030000000300000
000030000000600000
000060000000FFFFFE
000060000000FFFFFE
ENDCHAR
STARTCHAR 00BE
ENCODING 190
SWIDTH 810 0
DWIDTH 72 0
BBX 66 63 4 0
BITMAP
007800000000000000
07FF000000000C0000
1E01C00000000C0000
380060000000180000
600030000000180000
400030000000300000
000018000000600000
000018000000600000
000018000000C00000
000018000001800000
000018000001800000
000018000003000000
000030000006000000
000030000006000000
00006000000C000000
000380000018000000
03FE00000018000000
001F80000030000000
0000E0000030000000
000030000060000000
0000180000C0000000
0000180000C0000000
000008000180000000
000008000300000000
00000C000300000000
000008000600000000
000008000C00000000
000018000C00000000
000018001800000000
C00010001800000000
600030003000007000
3800E0006000007000
1E07C000600000F000
07FE0000C00001B000
000000018000033000
000000018000063000
000000030000063000
0000000600000C3000
000000060000183000
0000000C0000303000
000000180000203000
000000180000603000
000000300000C03000
000000300001803000
000000600003003000
000000C00003003000
000000C00006003000
00000180000C003000
000003000018003000
000003000030003000
000006000030003000
00000C000060003000
00000C0000C0003000
000018000180003000
0000300001FFFFFFC0
000030000000003000
000060000000003000
000060000000003000
0000C0000000003000
000180000000003000
000180000000003000
000300000000003000
000600000000003000
ENDCHAR
STARTCHAR 00BF
ENCODING 191
SWIDTH 450 0
DWIDTH 40 0
BBX 34 63 3 -18
BITMAP
0000780000
0000780000
0000780000
0000780000
0000300000
0000000000
0000000000
0000000000
0000000000
0000000000
0000000000
0000000000
0000000000
0000000000
0000000000
0000000000
0000300000
0000300000
0000300000
0000300000
0000300000
0000300000
0000300000
0000300000
0000300000
0000300000
0000300000
0000300000
0000300000
0000700000
000FF00000
007E000000
00E0000000
0380000000
0700000000
0E00000000
1C00000000
1800000000
3000000000
3000000000
6000000000
6000000000
4000000000
C000000000
C000000000
C000000000
C000000000
C000000000
C000000000
C000000080
C0000000C0
40000000C0
6000000180
6000000180
7000000300
3000000300
1800000600
1C00000C00
0E00001800
0700007000
01C001E000
00FFFF8000
001FFC0000
ENDCHAR
STARTCHAR 00C0
ENCODING 192
SWIDTH 596 0
DWIDTH 53 0
BBX 47 83 3 0
BITMAP
000080000000
0001C0000000
0000C0000000
000060000000
000070000000
000030000000
000018000000
00000C000000
00000E000000
000006000000
000003000000
000001800000
000001800000
000000C00000
000000400000
000000000000
000000000000
000000000000
000000000000
000000000000
000000000000
000003800000
000003C00000
000006C00000
000006C00000
000006600000
00000C600000
00000C600000
00000C300000
000018300000
000018300000
000030180000
000030180000
0000300C0000
0000600C0000
0000600C0000
000060060000
0000C0060000
0000C0060000
0000C0030000
000180030000
000180030000
000180018000
000300018000
00030000C000
00060000C000
00060000C000
000600006000
000C00006000
000C00006000
000C00003000
001800003000
001800003000
001800001800
003000001800
003000001C00
007000000C00
006000000C00
006000000600
00C000000600
00C000000600
00FFFFFFFF00
018000000300
018000000300
018000000180
030000000180
0300000001C0
0700000000C0
0600000000C0
060000000060
0C0000000060
0C0000000060
0C0000000030
180000000030
180000000030
180000000018
300000000018
300000000018
70000000000C
60000000000C
600000000006
C00000000006
C00000000006
ENDCHAR
STARTCHAR 00C1
ENCODING 193
SWIDTH 596 0
DWIDTH 53 0
BBX 47 83 3 0
BITMAP
000000020000
000000030000
000000060000
0000000E0000
0000000C0000
000000180000
000000300000
000000700000
000000600000
000000C00000
000001800000
000003800000
000003000000
000006000000
000000000000
000000000000
000000000000
000000000000
000000000000
000000000000
000000000000
000003800000
000003C00000
000006C00000
000006C00000
000006600000
00000C600000
00000C600000
00000C300000
000018300000
000018300000
000030180000
000030180000
0000300C0000
0000600C0000
0000600C0000
000060060000
0000C0060000
0000C0060000
0000C0030000
000180030000
000180030000
000180018000
000300018000
00030000C000
00060000C000
00060000C000
000600006000
000C00006000
000C00006000
000C00003000
001800003000
001800003000
001800001800
003000001800
003000001C00
007000000C00
006000000C00
006000000600
00C000000600
00C000000600
00FFFFFFFF00
018000000300
018000000300
018000000180
030000000180
0300000001C0
0700000000C0
0600000000C0
060000000060
0C0000000060
0C0000000060
0C0000000030
180000000030
180000000030
180000000018
300000000018
300000000018
70000000000C
60000000000C
600000000006
C00000000006
C00000000006
ENDCHAR
STARTCHAR 00C2
ENCODING 194
SWIDTH 596 0
DWIDTH 53 0
BBX 47 82 3 0
BITMAP
000003800000
000007C00000
00000E600000
00001C300000
000038180000
0000700C0000
0000E0060000
0001C0030000
000380018000
00070000C000
000E00006000
001C00003000
000800000000
000000000000
000000000000
000000000000
000000000000
000000000000
000000000000
000000000000
000003800000
000003C00000
000006C00000
000006C00000
000006600000
00000C600000
00000C600000
00000C300000
000018300000
000018300000
000030180000
000030180000
0000300C0000
0000600C0000
0000600C0000
000060060000
0000C0060000
0000C0060000
0000C0030000
000180030000
000180030000
000180018000
000300018000
00030000C000
00060000C000
00060000C000
000600006000
000C00006000
000C00006000
000C00003000
001800003000
001800003000
001800001800
003000001800
003000001C00
007000000C00
006000000C00
006000000600
00C000000600
00C000000600
00FFFFFFFF00
018000000300
018000000300
018000000180
030000000180
0300000001C0
0700000000C0
0600000000C0
060000000060
0C0000000060
0C0000000060
0C0000000030
180000000030
180000000030
180000000018
300000000018
300000000018
70000000000C
60000000000C
600000000006
C00000000006
C00000000006
ENDCHAR
STARTCHAR 00C3
ENCODING 195
SWIDTH 596 0
DWIDTH 53 0
BBX 47 78 3 0
BITMAP
0003F8000000
000E1E000000
001807801800
001001C03000
00000079E000
0000001F8000
000000000000
000000000000
000000000000
000000000000
000000000000
000000000000
000000000000
000000000000
000000000000
000000000000
000003800000
000003C00000
000006C00000
000006C00000
000006600000
00000C600000
00000C600000
00000C300000
000018300000
000018300000
000030180000
000030180000
0000300C0000
0000600C0000
0000600C0000
000060060000
0000C0060000
0000C0060000
0000C0030000
000180030000
000180030000
000180018000
000300018000
00030000C000
00060000C000
00060000C000
000600006000
000C00006000
000C00006000
000C00003000
001800003000
001800003000
001800001800
003000001800
003000001C00
007000000C00
006000000C00
006000000600
00C000000600
00C000000600
00FFFFFFFF00
018000000300
018000000300
018000000180
030000000180
0300000001C0
0700000000C0
0600000000C0
060000000060
0C0000000060
0C0000000060
0C0000000030
180000000030
180000000030
180000000018
300000000018
300000000018
70000000000C
60000000000C
600000000006
C00000000006
C00000000006
ENDCHAR
STARTCHAR 00C4
ENCODING 196
SWIDTH 596 0
DWIDTH 53 0
BBX 47 77 3 0
BITMAP
000380038000
0003C003C000
0003C003C000
000380038000
000000000000
000000000000
000000000000
000000000000
000000000000
000000000000
000000000000
000000000000
000000000000
000000000000
000000000000
000003800000
000003C00000
000006C00000
000006C00000
000006600000
00000C600000
00000C600000
00000C300000
000018300000
000018300000
000030180000
000030180000
0000300C0000
0000600C0000
0000600C0000
000060060000
0000C0060000
0000C0060000
0000C0030000
000180030000
000180030000
000180018000
000300018000
00030000C000
00060000C000
00060000C000
000600006000
000C00006000
000C00006000
000C00003000
001800003000
001800003000
001800001800
003000001800
003000001C00
007000000C00
006000000C00
006000000600
00C000000600
00C000000600
00FFFFFFFF00
018000000300
018000000300
018000000180
030000000180
0300000001C0
0700000000C0
0600000000C0
060000000060
0C0000000060
0C0000000060
0C0000000030
180000000030
180000000030
180000000018
300000000018
300000000018
70000000000C
60000000000C
600000000006
C00000000006
C00000000006
ENDCHAR
STARTCHAR 00C5
ENCODING 197
SWIDTH 596 0
DWIDTH 53 0
BBX 47 85 3 0
BITMAP
000001800000
00001FF00000
000038380000
0000600C0000
000040060000
0000C0060000
0000C0020000
000080030000
000080030000
000080030000
0000C0020000
0000C0060000
0000C0060000
0000600C0000
000038180000
00001FF00000
000003C00000
000000000000
000000000000
000000000000
000000000000
000000000000
000000000000
000003800000
000003C00000
000006C00000
000006C00000
000006600000
00000C600000
00000C600000
00000C300000
000018300000
000018300000
000030180000
000030180000
0000300C0000
0000600C0000
0000600C0000
000060060000
0000C0060000
0000C0060000
0000C0030000
000180030000
000180030000
000180018000
000300018000
00030000C000
00060000C000
00060000C000
000600006000
000C00006000
000C00006000
000C00003000
001800003000
001800003000
001800001800
003000001800
003000001C00
007000000C00
006000000C00
006000000600
00C000000600
00C000000600
00FFFFFFFF00
018000000300
018000000300
018000000180
030000000180
0300000001C0
0700000000C0
0600000000C0
060000000060
0C0000000060
0C0000000060
0C0000000030
180000000030
180000000030
180000000018
300000000018
300000000018
70000000000C
60000000000C
600000000006
C00000000006
C00000000006
ENDCHAR
STARTCHAR 00C6
ENCODING 198
SWIDTH 855 0
DWIDTH 76 0
BBX 70 62 0 0
BITMAP
000000003FFFFFFFFC
000000007FFFFFFFFC
000000006C00000000
00000000CC00000000
00000000CC00000000
000000018C00000000
000000018C00000000
000000030C00000000
000000030C00000000
000000060C00000000
0000000E0C00000000
0000000C0C00000000
000000180C00000000
000000180C00000000
000000300C00000000
000000300C00000000
000000600C00000000
000000600C00000000
000000C00C00000000
000001C00C00000000
000001800C00000000
000003800C00000000
000003000C00000000
000006000C00000000
000006000C00000000
00000C000C00000000
00000C000C00000000
000018000C00000000
000018000C00000000
000030000C00000000
000070000FFFFFFFF8
000060000C00000000
0000E0000C00000000
0000C0000C00000000
000180000C00000000
000180000C00000000
000300000C00000000
000300000C00000000
000600000C00000000
000600000C00000000
000FFFFFFC00000000
001C00000C00000000
001800000C00000000
003800000C00000000
003000000C00000000
006000000C00000000
006000000C00000000
00C000000C00000000
00C000000C00000000
018000000C00000000
038000000C00000000
030000000C00000000
070000000C00000000
060000000C00000000
0C0000000C00000000
0C0000000C00000000
180000000C00000000
180000000C00000000
300000000C00000000
300000000C00000000
600000000FFFFFFFFC
E00000000FFFFFFFFC
ENDCHAR
STARTCHAR 00C7
ENCODING 199
SWIDTH 607 0
DWIDTH 54 0
BBX 43 81 6 -18
BITMAP
00003FF80000
0003FFFF0000
000F8007C000
001C0000E000
007800007000
00E000001C00
01C000000C00
038000000600
030000000300
060000000180
0E0000000180
0C00000000C0
0C00000000C0
180000000000
180000000000
300000000000
300000000000
300000000000
300000000000
600000000000
600000000000
600000000000
600000000000
600000000000
600000000000
E00000000000
C00000000000
C00000000000
C00000000000
C00000000000
C00000000000
C00000000000
C00000000000
C00000000000
C00000000000
C00000000000
C00000000000
C00000000000
E00000000000
600000000000
600000000000
600000000000
600000000000
600000000000
600000000000
300000000000
300000000000
300000000000
300000000000
180000000000
180000000060
0C00000000C0
0C00000000C0
0E0000000180
060000000180
030000000300
038000000600
01C000000E00
00E000001C00
007800003800
001C0000E000
000F8007C000
0003FFFF0000
00007FF00000
000001000000
000003000000
000003000000
000002000000
000002000000
000006C00000
000007FC0000
0000000E0000
000000060000
000000030000
000000030000
000000030000
000000020000
000020060000
0000700C0000
00001FF80000
000007E00000
ENDCHAR
STARTCHAR 00C8
ENCODING 200
SWIDTH 551 0
DWIDTH 49 0
BBX 33 83 10 0
BITMAP
0040000000
00E0000000
0060000000
0030000000
0038000000
0018000000
000C000000
0006000000
0007000000
0003000000
0001800000
0000C00000
0000C00000
0000600000
0000200000
0000000000
0000000000
0000000000
0000000000
0000000000
0000000000
FFFFFFFF80
FFFFFFFF80
C000000000
C000000000
C000000000
C000000000
C000000000
C000000000
C000000000
C000000000
C000000000
C000000000
C000000000
C000000000
C000000000
C000000000
C000000000
C000000000
C000000000
C000000000
C000000000
C000000000
C000000000
C000000000
C000000000
C000000000
C000000000
C000000000
C000000000
C000000000
FFFFFFFF00
C000000000
C000000000
C000000000
C000000000
C000000000
C000000000
C000000000
C000000000
C000000000
C000000000
C000000000
C000000000
C000000000
C000000000
C000000000
C000000000
C000000000
C000000000
C000000000
C000000000
C000000000
C000000000
C000000000
C000000000
C000000000
C000000000
C000000000
C000000000
C000000000
FFFFFFFF80
FFFFFFFF80
ENDCHAR
STARTCHAR 00C9
ENCODING 201
SWIDTH 551 0
DWIDTH 49 0
BBX 33 83 10 0
BITMAP
0000010000
0000018000
0000030000
0000070000
0000060000
00000C0000
0000180000
0000380000
0000300000
0000600000
0000C00000
0001C00000
0001800000
0003000000
0000000000
0000000000
0000000000
0000000000
0000000000
0000000000
0000000000
FFFFFFFF80
FFFFFFFF80
C000000000
C000000000
C000000000
C000000000
C000000000
C000000000
C000000000
C000000000
C000000000
C000000000
C000000000
C000000000
C000000000
C000000000
C000000000
C000000000
C000000000
C000000000
C000000000
C000000000
C000000000
C000000000
C000000000
C000000000
C000000000
C000000000
C000000000
C000000000
FFFFFFFF00
C000000000
C000000000
C000000000
C000000000
C000000000
C000000000
C000000000
C000000000
C000000000
C000000000
C000000000
C000000000
C000000000
C000000000
C000000000
C000000000
C000000000
C000000000
C000000000
C000000000
C000000000
C000000000
C000000000
C000000000
C000000000
C000000000
C000000000
C000000000
C000000000
FFFFFFFF80
FFFFFFFF80
ENDCHAR
STARTCHAR 00CA
ENCODING 202
SWIDTH 551 0
DWIDTH 49 0
BBX 33 82 10 0
BITMAP
0001C00000
0003E00000
0007300000
000E180000
001C0C0000
0038060000
0070030000
00E0018000
01C000C000
0380006000
0700003000
0E00001800
0400000000
0000000000
0000000000
0000000000
0000000000
0000000000
0000000000
0000000000
FFFFFFFF80
FFFFFFFF80
C000000000
C000000000
C000000000
C000000000
C000000000
C000000000
C000000000
C000000000
C000000000
C000000000
C000000000
C000000000
C000000000
C000000000
C000000000
C000000000
C000000000
C000000000
C000000000
C000000000
C000000000
C000000000
C000000000
C000000000
C000000000
C000000000
C000000000
C000000000
FFFFFFFF00
C000000000
C000000000
C000000000
C000000000
C000000000
C000000000
C000000000
C000000000
C000000000
C000000000
C000000000
C000000000
C000000000
C000000000
C000000000
C000000000
C000000000
C000000000
C000000000
C000000000
C000000000
C000000000
C000000000
C000000000
C000000000
C000000000
C000000000
C000000000
C000000000
FFFFFFFF80
FFFFFFFF80
ENDCHAR
STARTCHAR 00CB
ENCODING 203
SWIDTH 551 0
DWIDTH 49 0
BBX 33 77 10 0
BITMAP
01C001C000
01E001E000
01E001E000
01C001C000
0000000000
0000000000
0000000000
0000000000
0000000000
0000000000
0000000000
0000000000
0000000000
0000000000
0000000000
FFFFFFFF80
FFFFFFFF80
C000000000
C000000000
C000000000
C000000000
C000000000
C000000000
C000000000
C000000000
C000000000
C000000000
C000000000
C000000000
C000000000
C000000000
C000000000
C000000000
C000000000
C000000000
C000000000
C000000000
C000000000
C000000000
C000000000
C000000000
C000000000
C000000000
C000000000
C000000000
FFFFFFFF00
C000000000
C000000000
C000000000
C000000000
C000000000
C000000000
C000000000
C000000000
C000000000
C000000000
C000000000
C000000000
C000000000
C000000000
C000000000
C000000000
C000000000
C000000000
C000000000
C000000000
C000000000
C000000000
C000000000
C000000000
C000000000
C000000000
C000000000
C000000000
C000000000
FFFFFFFF80
FFFFFFFF80
ENDCHAR
STARTCHAR 00CC
ENCODING 204
SWIDTH 371 0
DWIDTH 33 0
BBX 21 83 6 0
BITMAP
100000
300000
180000
1C0000
0E0000
060000
030000
038000
018000
00C000
006000
003000
003000
001800
000800
000000
000000
000000
000000
000000
000000
FFFFF8
FFFFF8
003000
003000
003000
003000
003000
003000
003000
003000
003000
003000
003000
003000
003000
003000
003000
003000
003000
003000
003000
003000
003000
003000
003000
003000
003000
003000
003000
003000
003000
003000
003000
003000
003000
003000
003000
003000
003000
003000
003000
003000
003000
003000
003000
003000
003000
003000
003000
003000
003000
003000
003000
003000
003000
003000
003000
003000
003000
003000
FFFFF8
FFFFF8
ENDCHAR
STARTCHAR 00CD
ENCODING 205
SWIDTH 371 0
DWIDTH 33 0
BBX 21 83 6 0
BITMAP
000040
000060
0000C0
0001C0
000380
000300
000600
000C00
001C00
001800
003000
006000
006000
00C000
008000
000000
000000
000000
000000
000000
000000
FFFFF8
FFFFF8
003000
003000
003000
003000
003000
003000
003000
003000
003000
003000
003000
003000
003000
003000
003000
003000
003000
003000
003000
003000
003000
003000
003000
003000
003000
003000
003000
003000
003000
003000
003000
003000
003000
003000
003000
003000
003000
003000
003000
003000
003000
003000
003000
003000
003000
003000
003000
003000
003000
003000
003000
003000
003000
003000
003000
003000
003000
003000
FFFFF8
FFFFF8
ENDCHAR
STARTCHAR 00CE
ENCODING 206
SWIDTH 371 0
DWIDTH 33 0
BBX 25 82 4 0
BITMAP
001C0000
003E0000
00730000
00E18000
01C0C000
03806000
07003000
0E001800
1C001C00
38000E00
70000700
E0000380
40000100
00000000
00000000
00000000
00000000
00000000
00000000
00000000
3FFFFE00
3FFFFE00
000C0000
000C0000
000C0000
000C0000
000C0000
000C0000
000C0000
000C0000
000C0000
000C0000
000C0000
000C0000
000C0000
000C0000
000C0000
000C0000
000C0000
000C0000
000C0000
000C0000
000C0000
000C0000
000C0000
000C0000
000C0000
000C0000
000C0000
000C0000
000C0000
000C0000
000C0000
000C0000
000C0000
000C0000
000C0000
000C0000
000C0000
000C0000
000C0000
000C0000
000C0000
000C0000
000C0000
000C0000
000C0000
000C0000
000C0000
000C0000
000C0000
000C0000
000C0000
000C0000
000C0000
000C0000
000C0000
000C0000
000C0000
000C0000
3FFFFE00
3FFFFE00
ENDCHAR
STARTCHAR 00CF
ENCODING 207
SWIDTH 371 0
DWIDTH 33 0
BBX 21 77 6 0
BITMAP
700070
F00078
F00078
700070
000000
000000
000000
000000
000000
000000
000000
000000
000000
000000
000000
FFFFF8
FFFFF8
003000
003000
003000
003000
003000
003000
003000
003000
003000
003000
003000
003000
003000
003000
003000
003000
003000
003000
003000
003000
003000
003000
003000
003000
003000
003000
003000
003000
003000
003000
003000
003000
003000
003000
003000
003000
003000
003000
003000
003000
003000
003000
003000
003000
003000
003000
003000
003000
003000
003000
003000
003000
003000
003000
003000
003000
003000
003000
FFFFF8
FFFFF8
ENDCHAR
STARTCHAR 00D0
ENCODING 208
SWIDTH 652 0
DWIDTH 58 0
BBX 51 62 2 0
BITMAP
00FFFFFF000000
00FFFFFFF00000
00C000007C0000
00C000000F0000
00C00000038000
00C0000001C000
00C00000006000
00C00000003000
00C00000001800
00C00000001C00
00C00000000C00
00C00000000600
00C00000000600
00C00000000300
00C00000000300
00C00000000300
00C00000000180
00C00000000180
00C00000000180
00C00000000080
00C000000000C0
00C000000000C0
00C000000000C0
00C000000000C0
00C000000000C0
00C000000000C0
00C000000000C0
00C000000000C0
FFFFFF800000C0
FFFFFF800000E0
00C000000000E0
00C000000000E0
00C000000000E0
00C000000000C0
00C000000000C0
00C000000000C0
00C000000000C0
00C000000000C0
00C000000000C0
00C000000000C0
00C000000000C0
00C000000000C0
00C00000000080
00C00000000180
00C00000000180
00C00000000180
00C00000000300
00C00000000300
00C00000000300
00C00000000600
00C00000000600
00C00000000C00
00C00000001C00
00C00000001800
00C00000003000
00C00000006000
00C0000001C000
00C00000038000
00C000000F0000
00C000007C0000
00FFFFFFF00000
00FFFFFF000000
ENDCHAR
STARTCHAR 00D1
ENCODING 209
SWIDTH 686 0
DWIDTH 61 0
BBX 42 78 10 0
BITMAP
001FC0000000
0078F0000000
00E03C00C000
00800E018000
000003CF0000
000000FC0000
000000000000
000000000000
000000000000
000000000000
000000000000
000000000000
000000000000
000000000000
000000000000
000000000000
E000000000C0
E000000000C0
B000000000C0
B800000000C0
9800000000C0
8C00000000C0
8E00000000C0
8600000000C0
8300000000C0
8300000000C0
8180000000C0
81C0000000C0
80C0000000C0
8060000000C0
8070000000C0
8030000000C0
8018000000C0
8018000000C0
800C000000C0
800E000000C0
8006000000C0
8003000000C0
8003800000C0
8001800000C0
8000C00000C0
8000C00000C0
8000600000C0
8000700000C0
8000300000C0
8000180000C0
80001C0000C0
80000C0000C0
8000060000C0
8000060000C0
8000030000C0
8000038000C0
8000018000C0
800000C000C0
800000E000C0
8000006000C0
8000003000C0
8000003000C0
8000001800C0
8000001C00C0
8000000C00C0
8000000600C0
8000000700C0
8000000300C0
8000000180C0
8000000180C0
80000000C0C0
80000000E0C0
8000000060C0
8000000030C0
8000000038C0
8000000018C0
800000000CC0
800000000CC0
8000000006C0
8000000007C0
8000000003C0
8000000001C0
ENDCHAR
STARTCHAR 00D2
ENCODING 210
SWIDTH 675 0
DWIDTH 60 0
BBX 48 83 6 0
BITMAP
0000C0000000
0000E0000000
000070000000
000030000000
000018000000
00001C000000
00000C000000
000006000000
000003000000
000003800000
000001800000
000000C00000
000000600000
000000400000
000000000000
000000000000
000000000000
000000000000
000000000000
00003FFC0000
0001FFFFC000
0007C001F000
001E00007800
003800001E00
007000000700
00C000000380
0180000001C0
0300000000C0
070000000060
060000000070
0C0000000030
0C0000000018
180000000018
18000000000C
30000000000C
30000000000C
300000000006
300000000006
600000000006
600000000006
600000000006
600000000003
600000000003
600000000003
E00000000003
C00000000003
C00000000003
C00000000003
C00000000003
C00000000003
C00000000003
C00000000003
C00000000003
C00000000003
C00000000003
C00000000003
C00000000003
E00000000003
600000000003
600000000003
600000000003
600000000006
600000000006
600000000006
300000000006
300000000006
30000000000C
38000000000C
18000000001C
180000000018
0C0000000018
0C0000000030
060000000070
070000000060
0300000000C0
0180000001C0
00C000000380
007000000700
003800001E00
001E00007800
0007C003F000
0001FFFF8000
00003FFC0000
ENDCHAR
STARTCHAR 00D3
ENCODING 211
SWIDTH 675 0
DWIDTH 60 0
BBX 48 84 6 -1
BITMAP
000000010000
000000038000
000000030000
000000060000
0000000C0000
0000001C0000
000000180000
000000300000
000000600000
000000E00000
000000C00000
000001800000
000003000000
000003000000
000002000000
000000000000
000000000000
000000000000
000000000000
000000000000
00003FFC0000
0001FFFFC000
0007C001F000
001E00007800
003800001E00
007000000700
00C000000380
0180000001C0
0300000000C0
070000000060
060000000070
0C0000000030
0C0000000018
180000000018
18000000000C
30000000000C
30000000000C
300000000006
300000000006
600000000006
600000000006
600000000006
600000000003
600000000003
600000000003
E00000000003
C00000000003
C00000000003
C00000000003
C00000000003
C00000000003
C00000000003
C00000000003
C00000000003
C00000000003
C00000000003
C00000000003
C00000000003
E00000000003
600000000003
600000000003
600000000003
600000000006
600000000006
600000000006
300000000006
300000000006
30000000000C
38000000000C
18000000001C
180000000018
0C0000000018
0C0000000030
060000000070
070000000060
0300000000C0
0180000001C0
00C000000380
007000000700
003800001E00
001E00007800
0007C003F000
0001FFFF8000
00003FFC0000
ENDCHAR
STARTCHAR 00D4
ENCODING 212
SWIDTH 675 0
DWIDTH 60 0
BBX 48 83 6 -1
BITMAP
000001C00000
000003E00000
000006700000
00000C380000
0000181C0000
0000300E0000
000060070000
0000C0038000
00018001C000
00030000C000
000600006000
000C00003000
000000001000
000000000000
000000000000
000000000000
000000000000
000000000000
000000000000
00003FFC0000
0001FFFFC000
0007C001F000
001E00007800
003800001E00
007000000700
00C000000380
0180000001C0
0300000000C0
070000000060
060000000070
0C0000000030
0C0000000018
180000000018
18000000000C
30000000000C
30000000000C
300000000006
300000000006
600000000006
600000000006
600000000006
600000000003
600000000003
600000000003
E00000000003
C00000000003
C00000000003
C00000000003
C00000000003
C00000000003
C00000000003
C00000000003
C00000000003
C00000000003
C00000000003
C00000000003
C00000000003
E00000000003
600000000003
600000000003
600000000003
600000000006
600000000006
600000000006
300000000006
300000000006
30000000000C
38000000000C
18000000001C
180000000018
0C0000000018
0C0000000030
060000000070
070000000060
0300000000C0
0180000001C0
00C000000380
007000000700
003800001E00
001E00007800
0007C003F000
0001FFFF8000
00003FFC0000
ENDCHAR
STARTCHAR 00D5
ENCODING 213
SWIDTH 675 0
DWIDTH 60 0
BBX 48 79 6 -1
BITMAP
0003FC000000
00070F000000
000C03800800
001800E03800
0000007DE000
0000001FC000
000000000000
000000000000
000000000000
000000000000
000000000000
000000000000
000000000000
000000000000
000000000000
00003FFC0000
0001FFFFC000
0007C001F000
001E00007800
003800001E00
007000000700
00C000000380
0180000001C0
0300000000C0
070000000060
060000000070
0C0000000030
0C0000000018
180000000018
18000000000C
30000000000C
30000000000C
300000000006
300000000006
600000000006
600000000006
600000000006
600000000003
600000000003
600000000003
E00000000003
C00000000003
C00000000003
C00000000003
C00000000003
C00000000003
C00000000003
C00000000003
C00000000003
C00000000003
C00000000003
C00000000003
C00000000003
E00000000003
600000000003
600000000003
600000000003
600000000006
600000000006
600000000006
300000000006
300000000006
30000000000C
38000000000C
18000000001C
180000000018
0C0000000018
0C0000000030
060000000070
070000000060
0300000000C0
0180000001C0
00C000000380
007000000700
003800001E00
001E00007800
0007C003F000
0001FFFF8000
00003FFC0000
ENDCHAR
STARTCHAR 00D6
ENCODING 214
SWIDTH 675 0
DWIDTH 60 0
BBX 48 78 6 -1
BITMAP
0003C001C000
0003C003C000
0003C003C000
0003C001C000
000000000000
000000000000
000000000000
000000000000
000000000000
000000000000
000000000000
000000000000
000000000000
000000000000
00003FFC0000
0001FFFFC000
0007C001F000
001E00007800
003800001E00
007000000700
00C000000380
0180000001C0
0300000000C0
070000000060
060000000070
0C0000000030
0C0000000018
180000000018
18000000000C
30000000000C
30000000000C
300000000006
300000000006
600000000006
600000000006
600000000006
600000000003
600000000003
600000000003
E00000000003
C00000000003
C00000000003
C00000000003
C00000000003
C00000000003
C00000000003
C00000000003
C00000000003
C00000000003
C00000000003
C00000000003
C00000000003
E00000000003
600000000003
600000000003
600000000003
600000000006
600000000006
600000000006
300000000006
300000000006
30000000000C
38000000000C
18000000001C
180000000018
0C0000000018
0C0000000030
060000000070
070000000060
0300000000C0
0180000001C0
00C000000380
007000000700
003800001E00
001E00007800
0007C003F000
0001FFFF8000
00003FFC0000
ENDCHAR
STARTCHAR 00D7
ENCODING 215
SWIDTH 596 0
DWIDTH 53 0
BBX 34 34 10 10
BITMAP
C0000000C0
E000000180
7000000300
3800000600
1C00000C00
0E00001800
0700003000
0300006000
018000C000
00C0018000
0060030000
0030060000
00180C0000
000C180000
0006300000
0003600000
0001C00000
0001C00000
0003600000
0006300000
000C180000
00180C0000
0030060000
0060030000
00C0018000
018000C000
0300006000
0600003000
0C00001800
1800000C00
3000000600
6000000300
C000000180
80000000C0
ENDCHAR
STARTCHAR 00D8
ENCODING 216
SWIDTH 675 0
DWIDTH 60 0
BBX 48 68 6 -3
BITMAP
000000000002
000000000003
00003FFC0006
0001FFFFC00E
0007C001F00C
001E00007818
003800001E30
007000000730
00C0000003E0
0180000001C0
0300000001C0
0700000001E0
060000000370
0C0000000730
0C0000000618
180000000C18
18000000181C
30000000180C
30000000300C
30000000600E
30000000E006
60000000C006
600000018006
600000038006
600000030003
600000060003
6000000E0003
E000000C0003
C00000180003
C00000300003
C00000700003
C00000600003
C00000C00003
C00001C00003
C00001800003
C00003000003
C00007000003
C00006000003
C0000C000003
C00018000003
E00018000003
600030000003
600060000003
6000E0000003
6000C0000006
600180000006
600380000006
300300000006
300600000006
300E0000000C
180C0000000C
18180000001C
183000000018
0C7000000018
0C6000000030
06C000000070
07C000000060
0380000000C0
0380000001C0
07C000000380
067000000700
0C3800001E00
181E00007800
3807C003F000
3001FFFF8000
60003FFC0000
E00000000000
400000000000
ENDCHAR
STARTCHAR 00D9
ENCODING 217
SWIDTH 641 0
DWIDTH 57 0
BBX 40 84 9 -1
BITMAP
0008000000
001C000000
000C000000
0006000000
0003000000
0003800000
0001800000
0000C00000
0000600000
0000700000
0000300000
0000180000
00000C0000
00000C0000
0000040000
0000000000
0000000000
0000000000
0000000000
0000000000
0000000000
C000000003
C000000003
C000000003
C000000003
C000000003
C000000003
C000000003
C000000003
C000000003
C000000003
C000000003
C000000003
C000000003
C000000003
C000000003
C000000003
C000000003
C000000003
C000000003
C000000003
C000000003
C000000003
C000000003
C000000003
C000000003
C000000003
C000000003
C000000003
C000000003
C000000003
C000000003
C000000003
C000000003
C000000003
C000000003
C000000003
C000000003
C000000003
C000000003
C000000003
C000000003
C000000003
C000000003
C000000003
C000000003
C000000003
C000000003
C000000006
6000000006
6000000006
6000000006
6000000006
300000000C
300000000C
3800000018
1800000018
0C00000030
0E00000070
07000000E0
03C0000380
00F8001F00
003FFFFC00
0003FFC000
ENDCHAR
STARTCHAR 00DA
ENCODING 218
SWIDTH 641 0
DWIDTH 57 0
BBX 40 83 9 0
BITMAP
0000003000
0000007000
000000E000
000000C000
0000018000
0000038000
0000030000
0000060000
00000C0000
00001C0000
0000180000
0000300000
0000600000
0000200000
0000000000
0000000000
0000000000
0000000000
0000000000
0000000000
C000000003
C000000003
C000000003
C000000003
C000000003
C000000003
C000000003
C000000003
C000000003
C000000003
C000000003
C000000003
C000000003
C000000003
C000000003
C000000003
C000000003
C000000003
C000000003
C000000003
C000000003
C000000003
C000000003
C000000003
C000000003
C000000003
C000000003
C000000003
C000000003
C000000003
C000000003
C000000003
C000000003
C000000003
C000000003
C000000003
C000000003
C000000003
C000000003
C000000003
C000000003
C000000003
C000000003
C000000003
C000000003
C000000003
C000000003
C000000006
6000000006
6000000006
6000000006
6000000006
300000000C
300000000C
3800000018
1800000018
0C00000030
0E00000070
07000000E0
03C0000380
00F8001F00
003FFFFC00
0003FFC000
ENDCHAR
STARTCHAR 00DB
ENCODING 219
SWIDTH 641 0
DWIDTH 57 0
BBX 40 83 9 -1
BITMAP
0000380000
00007C0000
0000E60000
0001C30000
0003818000
000700C000
000E006000
000C003000
0018001800
0030000C00
0060000600
00C0000300
0080000000
0000000000
0000000000
0000000000
0000000000
0000000000
0000000000
0000000000
C000000003
C000000003
C000000003
C000000003
C000000003
C000000003
C000000003
C000000003
C000000003
C000000003
C000000003
C000000003
C000000003
C000000003
C000000003
C000000003
C000000003
C000000003
C000000003
C000000003
C000000003
C000000003
C000000003
C000000003
C000000003
C000000003
C000000003
C000000003
C000000003
C000000003
C000000003
C000000003
C000000003
C000000003
C000000003
C000000003
C000000003
C000000003
C000000003
C000000003
C000000003
C000000003
C000000003
C000000003
C000000003
C000000003
C000000003
C000000006
6000000006
6000000006
6000000006
6000000006
300000000C
300000000C
3800000018
1800000018
0C00000030
0E00000070
07000000E0
03C0000380
00F8001F00
003FFFFC00
0003FFC000
ENDCHAR
STARTCHAR 00DC
ENCODING 220
SWIDTH 641 0
DWIDTH 57 0
BBX 40 78 9 -1
BITMAP
0038003C00
003C003C00
003C003C00
0038003C00
0000000000
0000000000
0000000000
0000000000
0000000000
0000000000
0000000000
0000000000
0000000000
0000000000
0000000000
C000000003
C000000003
C000000003
C000000003
C000000003
C000000003
C000000003
C000000003
C000000003
C000000003
C000000003
C000000003
C000000003
C000000003
C000000003
C000000003
C000000003
C000000003
C000000003
C000000003
C000000003
C000000003
C000000003
C000000003
C000000003
C000000003
C000000003
C000000003
C000000003
C000000003
C000000003
C000000003
C000000003
C000000003
C000000003
C000000003
C000000003
C000000003
C000000003
C000000003
C000000003
C000000003
C000000003
C000000003
C000000003
C000000003
C000000003
C000000006
6000000006
6000000006
6000000006
6000000006
300000000C
300000000C
3800000018
1800000018
0C00000030
0E00000070
07000000E0
03C0000380
00F8001F00
003FFFFC00
0003FFC000
ENDCHAR
STARTCHAR 00DD
ENCODING 221
SWIDTH 540 0
DWIDTH 48 0
BBX 44 83 2 0
BITMAP
000000040000
0000000E0000
0000000C0000
000000180000
000000300000
000000700000
000000600000
000000C00000
000001800000
000001800000
000003000000
000006000000
00000C000000
00000C000000
000008000000
000000000000
000000000000
000000000000
000000000000
000000000000
000000000000
C00000000030
600000000030
700000000060
3000000000E0
1800000000C0
180000000180
0C0000000180
0E0000000300
060000000700
030000000600
030000000C00
018000000C00
01C000001800
00C000003800
006000003000
006000006000
003000006000
00380000C000
00180001C000
000C00018000
000C00030000
000600030000
000700060000
0003000E0000
0001800C0000
000180180000
0000C0180000
0000E0300000
000060700000
000070600000
000030C00000
000018C00000
00001D800000
00000F800000
00000F000000
000006000000
000006000000
000006000000
000006000000
000006000000
000006000000
000006000000
000006000000
000006000000
000006000000
000006000000
000006000000
000006000000
000006000000
000006000000
000006000000
000006000000
000006000000
000006000000
000006000000
000006000000
000006000000
000006000000
000006000000
000006000000
000006000000
000006000000
ENDCHAR
STARTCHAR 00DE
ENCODING 222
SWIDTH 585 0
DWIDTH 52 0
BBX 39 62 10 0
BITMAP
C000000000
C000000000
C000000000
C000000000
C000000000
C000000000
C000000000
C000000000
C000000000
C000000000
C000000000
C000000000
C000000000
C000000000
FFFFFFF800
FFFFFFFE00
C000000780
C0000001C0
C0000000E0
C000000070
C000000030
C000000018
C000000018
C00000000C
C00000000C
C00000000C
C000000006
C000000006
C000000006
C000000006
C000000006
C000000006
C000000006
C000000006
C000000006
C00000000C
C00000000C
C00000000C
C000000018
C000000018
C000000038
C000000070
C0000000E0
C0000001C0
C000000780
FFFFFFFE00
FFFFFFF800
C000000000
C000000000
C000000000
C000000000
C000000000
C000000000
C000000000
C000000000
C000000000
C000000000
C000000000
C000000000
C000000000
C000000000
C000000000
ENDCHAR
STARTCHAR 00DF
ENCODING 223
SWIDTH 641 0
DWIDTH 57 0
BBX 49 68 4 -1
BITMAP
000007F8000000
00003FFF000000
0000F003C00000
0001C000700000
00030000380000
000600000C0000
000C0000060000
00180000060000
00180000030000
00300000010000
00300000018000
00600000018000
0060000000C000
0060000000C000
00C0000000C000
00C0000000C000
00C00000004000
00C00000006000
00C00000006000
00C00000006000
00C00000006000
00C00000006000
FFC000001FE000
FFC00003FFE000
00C0000F800000
00C0001C000000
00C00070000000
00C000E0000000
00C000C0000000
00C00180000000
00C00180000000
00C00180000000
00C00100000000
00C00100000000
00C00100000000
00C00180000000
00C00180000000
00C00180000000
00C000C0000000
00C000E0000000
00C00070000000
00C0003C000000
00C0000F800000
00C00003F80000
00C000007F0000
00C0000007E000
00C0000000F800
00C00000001C00
00C00000000E00
00C00000000600
00C00000000300
00C00000000300
00C00000000180
00C00000000180
00C00000000180
00C00000000180
00C00000000180
00C00000000180
00C00000000180
00C03000000180
00C03800000300
00C01800000300
00C00E00000600
00C00700000E00
00C00380001C00
00C001F0007000
00C0007FFFE000
00000007FF0000
ENDCHAR
STARTCHAR 00E0
ENCODING 224
SWIDTH 517 0
DWIDTH 46 0
BBX 39 67 5 0
BITMAP
0060000000
0070000000
0038000000
0018000000
000C000000
000E000000
0006000000
0003000000
0001800000
0001C00000
0000C00000
0000600000
0000300000
0000200000
0000000000
0000000000
0000000000
0000000000
0000000000
0000000000
000FFC0000
007FFF8000
01E001E000
0380007000
0600003800
0C00001C00
1C00000C00
1800000600
3000000600
3000000600
0000000200
0000000300
0000000300
0000000300
0000000300
0000000300
0000000300
0000000300
0000000300
0000000300
0000000300
0000000300
007FFFFF00
01F0000300
0780000300
0E00000300
1800000300
3000000300
3000000300
6000000300
6000000300
6000000300
4000000300
C000000300
C000000300
C000000300
4000000700
6000000700
6000000700
6000000B00
3000001B00
3000003300
1800006300
0E0001C300
07800783FE
01FFFE01FE
003FF00000
ENDCHAR
STARTCHAR 00E1
ENCODING 225
SWIDTH 517 0
DWIDTH 46 0
BBX 39 68 5 -1
BITMAP
0000008000
000001C000
0000018000
0000030000
0000060000
00000E0000
00000C0000
0000180000
0000300000
0000700000
0000600000
0000C00000
0001800000
0001800000
0001000000
0000000000
0000000000
0000000000
0000000000
0000000000
0000000000
000FFC0000
007FFF8000
01E001E000
0380007000
0600003800
0C00001C00
1C00000C00
1800000600
3000000600
3000000600
0000000200
0000000300
0000000300
0000000300
0000000300
0000000300
0000000300
0000000300
0000000300
0000000300
0000000300
0000000300
007FFFFF00
01F0000300
0780000300
0E00000300
1800000300
3000000300
3000000300
6000000300
6000000300
6000000300
4000000300
C000000300
C000000300
C000000300
4000000700
6000000700
6000000700
6000000B00
3000001B00
3000003300
1800006300
0E0001C300
07800783FE
01FFFE01FE
003FF00000
ENDCHAR
STARTCHAR 00E2
ENCODING 226
SWIDTH 517 0
DWIDTH 46 0
BBX 39 67 5 -1
BITMAP
0000E00000
0001F00000
0003380000
00061C0000
000C0E0000
0018070000
0030038000
006001C000
00C000E000
0180006000
0300003000
0600001800
0000000800
0000000000
0000000000
0000000000
0000000000
0000000000
0000000000
0000000000
000FFC0000
007FFF8000
01E001E000
0380007000
0600003800
0C00001C00
1C00000C00
1800000600
3000000600
3000000600
0000000200
0000000300
0000000300
0000000300
0000000300
0000000300
0000000300
0000000300
0000000300
0000000300
0000000300
0000000300
007FFFFF00
01F0000300
0780000300
0E00000300
1800000300
3000000300
3000000300
6000000300
6000000300
6000000300
4000000300
C000000300
C000000300
C000000300
4000000700
6000000700
6000000700
6000000B00
3000001B00
3000003300
1800006300
0E0001C300
07800783FE
01FFFE01FE
003FF00000
ENDCHAR
STARTCHAR 00E3
ENCODING 227
SWIDTH 517 0
DWIDTH 46 0
BBX 39 63 5 -1
BITMAP
01FE000000
0387800000
0601C00400
0C00701C00
00003EF000
00000FE000
0000000000
0000000000
0000000000
0000000000
0000000000
0000000000
0000000000
0000000000
0000000000
0000000000
000FFC0000
007FFF8000
01E001E000
0380007000
0600003800
0C00001C00
1C00000C00
1800000600
3000000600
3000000600
0000000200
0000000300
0000000300
0000000300
0000000300
0000000300
0000000300
0000000300
0000000300
0000000300
0000000300
0000000300
007FFFFF00
01F0000300
0780000300
0E00000300
1800000300
3000000300
3000000300
6000000300
6000000300
6000000300
4000000300
C000000300
C000000300
C000000300
4000000700
6000000700
6000000700
6000000B00
3000001B00
3000003300
1800006300
0E0001C300
07800783FE
01FFFE01FE
003FF00000
ENDCHAR
STARTCHAR 00E4
ENCODING 228
SWIDTH 517 0
DWIDTH 46 0
BBX 39 62 5 -1
BITMAP
01E001E000
01E001E000
01E001E000
00E000E000
0000000000
0000000000
0000000000
0000000000
0000000000
0000000000
0000000000
0000000000
0000000000
0000000000
0000000000
000FFC0000
007FFF8000
01E001E000
0380007000
0600003800
0C00001C00
1C00000C00
1800000600
3000000600
3000000600
0000000200
0000000300
0000000300
0000000300
0000000300
0000000300
0000000300
0000000300
0000000300
0000000300
0000000300
0000000300
007FFFFF00
01F0000300
0780000300
0E00000300
1800000300
3000000300
3000000300
6000000300
6000000300
6000000300
4000000300
C000000300
C000000300
C000000300
4000000700
6000000700
6000000700
6000000B00
3000001B00
3000003300
1800006300
0E0001C300
07800783FE
01FFFE01FE
003FF00000
ENDCHAR
STARTCHAR 00E5
ENCODING 229
SWIDTH 517 0
DWIDTH 46 0
BBX 39 70 5 -1
BITMAP
0000400000
0007F80000
000E0E0000
0018070000
0030030000
0020018000
0060018000
0060018000
0060018000
0060018000
0060018000
0020018000
0030030000
0018030000
001C0E0000
0007FC0000
0001E00000
0000000000
0000000000
0000000000
0000000000
0000000000
0000000000
000FFC0000
007FFF8000
01E001E000
0380007000
0600003800
0C00001C00
1C00000C00
1800000600
3000000600
3000000600
0000000200
0000000300
0000000300
0000000300
0000000300
0000000300
0000000300
0000000300
0000000300
0000000300
0000000300
0000000300
007FFFFF00
01F0000300
0780000300
0E00000300
1800000300
3000000300
3000000300
6000000300
6000000300
6000000300
4000000300
C000000300
C000000300
C000000300
4000000700
6000000700
6000000700
6000000B00
3000001B00
3000003300
1800006300
0E0001C300
07800783FE
01FFFE01FE
003FF00000
ENDCHAR
STARTCHAR 00E6
ENCODING 230
SWIDTH 855 0
DWIDTH 76 0
BBX 66 47 5 -1
BITMAP
001FF800001FF80000
007FFF0000FFFE0000
01E003C003C0078000
070000E0070001E000
0E0000300C00007000
0C0000181800003800
1800000C3000001C00
3000000C6000000C00
3000000C6000000600
20000006C000000600
00000006C000000300
000000078000000300
000000078000000180
000000078000000180
000000070000000180
000000070000000080
0000000700000000C0
0000000700000000C0
0000000700000000C0
0000000700000000C0
0000000700000000C0
0000000700000000C0
007FFFFFFFFFFFFFC0
03F000070000000000
070000070000000000
1C0000070000000000
380000070000000000
300000070000000000
600000070000000000
600000070000000000
C00000070000000000
C00000070000000000
C00000070000000000
C00000078000000000
C00000078000000000
C00000078000000180
C0000006C000000180
C0000004C000000300
C000000C6000000300
6000000C6000000600
600000183000000C00
300000301800001C00
380000600C00003800
1C0001C0070000F000
07800F8003C003C000
03FFFE0000FFFF0000
007FF000001FF80000
ENDCHAR
STARTCHAR 00E7
ENCODING 231
SWIDTH 483 0
DWIDTH 43 0
BBX 34 64 5 -18
BITMAP
0003FF0000
001FFFC000
007800F000
00E0001800
0380000E00
0300000600
0600000300
0C00000180
1C00000180
1800000000
3000000000
3000000000
3000000000
6000000000
6000000000
6000000000
6000000000
6000000000
4000000000
C000000000
C000000000
C000000000
C000000000
C000000000
C000000000
C000000000
C000000000
C000000000
4000000000
6000000000
6000000000
6000000000
6000000000
6000000000
3000000000
3000000000
3000000000
1800000000
18000000C0
0C000000C0
0600000180
0700000300
0380000600
00E0001C00
0078007800
001FFFE000
0003FF0000
0000300000
0000200000
0000200000
0000600000
0000600000
00005E0000
00007F8000
000001C000
0000006000
0000006000
0000006000
0000006000
0000006000
000400C000
000701C000
0003FF8000
0000FE0000
ENDCHAR
STARTCHAR 00E8
ENCODING 232
SWIDTH 528 0
DWIDTH 47 0
BBX 37 68 5 -1
BITMAP
0010000000
0038000000
001C000000
000C000000
0006000000
0007000000
0003000000
0001800000
0000C00000
0000E00000
0000600000
0000300000
0000180000
0000180000
0000080000
0000000000
0000000000
0000000000
0000000000
0000000000
0000000000
0003FE0000
001FFFC000
007800F000
00E0003800
0380000E00
0300000700
0600000300
0C00000180
1C000000C0
18000000C0
3000000060
3000000060
3000000030
6000000030
6000000030
6000000030
6000000018
6000000018
4000000018
C000000018
C000000018
C000000018
FFFFFFFFF8
C000000000
C000000000
C000000000
C000000000
C000000000
4000000000
6000000000
6000000000
6000000000
6000000000
6000000000
3000000000
3000000030
3000000030
1800000060
1C00000060
0C000000C0
0600000180
0300000300
0180000700
00E0001C00
0078007800
001FFFE000
0003FF0000
ENDCHAR
STARTCHAR 00E9
ENCODING 233
SWIDTH 528 0
DWIDTH 47 0
BBX 37 67 5 0
BITMAP
0000006000
000000E000
000001C000
0000018000
0000030000
0000070000
0000060000
00000C0000
0000180000
0000380000
0000300000
0000600000
0000C00000
0000400000
0000000000
0000000000
0000000000
0000000000
0000000000
0000000000
0003FE0000
001FFFC000
007800F000
00E0003800
0380000E00
0300000700
0600000300
0C00000180
1C000000C0
18000000C0
3000000060
3000000060
3000000030
6000000030
6000000030
6000000030
6000000018
6000000018
4000000018
C000000018
C000000018
C000000018
FFFFFFFFF8
C000000000
C000000000
C000000000
C000000000
C000000000
4000000000
6000000000
6000000000
6000000000
6000000000
6000000000
3000000000
3000000030
3000000030
1800000060
1C00000060
0C000000C0
0600000180
0300000300
0180000700
00E0001C00
0078007800
001FFFE000
0003FF0000
ENDCHAR
STARTCHAR 00EA
ENCODING 234
SWIDTH 528 0
DWIDTH 47 0
BBX 37 67 5 -1
BITMAP
0000780000
0000F80000
0001CC0000
0003860000
0007030000
000E018000
000C00C000
0018006000
0030003000
0060001800
00C0000C00
0180000600
0100000000
0000000000
0000000000
0000000000
0000000000
0000000000
0000000000
0000000000
0003FE0000
001FFFC000
007800F000
00E0003800
0380000E00
0300000700
0600000300
0C00000180
1C000000C0
18000000C0
3000000060
3000000060
3000000030
6000000030
6000000030
6000000030
6000000018
6000000018
4000000018
C000000018
C000000018
C000000018
FFFFFFFFF8
C000000000
C000000000
C000000000
C000000000
C000000000
4000000000
6000000000
6000000000
6000000000
6000000000
6000000000
3000000000
3000000030
3000000030
1800000060
1C00000060
0C000000C0
0600000180
0300000300
0180000700
00E0001C00
0078007800
001FFFE000
0003FF0000
ENDCHAR
STARTCHAR 00EB
ENCODING 235
SWIDTH 528 0
DWIDTH 47 0
BBX 37 62 5 -1
BITMAP
0078007800
0078007800
0078007800
0070003000
0000000000
0000000000
0000000000
0000000000
0000000000
0000000000
0000000000
0000000000
0000000000
0000000000
0000000000
0003FE0000
001FFFC000
007800F000
00E0003800
0380000E00
0300000700
0600000300
0C00000180
1C000000C0
18000000C0
3000000060
3000000060
3000000030
6000000030
6000000030
6000000030
6000000018
6000000018
4000000018
C000000018
C000000018
C000000018
FFFFFFFFF8
C000000000
C000000000
C000000000
C000000000
C000000000
4000000000
6000000000
6000000000
6000000000
6000000000
6000000000
3000000000
3000000030
3000000030
1800000060
1C00000060
0C000000C0
0600000180
0300000300
0180000700
00E0001C00
0078007800
001FFFE000
0003FF0000
ENDCHAR
STARTCHAR 00EC
ENCODING 236
SWIDTH 225 0
DWIDTH 20 0
BBX 11 66 2 1
BITMAP
C000
E000
7000
3000
1800
1C00
0E00
0600
0300
0180
0180
00C0
0060
0000
0000
0000
0000
0000
0000
0000
0000
0180
0180
0180
0180
0180
0180
0180
0180
0180
0180
0180
0180
0180
0180
0180
0180
0180
0180
0180
0180
0180
0180
0180
0180
0180
0180
0180
0180
0180
0180
0180
0180
0180
0180
0180
0180
0180
0180
0180
0180
0180
0180
0180
0180
0180
ENDCHAR
STARTCHAR 00ED
ENCODING 237
SWIDTH 225 0
DWIDTH 20 0
BBX 11 67 8 0
BITMAP
0040
00E0
00C0
0180
0380
0700
0600
0C00
1C00
1800
3000
6000
C000
C000
8000
0000
0000
0000
0000
0000
0000
0000
6000
6000
6000
6000
6000
6000
6000
6000
6000
6000
6000
6000
6000
6000
6000
6000
6000
6000
6000
6000
6000
6000
6000
6000
6000
6000
6000
6000
6000
6000
6000
6000
6000
6000
6000
6000
6000
6000
6000
6000
6000
6000
6000
6000
6000
ENDCHAR
STARTCHAR 00EE
ENCODING 238
SWIDTH 225 0
DWIDTH 20 0
BBX 24 66 -2 0
BITMAP
001C00
003E00
006700
00C380
0181C0
0300E0
060070
0C0038
18001C
30000E
600007
C00003
000001
000000
000000
000000
000000
000000
000000
000000
000000
001800
001800
001800
001800
001800
001800
001800
001800
001800
001800
001800
001800
001800
001800
001800
001800
001800
001800
001800
001800
001800
001800
001800
001800
001800
001800
001800
001800
001800
001800
001800
001800
001800
001800
001800
001800
001800
001800
001800
001800
001800
001800
001800
001800
001800
ENDCHAR
STARTCHAR 00EF
ENCODING 239
SWIDTH 225 0
DWIDTH 20 0
BBX 20 61 0 0
BITMAP
F00070
F000F0
F000F0
700070
000000
000000
000000
000000
000000
000000
000000
000000
000000
000000
000000
000000
006000
006000
006000
006000
006000
006000
006000
006000
006000
006000
006000
006000
006000
006000
006000
006000
006000
006000
006000
006000
006000
006000
006000
006000
006000
006000
006000
006000
006000
006000
006000
006000
006000
006000
006000
006000
006000
006000
006000
006000
006000
006000
006000
006000
006000
ENDCHAR
STARTCHAR 00F0
ENCODING 240
SWIDTH 540 0
DWIDTH 48 0
BBX 38 67 5 0
BITMAP
0078000E00
001C001800
0006007000
000380E000
0000C18000
0000670000
00003C0000
0000380000
00007E0000
0000C60000
0003830000
0007018000
000C00C000
0038006000
0020003000
0000003000
0000001800
0000000C00
0000000C00
0000000600
0000000200
0000000300
0007FF8100
001F03E180
0070007880
01C0001CC0
0380000640
0700000360
06000001E0
0C000000E0
1800000070
1800000070
3000000030
3000000030
3000000038
6000000018
6000000018
6000000018
6000000018
4000000018
C00000000C
C00000000C
C00000000C
C00000000C
C00000000C
C00000000C
C00000000C
C00000000C
4000000008
6000000018
6000000018
6000000018
6000000018
2000000010
3000000030
3000000030
1000000060
1800000060
0C000000C0
0C000000C0
0600000180
0300000300
0180000600
00E0001C00
0078007800
001FFFE000
0003FF0000
ENDCHAR
STARTCHAR 00F1
ENCODING 241
SWIDTH 551 0
DWIDTH 49 0
BBX 32 62 9 0
BITMAP
03FC0000
070F0000
0C038008
0800E038
00007DF0
00001FC0
00000000
00000000
00000000
00000000
00000000
00000000
00000000
00000000
00000000
00000000
001FF800
C07FFF00
C1E003C0
C30000E0
C6000030
CC000018
D800001C
D000000C
E0000006
E0000006
E0000006
C0000006
C0000003
C0000003
C0000003
C0000003
C0000003
C0000003
C0000003
C0000003
C0000003
C0000003
C0000003
C0000003
C0000003
C0000003
C0000003
C0000003
C0000003
C0000003
C0000003
C0000003
C0000003
C0000003
C0000003
C0000003
C0000003
C0000003
C0000003
C0000003
C0000003
C0000003
C0000003
C0000003
C0000003
C0000003
ENDCHAR
STARTCHAR 00F2
ENCODING 242
SWIDTH 540 0
DWIDTH 48 0
BBX 38 67 5 0
BITMAP
0018000000
001C000000
000C000000
0006000000
0003000000
0003800000
0001800000
0000C00000
0000600000
0000600000
0000300000
0000180000
00000C0000
0000080000
0000000000
0000000000
0000000000
0000000000
0000000000
0000000000
0003FF0000
001FFFE000
0078007800
00E0001C00
0380000700
0300000300
0600000180
0C000000C0
1C000000E0
1800000060
3000000030
3000000030
3000000030
6000000018
6000000018
6000000018
6000000018
6000000018
4000000018
C000000008
C00000000C
C00000000C
C00000000C
C00000000C
C00000000C
C00000000C
C00000000C
C00000000C
4000000018
6000000018
6000000018
6000000018
6000000018
6000000018
3000000030
3000000030
3000000030
1800000060
18000000E0
0C000000C0
0600000180
0700000380
0380000700
00E0001C00
0078007800
001FFFE000
0003FF0000
ENDCHAR
STARTCHAR 00F3
ENCODING 243
SWIDTH 540 0
DWIDTH 48 0
BBX 38 67 5 0
BITMAP
0000007000
000000E000
000000C000
0000018000
0000038000
0000070000
0000060000
00000C0000
00001C0000
0000180000
0000300000
0000600000
0000E00000
0000400000
0000000000
0000000000
0000000000
0000000000
0000000000
0000000000
0003FF0000
001FFFE000
0078007800
00E0001C00
0380000700
0300000300
0600000180
0C000000C0
1C000000E0
1800000060
3000000030
3000000030
3000000030
6000000018
6000000018
6000000018
6000000018
6000000018
4000000018
C000000008
C00000000C
C00000000C
C00000000C
C00000000C
C00000000C
C00000000C
C00000000C
C00000000C
4000000018
6000000018
6000000018
6000000018
6000000018
6000000018
3000000030
3000000030
3000000030
1800000060
18000000E0
0C000000C0
0600000180
0700000380
0380000700
00E0001C00
0078007800
001FFFE000
0003FF0000
ENDCHAR
STARTCHAR 00F4
ENCODING 244
SWIDTH 540 0
DWIDTH 48 0
BBX 38 67 5 -1
BITMAP
0000780000
00007C0000
0000CE0000
0001870000
0003038000
000601C000
000C00C000
0018006000
0030003000
0060001800
00C0000C00
0180000600
0000000200
0000000000
0000000000
0000000000
0000000000
0000000000
0000000000
0000000000
0003FF0000
001FFFE000
0078007800
00E0001C00
0380000700
0300000300
0600000180
0C000000C0
1C000000E0
1800000060
3000000030
3000000030
3000000030
6000000018
6000000018
6000000018
6000000018
6000000018
4000000018
C000000008
C00000000C
C00000000C
C00000000C
C00000000C
C00000000C
C00000000C
C00000000C
C00000000C
4000000018
6000000018
6000000018
6000000018
6000000018
6000000018
3000000030
3000000030
3000000030
1800000060
18000000E0
0C000000C0
0600000180
0700000380
0380000700
00E0001C00
0078007800
001FFFE000
0003FF0000
ENDCHAR
STARTCHAR 00F5
ENCODING 245
SWIDTH 540 0
DWIDTH 48 0
BBX 38 63 5 -1
BITMAP
007F800000
01E3C00000
0380700300
03001C0700
00000FBC00
000003F800
0000000000
0000000000
0000000000
0000000000
0000000000
0000000000
0000000000
0000000000
0000000000
0000000000
0003FF0000
001FFFE000
0078007800
00E0001C00
0380000700
0300000300
0600000180
0C000000C0
1C000000E0
1800000060
3000000030
3000000030
3000000030
6000000018
6000000018
6000000018
6000000018
6000000018
4000000018
C000000008
C00000000C
C00000000C
C00000000C
C00000000C
C00000000C
C00000000C
C00000000C
C00000000C
4000000018
6000000018
6000000018
6000000018
6000000018
6000000018
3000000030
3000000030
3000000030
1800000060
18000000E0
0C000000C0
0600000180
0700000380
0380000700
00E0001C00
0078007800
001FFFE000
0003FF0000
ENDCHAR
STARTCHAR 00F6
ENCODING 246
SWIDTH 540 0
DWIDTH 48 0
BBX 38 62 5 -1
BITMAP
0078007800
0078007800
0078007800
0030003800
0000000000
0000000000
0000000000
0000000000
0000000000
0000000000
0000000000
0000000000
0000000000
0000000000
0000000000
0003FF0000
001FFFE000
0078007800
00E0001C00
0380000700
0300000300
0600000180
0C000000C0
1C000000E0
1800000060
3000000030
3000000030
3000000030
6000000018
6000000018
6000000018
6000000018
6000000018
4000000018
C000000008
C00000000C
C00000000C
C00000000C
C00000000C
C00000000C
C00000000C
C00000000C
C00000000C
4000000018
6000000018
6000000018
6000000018
6000000018
6000000018
3000000030
3000000030
3000000030
1800000060
18000000E0
0C000000C0
0600000180
0700000380
0380000700
00E0001C00
0078007800
001FFFE000
0003FF0000
ENDCHAR
STARTCHAR 00F7
ENCODING 247
SWIDTH 596 0
DWIDTH 53 0
BBX 42 40 6 7
BITMAP
00003E000000
00003F000000
00003F000000
00003F000000
00003E000000
000000000000
000000000000
000000000000
000000000000
000000000000
000000000000
000000000000
000000000000
000000000000
000000000000
000000000000
000000000000
000000000000
000000000000
FFFFFFFFFFC0
FFFFFFFFFFC0
000000000000
000000000000
000000000000
000000000000
000000000000
000000000000
000000000000
000000000000
000000000000
000000000000
000000000000
000000000000
000000000000
00001C000000
00003E000000
00003F000000
00003F000000
00003E000000
00001C000000
ENDCHAR
STARTCHAR 00F8
ENCODING 248
SWIDTH 540 0
DWIDTH 48 0
BBX 41 50 4 -2
BITMAP
000000000180
000000000300
0001FF800300
000FFFF00600
003C003C0C00
0070000F1800
00C00003B000
01800001F000
03000000E000
06000000E000
06000001B000
0C0000033000
0C0000071800
180000061800
1800000C0800
180000180C00
300000300C00
300000600C00
300000600400
300000C00600
300001800600
300003000600
300006000600
30000E000600
30000C000600
300018000600
300030000600
300060000600
3000E0000600
3000C0000600
300180000600
300300000600
300600000400
300C00000C00
100C00000C00
181800000C00
183000000800
186000001800
0CC000001800
0CC000003000
078000003000
070000006000
07000000E000
0D800001C000
1CE000038000
187000070000
303C003C0000
600FFFF00000
C001FF800000
800000000000
ENDCHAR
STARTCHAR 00F9
ENCODING 249
SWIDTH 551 0
DWIDTH 49 0
BBX 32 68 8 -1
BITMAP
00400000
00C00000
00600000
00700000
00300000
00180000
000C0000
000E0000
00060000
00030000
00018000
00018000
0000C000
00006000
00000000
00000000
00000000
00000000
00000000
00000000
00000000
00000000
C0000003
C0000003
C0000003
C0000003
C0000003
C0000003
C0000003
C0000003
C0000003
C0000003
C0000003
C0000003
C0000003
C0000003
C0000003
C0000003
C0000003
C0000003
C0000003
C0000003
C0000003
C0000003
C0000003
C0000003
C0000003
C0000003
C0000003
C0000003
C0000003
C0000003
C0000003
40000003
60000003
60000003
60000003
60000003
60000003
30000007
30000007
1800000B
1C00001B
0E000033
070000E3
03C003C3
00FFFF03
001FF800
ENDCHAR
STARTCHAR 00FA
ENCODING 250
SWIDTH 551 0
DWIDTH 49 0
BBX 32 68 8 -1
BITMAP
00000100
00000380
00000300
00000600
00000E00
00001C00
00001800
00003000
00007000
00006000
0000C000
00018000
00038000
00030000
00020000
00000000
00000000
00000000
00000000
00000000
00000000
00000000
C0000003
C0000003
C0000003
C0000003
C0000003
C0000003
C0000003
C0000003
C0000003
C0000003
C0000003
C0000003
C0000003
C0000003
C0000003
C0000003
C0000003
C0000003
C0000003
C0000003
C0000003
C0000003
C0000003
C0000003
C0000003
C0000003
C0000003
C0000003
C0000003
C0000003
C0000003
40000003
60000003
60000003
60000003
60000003
60000003
30000007
30000007
1800000B
1C00001B
0E000033
070000E3
03C003C3
00FFFF03
001FF800
ENDCHAR
STARTCHAR 00FB
ENCODING 251
SWIDTH 551 0
DWIDTH 49 0
BBX 32 67 8 -1
BITMAP
0001C000
0003E000
00067000
000C3800
00181C00
00300E00
00600700
00C00380
018001C0
030000E0
06000070
0C000038
00000010
00000000
00000000
00000000
00000000
00000000
00000000
00000000
00000000
C0000003
C0000003
C0000003
C0000003
C0000003
C0000003
C0000003
C0000003
C0000003
C0000003
C0000003
C0000003
C0000003
C0000003
C0000003
C0000003
C0000003
C0000003
C0000003
C0000003
C0000003
C0000003
C0000003
C0000003
C0000003
C0000003
C0000003
C0000003
C0000003
C0000003
C0000003
40000003
60000003
60000003
60000003
60000003
60000003
30000007
30000007
1800000B
1C00001B
0E000033
070000E3
03C003C3
00FFFF03
001FF800
ENDCHAR
STARTCHAR 00FC
ENCODING 252
SWIDTH 551 0
DWIDTH 49 0
BBX 32 62 8 -1
BITMAP
03C001C0
03C003C0
03C003C0
01C001C0
00000000
00000000
00000000
00000000
00000000
00000000
00000000
00000000
00000000
00000000
00000000
00000000
C0000003
C0000003
C0000003
C0000003
C0000003
C0000003
C0000003
C0000003
C0000003
C0000003
C0000003
C0000003
C0000003
C0000003
C0000003
C0000003
C0000003
C0000003
C0000003
C0000003
C0000003
C0000003
C0000003
C0000003
C0000003
C0000003
C0000003
C0000003
C0000003
C0000003
C0000003
40000003
60000003
60000003
60000003
60000003
60000003
30000007
30000007
1800000B
1C00001B
0E000033
070000E3
03C003C3
00FFFF03
001FF800
ENDCHAR
STARTCHAR 00FD
ENCODING 253
SWIDTH 450 0
DWIDTH 40 0
BBX 36 85 2 -18
BITMAP
0000004000
000000E000
000000C000
0000018000
0000038000
0000070000
0000060000
00000C0000
00001C0000
0000180000
0000300000
0000600000
0000E00000
0000C00000
0000800000
0000000000
0000000000
0000000000
0000000000
0000000000
0000000000
0000000000
C000000030
6000000020
6000000060
2000000060
30000000C0
30000000C0
18000000C0
1800000180
1800000180
0C00000100
0C00000300
0C00000300
0600000600
0600000600
0300000600
0300000C00
0300000C00
0180000800
0180001800
0180001800
00C0001000
00C0003000
0040003000
0060006000
0060006000
0030006000
003000C000
003000C000
0018008000
0018018000
0008018000
000C030000
000C030000
0006030000
0006060000
0006060000
0003040000
00030C0000
00010C0000
0001980000
0001980000
0000D80000
0000F00000
0000F00000
0000600000
0000600000
0000600000
0000C00000
0000C00000
0000C00000
0001800000
0001800000
0001800000
0003000000
0003000000
0006000000
0006000000
0006000000
000C000000
000C000000
000C000000
1FF8000000
1FF0000000
ENDCHAR
STARTCHAR 00FE
ENCODING 254
SWIDTH 562 0
DWIDTH 50 0
BBX 36 84 9 -18
BITMAP
C000000000
C000000000
C000000000
C000000000
C000000000
C000000000
C000000000
C000000000
C000000000
C000000000
C000000000
C000000000
C000000000
C000000000
C000000000
C000000000
C000000000
C000000000
C000000000
C000000000
C00FFC0000
C07FFF8000
C1F001E000
C380007800
C600001C00
CC00000E00
D800000600
D000000300
F000000180
E000000180
E0000000C0
C0000000C0
C000000040
C000000060
C000000060
C000000060
C000000060
C000000030
C000000030
C000000030
C000000030
C000000030
C000000030
C000000030
C000000030
C000000030
C000000030
C000000030
C000000030
C000000030
C000000060
C000000060
C000000060
C000000060
C000000040
C0000000C0
E0000000C0
E000000180
F000000180
D000000300
D800000600
CC00000E00
C600001C00
C380007000
C1F001E000
C07FFF8000
C00FFC0000
C000000000
C000000000
C000000000
C000000000
C000000000
C000000000
C000000000
C000000000
C000000000
C000000000
C000000000
C000000000
C000000000
C000000000
C000000000
C000000000
C000000000
ENDCHAR
STARTCHAR 00FF
ENCODING 255
SWIDTH 450 0
DWIDTH 40 0
BBX 36 79 2 -18
BITMAP
00F0007000
00F000F000
00F000F000
0070007000
0000000000
0000000000
0000000000
0000000000
0000000000
0000000000
0000000000
0000000000
0000000000
0000000000
0000000000
0000000000
C000000030
6000000020
6000000060
2000000060
30000000C0
30000000C0
18000000C0
1800000180
1800000180
0C00000100
0C00000300
0C00000300
0600000600
0600000600
0300000600
0300000C00
0300000C00
0180000800
0180001800
0180001800
00C0001000
00C0003000
0040003000
0060006000
0060006000
0030006000
003000C000
003000C000
0018008000
0018018000
0008018000
000C030000
000C030000
0006030000
0006060000
0006060000
0003040000
00030C0000
00010C0000
0001980000
0001980000
0000D80000
0000F00000
0000F00000
0000600000
0000600000
0000600000
0000C00000
0000C00000
0000C00000
0001800000
0001800000
0001800000
0003000000
0003000000
0006000000
0006000000
0006000000
000C000000
000C000000
000C000000
1FF8000000
1FF0000000
ENDCHAR
STARTCHAR 0100
ENCODING 256
SWIDTH 596 0
DWIDTH 53 0
BBX 47 76 3 0
BITMAP
000FFFFFE000
000FFFFFE000
000000000000
000000000000
000000000000
000000000000
000000000000
000000000000
000000000000
000000000000
000000000000
000000000000
000000000000
000000000000
000003800000
000003C00000
000006C00000
000006C00000
000006600000
00000C600000
00000C600000
00000C300000
000018300000
000018300000
000030180000
000030180000
0000300C0000
0000600C0000
0000600C0000
000060060000
0000C0060000
0000C0060000
0000C0030000
000180030000
000180030000
000180018000
000300018000
00030000C000
00060000C000
00060000C000
000600006000
000C00006000
000C00006000
000C00003000
001800003000
001800003000
001800001800
003000001800
003000001C00
007000000C00
006000000C00
006000000600
00C000000600
00C000000600
00FFFFFFFF00
018000000300
018000000300
018000000180
030000000180
0300000001C0
0700000000C0
0600000000C0
060000000060
0C0000000060
0C0000000060
0C0000000030
180000000030
180000000030
180000000018
300000000018
300000000018
70000000000C
60000000000C
600000000006
C00000000006
C00000000006
ENDCHAR
STARTCHAR 0101
ENCODING 257
SWIDTH 517 0
DWIDTH 46 0
BBX 39 61 5 -1
BITMAP
03FFFFF800
03FFFFF800
0000000000
0000000000
0000000000
0000000000
0000000000
0000000000
0000000000
0000000000
0000000000
0000000000
0000000000
0000000000
000FFC0000
007FFF8000
01E001E000
0380007000
0600003800
0C00001C00
1C00000C00
1800000600
3000000600
3000000600
0000000200
0000000300
0000000300
0000000300
0000000300
0000000300
0000000300
0000000300
0000000300
0000000300
0000000300
0000000300
007FFFFF00
01F0000300
0780000300
0E00000300
1800000300
3000000300
3000000300
6000000300
6000000300
6000000300
4000000300
C000000300
C000000300
C000000300
4000000700
6000000700
6000000700
6000000B00
3000001B00
3000003300
1800006300
0E0001C300
07800783FE
01FFFE01FE
003FF00000
ENDCHAR
STARTCHAR 0102
ENCODING 258
SWIDTH 596 0
DWIDTH 53 0
BBX 47 81 3 0
BITMAP
000C00002000
000C00006000
000600004000
00060000C000
000300018000
000180018000
000180030000
0000C0060000
0000700C0000
00003FF80000
00000FE00000
000000000000
000000000000
000000000000
000000000000
000000000000
000000000000
000000000000
000000000000
000003800000
000003C00000
000006C00000
000006C00000
000006600000
00000C600000
00000C600000
00000C300000
000018300000
000018300000
000030180000
000030180000
0000300C0000
0000600C0000
0000600C0000
000060060000
0000C0060000
0000C0060000
0000C0030000
000180030000
000180030000
000180018000
000300018000
00030000C000
00060000C000
00060000C000
000600006000
000C00006000
000C00006000
000C00003000
001800003000
001800003000
001800001800
003000001800
003000001C00
007000000C00
006000000C00
006000000600
00C000000600
00C000000600
00FFFFFFFF00
018000000300
018000000300
018000000180
030000000180
0300000001C0
0700000000C0
0600000000C0
060000000060
0C0000000060
0C0000000060
0C0000000030
180000000030
180000000030
180000000018
300000000018
300000000018
70000000000C
60000000000C
600000000006
C00000000006
C00000000006
ENDCHAR
STARTCHAR 0103
ENCODING 259
SWIDTH 517 0
DWIDTH 46 0
BBX 39 66 5 -1
BITMAP
0200001000
0300001800
0300003000
0180002000
0180006000
00C000C000
006000C000
0070018000
0038070000
000FFE0000
0007F80000
0000000000
0000000000
0000000000
0000000000
0000000000
0000000000
0000000000
0000000000
000FFC0000
007FFF8000
01E001E000
0380007000
0600003800
0C00001C00
1C00000C00
1800000600
3000000600
3000000600
0000000200
0000000300
0000000300
0000000300
0000000300
0000000300
0000000300
0000000300
0000000300
0000000300
0000000300
0000000300
007FFFFF00
01F0000300
0780000300
0E00000300
1800000300
3000000300
3000000300
6000000300
6000000300
6000000300
4000000300
C000000300
C000000300
C000000300
4000000700
6000000700
6000000700
6000000B00
3000001B00
3000003300
1800006300
0E0001C300
07800783FE
01FFFE01FE
003FF00000
ENDCHAR
STARTCHAR 0104
ENCODING 260
SWIDTH 596 0
DWIDTH 53 0
BBX 49 80 3 -18
BITMAP
00000380000000
000003C0000000
000006C0000000
000006C0000000
00000660000000
00000C60000000
00000C60000000
00000C30000000
00001830000000
00001830000000
00003018000000
00003018000000
0000300C000000
0000600C000000
0000600C000000
00006006000000
0000C006000000
0000C006000000
0000C003000000
00018003000000
00018003000000
00018001800000
00030001800000
00030000C00000
00060000C00000
00060000C00000
00060000600000
000C0000600000
000C0000600000
000C0000300000
00180000300000
00180000300000
00180000180000
00300000180000
003000000C0000
007000000C0000
006000000C0000
00600000060000
00C00000060000
00C00000060000
00FFFFFFFF0000
01800000030000
01800000030000
01800000018000
03000000018000
0300000000C000
0700000000C000
0600000000C000
06000000006000
0C000000006000
0C000000006000
0C000000003000
18000000003000
18000000003000
18000000001800
30000000001800
30000000001800
70000000000C00
60000000000C00
60000000000600
C0000000000600
C0000000000600
00000000000600
00000000001800
00000000003000
0000000000E000
0000000001C000
00000000030000
00000000030000
00000000060000
000000000C0000
000000000C0000
000000000C0000
000000000C0000
000000000C0000
000000000C0000
000000000E0080
00000000070180
0000000003FF00
0000000000FC00
ENDCHAR
STARTCHAR 0105
ENCODING 261
SWIDTH 517 0
DWIDTH 46 0
BBX 40 64 5 -18
BITMAP
000FFC0000
007FFF8000
01E001E000
0380007000
0600003800
0C00001800
1C00000C00
1800000600
3000000600
3000000600
0000000600
0000000300
0000000300
0000000300
0000000300
0000000300
0000000300
0000000300
0000000300
0000000300
0000000300
0000000300
007FFFFF00
01F0000300
0780000300
0E00000300
1800000300
3000000300
3000000300
6000000300
6000000300
6000000300
4000000300
C000000300
C000000300
C000000300
4000000700
6000000700
6000000700
6000000B00
3000001B00
3000003300
1800006300
0E0001C300
07800783FE
01FFFE01FE
003FF00006
0000000018
0000000070
00000000C0
0000000180
0000000300
0000000600
0000000C00
0000000C00
0000001800
0000001800
0000001800
0000001800
0000001800
0000001801
0000000E03
00000007FE
00000001F8
ENDCHAR
STARTCHAR 0106
ENCODING 262
SWIDTH 607 0
DWIDTH 54 0
BBX 43 84 6 -1
BITMAP
000000020000
000000070000
000000060000
0000000C0000
000000180000
000000380000
000000300000
000000600000
000000C00000
000001C00000
000001800000
000003000000
000006000000
000006000000
000004000000
000000000000
000000000000
000000000000
000000000000
000000000000
00003FF80000
0003FFFF0000
000F8007C000
001C0000E000
007800007000
00E000001C00
01C000000C00
038000000600
030000000300
060000000180
0E0000000180
0C00000000C0
0C00000000C0
180000000000
180000000000
300000000000
300000000000
300000000000
300000000000
600000000000
600000000000
600000000000
600000000000
600000000000
600000000000
E00000000000
C00000000000
C00000000000
C00000000000
C00000000000
C00000000000
C00000000000
C00000000000
C00000000000
C00000000000
C00000000000
C00000000000
C00000000000
E00000000000
600000000000
600000000000
600000000000
600000000000
600000000000
600000000000
300000000000
300000000000
300000000000
300000000000
180000000000
180000000060
0C00000000C0
0C00000000C0
0600000001C0
060000000180
030000000300
038000000600
01C000000E00
00E000001C00
007800003800
001C0000E000
000F8007C000
0003FFFF0000
00003FF00000
ENDCHAR
STARTCHAR 0107
ENCODING 263
SWIDTH 483 0
DWIDTH 43 0
BBX 34 67 5 0
BITMAP
0000007000
000000E000
000000C000
0000018000
0000038000
0000070000
0000060000
00000C0000
00001C0000
0000180000
0000300000
0000600000
0000E00000
0000400000
0000000000
0000000000
0000000000
0000000000
0000000000
0000000000
0003FF0000
001FFFC000
007800F000
00E0001800
0380000E00
0300000600
0600000300
0C00000180
1C00000180
1800000000
3000000000
3000000000
3000000000
6000000000
6000000000
6000000000
6000000000
6000000000
4000000000
C000000000
C000000000
C000000000
C000000000
C000000000
C000000000
C000000000
C000000000
C000000000
4000000000
6000000000
6000000000
6000000000
6000000000
6000000000
3000000000
3000000000
3000000000
1800000000
18000000C0
0C000000C0
0600000180
0700000300
0380000600
00E0001C00
0078007800
001FFFE000
0003FF0000
ENDCHAR
STARTCHAR 0108
ENCODING 264
SWIDTH 607 0
DWIDTH 54 0
BBX 43 83 6 -1
BITMAP
000003800000
000007C00000
00000CE00000
000018700000
000030380000
0000601C0000
0000C00E0000
000180070000
000300038000
000600018000
000C0000C000
001800006000
000000002000
000000000000
000000000000
000000000000
000000000000
000000000000
000000000000
00003FF80000
0003FFFF0000
000F8007C000
001C0000E000
007800007000
00E000001C00
01C000000C00
038000000600
030000000300
060000000180
0E0000000180
0C00000000C0
0C00000000C0
180000000000
180000000000
300000000000
300000000000
300000000000
300000000000
600000000000
600000000000
600000000000
600000000000
600000000000
600000000000
E00000000000
C00000000000
C00000000000
C00000000000
C00000000000
C00000000000
C00000000000
C00000000000
C00000000000
C00000000000
C00000000000
C00000000000
C00000000000
E00000000000
600000000000
600000000000
600000000000
600000000000
600000000000
600000000000
300000000000
300000000000
300000000000
300000000000
180000000000
180000000060
0C00000000C0
0C00000000C0
0600000001C0
060000000180
030000000300
038000000600
01C000000E00
00E000001C00
007800003800
001C0000E000
000F8007C000
0003FFFF0000
00003FF00000
ENDCHAR
STARTCHAR 0109
ENCODING 265
SWIDTH 483 0
DWIDTH 43 0
BBX 34 67 5 -1
BITMAP
0000780000
00007C0000
0000CE0000
0001870000
0003038000
000601C000
000C00C000
0018006000
0030003000
0060001800
00C0000C00
0180000600
0000000200
0000000000
0000000000
0000000000
0000000000
0000000000
0000000000
0000000000
0003FF0000
001FFFC000
007800F000
00E0001800
0380000E00
0300000600
0600000300
0C00000180
1C00000180
1800000000
3000000000
3000000000
3000000000
6000000000
6000000000
6000000000
6000000000
6000000000
4000000000
C000000000
C000000000
C000000000
C000000000
C000000000
C000000000
C000000000
C000000000
C000000000
4000000000
6000000000
6000000000
6000000000
6000000000
6000000000
3000000000
3000000000
3000000000
1800000000
18000000C0
0C000000C0
0600000180
0700000300
0380000600
00E0001C00
0078007800
001FFFE000
0003FF0000
ENDCHAR
STARTCHAR 010A
ENCODING 266
SWIDTH 607 0
DWIDTH 54 0
BBX 43 78 6 -1
BITMAP
000007800000
000007800000
000007800000
000003800000
000000000000
000000000000
000000000000
000000000000
000000000000
000000000000
000000000000
000000000000
000000000000
000000000000
00003FF80000
0003FFFF0000
000F8007C000
001C0000E000
007800007000
00E000001C00
01C000000C00
038000000600
030000000300
060000000180
0E0000000180
0C00000000C0
0C00000000C0
180000000000
180000000000
300000000000
300000000000
300000000000
300000000000
600000000000
600000000000
600000000000
600000000000
600000000000
600000000000
E00000000000
C00000000000
C00000000000
C00000000000
C00000000000
C00000000000
C00000000000
C00000000000
C00000000000
C00000000000
C00000000000
C00000000000
C00000000000
E00000000000
600000000000
600000000000
600000000000
600000000000
600000000000
600000000000
300000000000
300000000000
300000000000
300000000000
180000000000
180000000060
0C00000000C0
0C00000000C0
0600000001C0
060000000180
030000000300
038000000600
01C000000E00
00E000001C00
007800003800
001C0000E000
000F8007C000
0003FFFF0000
00003FF00000
ENDCHAR
STARTCHAR 010B
ENCODING 267
SWIDTH 483 0
DWIDTH 43 0
BBX 34 62 5 -1
BITMAP
0000780000
0000780000
0000780000
0000300000
0000000000
0000000000
0000000000
0000000000
0000000000
0000000000
0000000000
0000000000
0000000000
0000000000
0000000000
0003FF0000
001FFFC000
007800F000
00E0001800
0380000E00
0300000600
0600000300
0C00000180
1C00000180
1800000000
3000000000
3000000000
3000000000
6000000000
6000000000
6000000000
6000000000
6000000000
4000000000
C000000000
C000000000
C000000000
C000000000
C000000000
C000000000
C000000000
C000000000
C000000000
4000000000
6000000000
6000000000
6000000000
6000000000
6000000000
3000000000
3000000000
3000000000
1800000000
18000000C0
0C000000C0
0600000180
0700000300
0380000600
00E0001C00
0078007800
001FFFE000
0003FF0000
ENDCHAR
STARTCHAR 010C
ENCODING 268
SWIDTH 607 0
DWIDTH 54 0
BBX 43 83 6 -1
BITMAP
001800003000
000C00006000
00060000C000
000300018000
000180030000
0000C0060000
0000E00C0000
000070180000
000038300000
00001C600000
00000EC00000
000007800000
000000000000
000000000000
000000000000
000000000000
000000000000
000000000000
000000000000
00003FF80000
0003FFFF0000
000F8007C000
001C0000E000
007800007000
00E000001C00
01C000000C00
038000000600
030000000300
060000000180
0E0000000180
0C00000000C0
0C00000000C0
180000000000
180000000000
300000000000
300000000000
300000000000
300000000000
600000000000
600000000000
600000000000
600000000000
600000000000
600000000000
E00000000000
C00000000000
C00000000000
C00000000000
C00000000000
C00000000000
C00000000000
C00000000000
C00000000000
C00000000000
C00000000000
C00000000000
C00000000000
E00000000000
600000000000
600000000000
600000000000
600000000000
600000000000
600000000000
300000000000
300000000000
300000000000
300000000000
180000000000
180000000060
0C00000000C0
0C00000000C0
0600000001C0
060000000180
030000000300
038000000600
01C000000E00
00E000001C00
007800003800
001C0000E000
000F8007C000
0003FFFF0000
00003FF00000
ENDCHAR
STARTCHAR 010D
ENCODING 269
SWIDTH 483 0
DWIDTH 43 0
BBX 34 67 5 -1
BITMAP
0180000600
00C0000E00
00E0001C00
0070003800
0038007000
001C00E000
000E01C000
0007038000
0003870000
0001CE0000
0000FC0000
0000780000
0000000000
0000000000
0000000000
0000000000
0000000000
0000000000
0000000000
0000000000
0003FF0000
001FFFC000
007800F000
00E0001800
0380000E00
0300000600
0600000300
0C00000180
1C00000180
1800000000
3000000000
3000000000
3000000000
6000000000
6000000000
6000000000
6000000000
6000000000
4000000000
C000000000
C000000000
C000000000
C000000000
C000000000
C000000000
C000000000
C000000000
C000000000
4000000000
6000000000
6000000000
6000000000
6000000000
6000000000
3000000000
3000000000
3000000000
1800000000
18000000C0
0C000000C0
0600000180
0700000300
0380000600
00E0001C00
0078007800
001FFFE000
0003FF0000
ENDCHAR
STARTCHAR 010E
ENCODING 270
SWIDTH 652 0
DWIDTH 58 0
BBX 42 82 10 0
BITMAP
0C0000180000
060000300000
030000600000
018000C00000
00C001800000
006003000000
003006000000
00180C000000
000C1C000000
000638000000
000370000000
0001E0000000
000000000000
000000000000
000000000000
000000000000
000000000000
000000000000
000000000000
000000000000
FFFFFF000000
FFFFFFF00000
C00000FC0000
C000001F0000
C00000078000
C0000001C000
C0000000E000
C00000007000
C00000003800
C00000001800
C00000000C00
C00000000E00
C00000000600
C00000000600
C00000000300
C00000000300
C00000000100
C00000000180
C00000000180
C00000000180
C00000000180
C000000000C0
C000000000C0
C000000000C0
C000000000C0
C000000000C0
C000000000C0
C000000000C0
C000000000C0
C000000000C0
C000000000C0
C000000000C0
C000000000C0
C000000000C0
C000000000C0
C000000000C0
C000000000C0
C000000000C0
C000000000C0
C000000000C0
C000000000C0
C00000000180
C00000000180
C00000000180
C00000000180
C00000000180
C00000000300
C00000000300
C00000000600
C00000000600
C00000000E00
C00000000C00
C00000001800
C00000003800
C00000007000
C0000000E000
C0000001C000
C00000078000
C000001F0000
C00000FC0000
FFFFFFE00000
FFFFFF000000
ENDCHAR
STARTCHAR 010F
ENCODING 271
SWIDTH 562 0
DWIDTH 50 0
BBX 47 67 5 -1
BITMAP
000000003006
000000003006
000000003006
000000003006
000000003006
000000003006
000000003006
00000000300C
00000000300C
00000000300C
00000000300C
00000000300C
00000000300C
00000000300C
000000003008
000000003008
000000003000
000000003000
000000003000
000000003000
0003FF003000
001FFFE03000
007800783000
00E0001C3000
018000063000
030000033000
06000001B000
0C000000F000
1C0000007000
180000007000
300000007000
300000003000
300000003000
600000003000
600000003000
600000003000
600000003000
600000003000
400000003000
C00000003000
C00000003000
C00000003000
C00000003000
C00000003000
C00000003000
C00000003000
C00000003000
C00000003000
400000003000
600000003000
600000003000
600000003000
600000003000
600000003000
300000003000
300000003000
300000007000
180000007000
1C0000007000
0C000000F000
06000001B000
030000033000
018000063000
00E0001C3000
007800783000
001FFFE03000
0003FF000000
ENDCHAR
STARTCHAR 0110
ENCODING 272
SWIDTH 652 0
DWIDTH 58 0
BBX 51 62 2 0
BITMAP
00FFFFFF000000
00FFFFFFF00000
00C000007C0000
00C000000F0000
00C00000038000
00C0000001C000
00C00000006000
00C00000003000
00C00000001800
00C00000001C00
00C00000000C00
00C00000000600
00C00000000600
00C00000000300
00C00000000300
00C00000000300
00C00000000180
00C00000000180
00C00000000180
00C00000000080
00C000000000C0
00C000000000C0
00C000000000C0
00C000000000C0
00C000000000C0
00C000000000C0
00C000000000C0
00C000000000C0
FFFFFF800000C0
FFFFFF800000E0
00C000000000E0
00C000000000E0
00C000000000E0
00C000000000C0
00C000000000C0
00C000000000C0
00C000000000C0
00C000000000C0
00C000000000C0
00C000000000C0
00C000000000C0
00C000000000C0
00C00000000080
00C00000000180
00C00000000180
00C00000000180
00C00000000300
00C00000000300
00C00000000300
00C00000000600
00C00000000600
00C00000000C00
00C00000001C00
00C00000001800
00C00000003000
00C00000006000
00C0000001C000
00C00000038000
00C000000F0000
00C000007C0000
00FFFFFFF00000
00FFFFFF000000
ENDCHAR
STARTCHAR 0111
ENCODING 273
SWIDTH 562 0
DWIDTH 50 0
BBX 42 67 5 -1
BITMAP
000000003000
000000003000
000000003000
000000003000
000000003000
000000003000
000000003000
000000003000
00000FFFFFC0
00000FFFFFC0
000000003000
000000003000
000000003000
000000003000
000000003000
000000003000
000000003000
000000003000
000000003000
000000003000
0003FF003000
001FFFE03000
007800783000
00E0001C3000
018000063000
030000033000
06000001B000
0C000000F000
1C0000007000
180000007000
300000007000
300000003000
300000003000
600000003000
600000003000
600000003000
600000003000
600000003000
400000003000
C00000003000
C00000003000
C00000003000
C00000003000
C00000003000
C00000003000
C00000003000
C00000003000
C00000003000
400000003000
600000003000
600000003000
600000003000
600000003000
600000003000
300000003000
300000003000
300000007000
180000007000
1C0000007000
0C000000F000
06000001B000
030000033000
018000063000
00E0001C3000
007800783000
001FFFE03000
0003FF000000
ENDCHAR
STARTCHAR 0112
ENCODING 274
SWIDTH 551 0
DWIDTH 49 0
BBX 33 76 10 0
BITMAP
07FFFFF000
07FFFFF000
0000000000
0000000000
0000000000
0000000000
0000000000
0000000000
0000000000
0000000000
0000000000
0000000000
0000000000
0000000000
FFFFFFFF80
FFFFFFFF80
C000000000
C000000000
C000000000
C000000000
C000000000
C000000000
C000000000
C000000000
C000000000
C000000000
C000000000
C000000000
C000000000
C000000000
C000000000
C000000000
C000000000
C000000000
C000000000
C000000000
C000000000
C000000000
C000000000
C000000000
C000000000
C000000000
C000000000
C000000000
FFFFFFFF00
C000000000
C000000000
C000000000
C000000000
C000000000
C000000000
C000000000
C000000000
C000000000
C000000000
C000000000
C000000000
C000000000
C000000000
C000000000
C000000000
C000000000
C000000000
C000000000
C000000000
C000000000
C000000000
C000000000
C000000000
C000000000
C000000000
C000000000
C000000000
C000000000
FFFFFFFF80
FFFFFFFF80
ENDCHAR
STARTCHAR 0113
ENCODING 275
SWIDTH 528 0
DWIDTH 47 0
BBX 37 61 5 -1
BITMAP
01FFFFFC00
01FFFFFC00
0000000000
0000000000
0000000000
0000000000
0000000000
0000000000
0000000000
0000000000
0000000000
0000000000
0000000000
0000000000
0003FE0000
001FFFC000
007800F000
00E0003800
0380000E00
0300000700
0600000300
0C00000180
1C000000C0
18000000C0
3000000060
3000000060
3000000030
6000000030
6000000030
6000000030
6000000018
6000000018
4000000018
C000000018
C000000018
C000000018
FFFFFFFFF8
C000000000
C000000000
C000000000
C000000000
C000000000
4000000000
6000000000
6000000000
6000000000
6000000000
6000000000
3000000000
3000000030
3000000030
1800000060
1C00000060
0C000000C0
0600000180
0300000300
0180000700
00E0001C00
0078007800
001FFFE000
0003FF0000
ENDCHAR
STARTCHAR 0114
ENCODING 276
SWIDTH 551 0
DWIDTH 49 0
BBX 33 81 10 0
BITMAP
0600001000
0600003000
0300002000
0300006000
018000C000
00C000C000
00C0018000
0060030000
0038060000
001FFC0000
0007F00000
0000000000
0000000000
0000000000
0000000000
0000000000
0000000000
0000000000
0000000000
FFFFFFFF80
FFFFFFFF80
C000000000
C000000000
C000000000
C000000000
C000000000
C000000000
C000000000
C000000000
C000000000
C000000000
C000000000
C000000000
C000000000
C000000000
C000000000
C000000000
C000000000
C000000000
C000000000
C000000000
C000000000
C000000000
C000000000
C000000000
C000000000
C000000000
C000000000
C000000000
FFFFFFFF00
C000000000
C000000000
C000000000
C000000000
C000000000
C000000000
C000000000
C000000000
C000000000
C000000000
C000000000
C000000000
C000000000
C000000000
C000000000
C000000000
C000000000
C000000000
C000000000
C000000000
C000000000
C000000000
C000000000
C000000000
C000000000
C000000000
C000000000
C000000000
C000000000
FFFFFFFF80
FFFFFFFF80
ENDCHAR
STARTCHAR 0115
ENCODING 277
SWIDTH 528 0
DWIDTH 47 0
BBX 37 66 5 -1
BITMAP
0080000400
0080000C00
00C0000C00
0040001800
0060001800
0030003000
0038006000
001800E000
000E01C000
0007FF0000
0001FE0000
0000000000
0000000000
0000000000
0000000000
0000000000
0000000000
0000000000
0000000000
0003FE0000
001FFFC000
007800F000
00E0003800
0380000E00
0300000700
0600000300
0C00000180
1C000000C0
18000000C0
3000000060
3000000060
3000000030
6000000030
6000000030
6000000030
6000000018
6000000018
4000000018
C000000018
C000000018
C000000018
FFFFFFFFF8
C000000000
C000000000
C000000000
C000000000
C000000000
4000000000
6000000000
6000000000
6000000000
6000000000
6000000000
3000000000
3000000030
3000000030
1800000060
1C00000060
0C000000C0
0600000180
0300000300
0180000700
00E0001C00
0078007800
001FFFE000
0003FF0000
ENDCHAR
STARTCHAR 0116
ENCODING 278
SWIDTH 551 0
DWIDTH 49 0
BBX 33 77 10 0
BITMAP
0001C00000
0001E00000
0001E00000
0001C00000
0000000000
0000000000
0000000000
0000000000
0000000000
0000000000
0000000000
0000000000
0000000000
0000000000
0000000000
FFFFFFFF80
FFFFFFFF80
C000000000
C000000000
C000000000
C000000000
C000000000
C000000000
C000000000
C000000000
C000000000
C000000000
C000000000
C000000000
C000000000
C000000000
C000000000
C000000000
C000000000
C000000000
C000000000
C000000000
C000000000
C000000000
C000000000
C000000000
C000000000
C000000000
C000000000
C000000000
FFFFFFFF00
C000000000
C000000000
C000000000
C000000000
C000000000
C000000000
C000000000
C000000000
C000000000
C000000000
C000000000
C000000000
C000000000
C000000000
C000000000
C000000000
C000000000
C000000000
C000000000
C000000000
C000000000
C000000000
C000000000
C000000000
C000000000
C000000000
C000000000
C000000000
C000000000
FFFFFFFF80
FFFFFFFF80
ENDCHAR
STARTCHAR 0117
ENCODING 279
SWIDTH 528 0
DWIDTH 47 0
BBX 37 62 5 -1
BITMAP
0000780000
0000780000
0000780000
0000300000
0000000000
0000000000
0000000000
0000000000
0000000000
0000000000
0000000000
0000000000
0000000000
0000000000
0000000000
0003FE0000
001FFFC000
007800F000
00E0003800
0380000E00
0300000700
0600000300
0C00000180
1C000000C0
18000000C0
3000000060
3000000060
3000000030
6000000030
6000000030
6000000030
6000000018
6000000018
4000000018
C000000018
C000000018
C000000018
FFFFFFFFF8
C000000000
C000000000
C000000000
C000000000
C000000000
4000000000
6000000000
6000000000
6000000000
6000000000
6000000000
3000000000
3000000030
3000000030
1800000060
1C00000060
0C000000C0
0600000180
0300000300
0180000700
00E0001C00
0078007800
001FFFE000
0003FF0000
ENDCHAR
STARTCHAR 0118
ENCODING 280
SWIDTH 551 0
DWIDTH 49 0
BBX 34 80 10 -18
BITMAP
FFFFFFFF80
FFFFFFFF80
C000000000
C000000000
C000000000
C000000000
C000000000
C000000000
C000000000
C000000000
C000000000
C000000000
C000000000
C000000000
C000000000
C000000000
C000000000
C000000000
C000000000
C000000000
C000000000
C000000000
C000000000
C000000000
C000000000
C000000000
C000000000
C000000000
C000000000
C000000000
FFFFFFFF00
C000000000
C000000000
C000000000
C000000000
C000000000
C000000000
C000000000
C000000000
C000000000
C000000000
C000000000
C000000000
C000000000
C000000000
C000000000
C000000000
C000000000
C000000000
C000000000
C000000000
C000000000
C000000000
C000000000
C000000000
C000000000
C000000000
C000000000
C000000000
C000000000
FFFFFFFF80
FFFFFFFF80
0000000180
0000000600
0000001C00
0000003000
0000006000
000000C000
0000018000
0000030000
0000030000
0000060000
0000060000
0000060000
0000060000
0000060000
0000070040
00000380C0
000001FF80
0000007E00
ENDCHAR
STARTCHAR 0119
ENCODING 281
SWIDTH 528 0
DWIDTH 47 0
BBX 37 64 5 -18
BITMAP
0003FE0000
001FFFC000
007800F000
00E0003800
0380000E00
0300000700
0600000300
0C00000180
1C000000C0
18000000C0
3000000060
3000000060
3000000030
6000000030
6000000030
6000000030
6000000018
6000000018
4000000018
C000000018
C000000018
C000000018
FFFFFFFFF8
C000000000
C000000000
C000000000
C000000000
C000000000
4000000000
6000000000
6000000000
6000000000
6000000000
6000000000
3000000000
3000000030
3000000030
1800000060
1C00000060
0C000000C0
0600000180
0300000300
0180000600
00E0001C00
0078007800
001FFFE000
0003FFC000
0000018000
0000060000
00000C0000
0000180000
0000300000
0000600000
0000600000
0000C00000
0000C00000
0000C00000
0000C00000
0000C00000
0000C00000
0000C00800
0000701800
00003FF000
00000FC000
ENDCHAR
STARTCHAR 011A
ENCODING 282
SWIDTH 551 0
DWIDTH 49 0
BBX 33 82 10 0
BITMAP
0C00001800
0600003000
0300006000
018000C000
00C0018000
0060030000
0030060000
00180C0000
000C1C0000
0006380000
0003700000
0001E00000
0000000000
0000000000
0000000000
0000000000
0000000000
0000000000
0000000000
0000000000
FFFFFFFF80
FFFFFFFF80
C000000000
C000000000
C000000000
C000000000
C000000000
C000000000
C000000000
C000000000
C000000000
C000000000
C000000000
C000000000
C000000000
C000000000
C000000000
C000000000
C000000000
C000000000
C000000000
C000000000
C000000000
C000000000
C000000000
C000000000
C000000000
C000000000
C000000000
C000000000
FFFFFFFF00
C000000000
C000000000
C000000000
C000000000
C000000000
C000000000
C000000000
C000000000
C000000000
C000000000
C000000000
C000000000
C000000000
C000000000
C000000000
C000000000
C000000000
C000000000
C000000000
C000000000
C000000000
C000000000
C000000000
C000000000
C000000000
C000000000
C000000000
C000000000
C000000000
FFFFFFFF80
FFFFFFFF80
ENDCHAR
STARTCHAR 011B
ENCODING 283
SWIDTH 528 0
DWIDTH 47 0
BBX 37 67 5 -1
BITMAP
0180000600
01C0000C00
00E0001C00
0070003800
0038007000
001C00E000
000E01C000
0007038000
0003870000
0001CE0000
0000FC0000
0000780000
0000000000
0000000000
0000000000
0000000000
0000000000
0000000000
0000000000
0000000000
0003FE0000
001FFFC000
007800F000
00E0003800
0380000E00
0300000700
0600000300
0C00000180
1C000000C0
18000000C0
3000000060
3000000060
3000000030
6000000030
6000000030
6000000030
6000000018
6000000018
4000000018
C000000018
C000000018
C000000018
FFFFFFFFF8
C000000000
C000000000
C000000000
C000000000
C000000000
4000000000
6000000000
6000000000
6000000000
6000000000
6000000000
3000000000
3000000030
3000000030
1800000060
1C00000060
0C000000C0
0600000180
0300000300
0180000700
00E0001C00
0078007800
001FFFE000
0003FF0000
ENDCHAR
STARTCHAR 011C
ENCODING 284
SWIDTH 663 0
DWIDTH 59 0
BBX 46 83 6 -1
BITMAP
000001C00000
000003E00000
000006700000
00000C380000
0000181C0000
0000300E0000
000060070000
0000C0038000
00018001C000
00030000C000
000600006000
000C00003000
000000001000
000000000000
000000000000
000000000000
000000000000
000000000000
000000000000
00003FFC0000
0001FFFF8000
0007C003E000
001E00007800
003800001C00
007000000600
00C000000380
018000000180
0300000000C0
070000000060
060000000070
0C0000000030
0C0000000038
180000000000
180000000000
300000000000
300000000000
300000000000
300000000000
600000000000
600000000000
600000000000
600000000000
600000000000
600000000000
E00000000000
C00000000000
C00000000000
C00000000000
C00000000000
C00000000000
C00000000000
C00000000000
C000000FFFFC
C000000FFFFC
C0000000000C
C0000000000C
C0000000000C
E0000000000C
60000000000C
60000000000C
60000000000C
60000000000C
60000000000C
60000000000C
30000000000C
30000000000C
30000000000C
38000000000C
18000000000C
18000000001C
0C000000001C
0C000000003C
06000000003C
07000000006C
03000000004C
0180000000CC
00C00000018C
00700000070C
003800000E0C
001E0000380C
0007C001F00C
0001FFFFC00C
00003FFC0000
ENDCHAR
STARTCHAR 011D
ENCODING 285
SWIDTH 517 0
DWIDTH 46 0
BBX 41 85 4 -19
BITMAP
000038000000
00007C000000
0000E6000000
0001C3000000
000381800000
000700C00000
000E00600000
001C00300000
003800180000
0070000C0000
00E000060000
01C000030000
008000000000
000000000000
000000000000
000000000000
000000000000
000000000000
000000000000
000000000000
0001FF000000
000FFFFFFF80
003C007FFF80
0060001C0000
00C000060000
018000030000
030000038000
030000018000
06000000C000
06000000C000
0C000000C000
0C000000C000
0C0000006000
0C0000006000
0C0000006000
0C0000006000
0C0000006000
0C0000006000
0C000000C000
0C000000C000
06000000C000
06000000C000
030000018000
030000030000
018000030000
00C000060000
0070001C0000
003C00700000
000FFFE00000
003DFF000000
00E000000000
018000000000
030000000000
060000000000
060000000000
040000000000
040000000000
040000000000
060000000000
070000000000
038000000000
01FFFFFC0000
007FFFFFC000
01C00001F000
070000003C00
0C0000000C00
180000000600
300000000300
700000000300
600000000300
600000000300
600000000180
C00000000180
C00000000300
C00000000300
600000000300
600000000300
600000000600
300000000E00
380000001C00
1C0000003800
07000000E000
03E0000F8000
007FFFFE0000
0007FF800000
ENDCHAR
STARTCHAR 011E
ENCODING 286
SWIDTH 663 0
DWIDTH 59 0
BBX 46 82 6 -1
BITMAP
000400002000
000600003000
000600006000
000300004000
00030000C000
000180018000
0000C0018000
0000E0030000
0000700E0000
00001FFC0000
00000FF00000
000000000000
000000000000
000000000000
000000000000
000000000000
000000000000
000000000000
00003FFC0000
0001FFFF8000
0007C003E000
001E00007800
003800001C00
007000000600
00C000000380
018000000180
0300000000C0
070000000060
060000000070
0C0000000030
0C0000000038
180000000000
180000000000
300000000000
300000000000
300000000000
300000000000
600000000000
600000000000
600000000000
600000000000
600000000000
600000000000
E00000000000
C00000000000
C00000000000
C00000000000
C00000000000
C00000000000
C00000000000
C00000000000
C000000FFFFC
C000000FFFFC
C0000000000C
C0000000000C
C0000000000C
E0000000000C
60000000000C
60000000000C
60000000000C
60000000000C
60000000000C
60000000000C
30000000000C
30000000000C
30000000000C
38000000000C
18000000000C
18000000001C
0C000000001C
0C000000003C
06000000003C
07000000006C
03000000004C
0180000000CC
00C00000018C
00700000070C
003800000E0C
001E0000380C
0007C001F00C
0001FFFFC00C
00003FFC0000
ENDCHAR
STARTCHAR 011F
ENCODING 287
SWIDTH 517 0
DWIDTH 46 0
BBX 41 84 4 -19
BITMAP
008000020000
00C000060000
006000040000
0060000C0000
003000180000
003000180000
001800300000
000C00600000
000600C00000
0003FF800000
0000FE000000
000000000000
000000000000
000000000000
000000000000
000000000000
000000000000
000000000000
000000000000
0001FF000000
000FFFFFFF80
003C007FFF80
0060001C0000
00C000060000
018000030000
030000038000
030000018000
06000000C000
06000000C000
0C000000C000
0C000000C000
0C0000006000
0C0000006000
0C0000006000
0C0000006000
0C0000006000
0C0000006000
0C000000C000
0C000000C000
06000000C000
06000000C000
030000018000
030000030000
018000030000
00C000060000
0070001C0000
003C00700000
000FFFE00000
003DFF000000
00E000000000
018000000000
030000000000
060000000000
060000000000
040000000000
040000000000
040000000000
060000000000
070000000000
038000000000
01FFFFFC0000
007FFFFFC000
01C00001F000
070000003C00
0C0000000C00
180000000600
300000000300
700000000300
600000000300
600000000300
600000000180
C00000000180
C00000000300
C00000000300
600000000300
600000000300
600000000600
300000000E00
380000001C00
1C0000003800
07000000E000
03E0000F8000
007FFFFE0000
0007FF800000
ENDCHAR
STARTCHAR 0120
ENCODING 288
SWIDTH 663 0
DWIDTH 59 0
BBX 46 78 6 -1
BITMAP
000003C00000
000003C00000
000003C00000
000001C00000
000000000000
000000000000
000000000000
000000000000
000000000000
000000000000
000000000000
000000000000
000000000000
000000000000
00003FFC0000
0001FFFF8000
0007C003E000
001E00007800
003800001C00
007000000600
00C000000380
018000000180
0300000000C0
070000000060
060000000070
0C0000000030
0C0000000038
180000000000
180000000000
300000000000
300000000000
300000000000
300000000000
600000000000
600000000000
600000000000
600000000000
600000000000
600000000000
E00000000000
C00000000000
C00000000000
C00000000000
C00000000000
C00000000000
C00000000000
C00000000000
C000000FFFFC
C000000FFFFC
C0000000000C
C0000000000C
C0000000000C
E0000000000C
60000000000C
60000000000C
60000000000C
60000000000C
60000000000C
60000000000C
30000000000C
30000000000C
30000000000C
38000000000C
18000000000C
18000000001C
0C000000001C
0C000000003C
06000000003C
07000000006C
03000000004C
0180000000CC
00C00000018C
00700000070C
003800000E0C
001E0000380C
0007C001F00C
0001FFFFC00C
00003FFC0000
ENDCHAR
STARTCHAR 0121
ENCODING 289
SWIDTH 517 0
DWIDTH 46 0
BBX 41 80 4 -19
BITMAP
000038000000
00003C000000
00003C000000
000038000000
000000000000
000000000000
000000000000
000000000000
000000000000
000000000000
000000000000
000000000000
000000000000
000000000000
000000000000
0001FF000000
000FFFFFFF80
003C007FFF80
0060001C0000
00C000060000
018000030000
030000038000
030000018000
06000000C000
06000000C000
0C000000C000
0C000000C000
0C0000006000
0C0000006000
0C0000006000
0C0000006000
0C0000006000
0C0000006000
0C000000C000
0C000000C000
06000000C000
06000000C000
030000018000
030000030000
018000030000
00C000060000
0070001C0000
003C00700000
000FFFE00000
003DFF000000
00E000000000
018000000000
030000000000
060000000000
060000000000
040000000000
040000000000
040000000000
060000000000
070000000000
038000000000
01FFFFFC0000
007FFFFFC000
01C00001F000
070000003C00
0C0000000C00
180000000600
300000000300
700000000300
600000000300
600000000300
600000000180
C00000000180
C00000000300
C00000000300
600000000300
600000000300
600000000600
300000000E00
380000001C00
1C0000003800
07000000E000
03E0000F8000
007FFFFE0000
0007FF800000
ENDCHAR
STARTCHAR 0122
ENCODING 290
SWIDTH 663 0
DWIDTH 59 0
BBX 46 82 6 -19
BITMAP
00003FFC0000
0001FFFF8000
0007C003E000
001E00007800
003800001C00
007000000600
00C000000380
018000000180
0300000000C0
070000000060
060000000070
0C0000000030
0C0000000038
180000000000
180000000000
300000000000
300000000000
300000000000
300000000000
600000000000
600000000000
600000000000
600000000000
600000000000
600000000000
E00000000000
C00000000000
C00000000000
C00000000000
C00000000000
C00000000000
C00000000000
C00000000000
C000000FFFFC
C000000FFFFC
C0000000000C
C0000000000C
C0000000000C
E0000000000C
60000000000C
60000000000C
60000000000C
60000000000C
60000000000C
60000000000C
30000000000C
30000000000C
30000000000C
38000000000C
18000000000C
18000000001C
0C000000001C
0C000000003C
06000000003C
07000000006C
03000000004C
0180000000CC
00C00000018C
00700000070C
003800000E0C
001E0000380C
0007C001F00C
0001FFFFC00C
00003FFC0000
000000000000
000000000000
000000000000
000000000000
000000000000
000001C00000
000003C00000
000003C00000
000003C00000
000000400000
000000C00000
000000C00000
000000800000
000001800000
000001000000
000003000000
000002000000
000006000000
ENDCHAR
STARTCHAR 0123
ENCODING 291
SWIDTH 517 0
DWIDTH 46 0
BBX 41 85 4 -19
BITMAP
000006000000
00000C000000
000008000000
000018000000
000010000000
000030000000
000020000000
000020000000
000038000000
00003C000000
00003C000000
00003C000000
000018000000
000000000000
000000000000
000000000000
000000000000
000000000000
000000000000
000000000000
0001FF000000
000FFFFFFF80
003C007FFF80
0060001C0000
00C000060000
018000030000
030000038000
030000018000
06000000C000
06000000C000
0C000000C000
0C000000C000
0C0000006000
0C0000006000
0C0000006000
0C0000006000
0C0000006000
0C0000006000
0C000000C000
0C000000C000
06000000C000
06000000C000
030000018000
030000030000
018000030000
00C000060000
0070001C0000
003C00700000
000FFFE00000
003DFF000000
00E000000000
018000000000
030000000000
060000000000
060000000000
040000000000
040000000000
040000000000
060000000000
070000000000
038000000000
01FFFFFC0000
007FFFFFC000
01C00001F000
070000003C00
0C0000000C00
180000000600
300000000300
700000000300
600000000300
600000000300
600000000180
C00000000180
C00000000300
C00000000300
600000000300
600000000300
600000000600
300000000E00
380000001C00
1C0000003800
07000000E000
03E0000F8000
007FFFFE0000
0007FF800000
ENDCHAR
STARTCHAR 0124
ENCODING 292
SWIDTH 686 0
DWIDTH 61 0
BBX 42 82 10 0
BITMAP
00001C000000
00003E000000
000073000000
0000E1800000
0001C0C00000
000380600000
000700300000
000E00180000
001C000C0000
003800060000
003000030000
006000018000
004000000000
000000000000
000000000000
000000000000
000000000000
000000000000
000000000000
000000000000
C000000000C0
C000000000C0
C000000000C0
C000000000C0
C000000000C0
C000000000C0
C000000000C0
C000000000C0
C000000000C0
C000000000C0
C000000000C0
C000000000C0
C000000000C0
C000000000C0
C000000000C0
C000000000C0
C000000000C0
C000000000C0
C000000000C0
C000000000C0
C000000000C0
C000000000C0
C000000000C0
C000000000C0
C000000000C0
C000000000C0
C000000000C0
C000000000C0
C000000000C0
C000000000C0
FFFFFFFFFFC0
C000000000C0
C000000000C0
C000000000C0
C000000000C0
C000000000C0
C000000000C0
C000000000C0
C000000000C0
C000000000C0
C000000000C0
C000000000C0
C000000000C0
C000000000C0
C000000000C0
C000000000C0
C000000000C0
C000000000C0
C000000000C0
C000000000C0
C000000000C0
C000000000C0
C000000000C0
C000000000C0
C000000000C0
C000000000C0
C000000000C0
C000000000C0
C000000000C0
C000000000C0
C000000000C0
C000000000C0
ENDCHAR
STARTCHAR 0125
ENCODING 293
SWIDTH 551 0
DWIDTH 49 0
BBX 43 80 -2 0
BITMAP
001C00000000
003E00000000
006700000000
00C380000000
0181C0000000
0300E0000000
060070000000
0C0038000000
18001C000000
30000E000000
600007000000
C00003800000
000001000000
000000000000
001800000000
001800000000
001800000000
001800000000
001800000000
001800000000
001800000000
001800000000
001800000000
001800000000
001800000000
001800000000
001800000000
001800000000
001800000000
001800000000
001800000000
001800000000
001800000000
001800000000
001803FF0000
00180FFFE000
00183C007800
001860001C00
0018C0000600
001980000300
001B00000380
001A00000180
001C000000C0
001C000000C0
001C000000C0
0018000000C0
001800000060
001800000060
001800000060
001800000060
001800000060
001800000060
001800000060
001800000060
001800000060
001800000060
001800000060
001800000060
001800000060
001800000060
001800000060
001800000060
001800000060
001800000060
001800000060
001800000060
001800000060
001800000060
001800000060
001800000060
001800000060
001800000060
001800000060
001800000060
001800000060
001800000060
001800000060
001800000060
001800000060
001800000060
ENDCHAR
STARTCHAR 0126
ENCODING 294
SWIDTH 697 0
DWIDTH 62 0
BBX 58 62 2 0
BITMAP
00C000000000C000
00C000000000C000
00C000000000C000
00C000000000C000
00C000000000C000
00C000000000C000
00C000000000C000
00C000000000C000
00C000000000C000
00C000000000C000
00C000000000C000
00C000000000C000
00C000000000C000
FFFFFFFFFFFFFFC0
00C000000000C000
00C000000000C000
00C000000000C000
00C000000000C000
00C000000000C000
00C000000000C000
00C000000000C000
00C000000000C000
00C000000000C000
00C000000000C000
00C000000000C000
00C000000000C000
00C000000000C000
00C000000000C000
00C000000000C000
00C000000000C000
00FFFFFFFFFFC000
00C000000000C000
00C000000000C000
00C000000000C000
00C000000000C000
00C000000000C000
00C000000000C000
00C000000000C000
00C000000000C000
00C000000000C000
00C000000000C000
00C000000000C000
00C000000000C000
00C000000000C000
00C000000000C000
00C000000000C000
00C000000000C000
00C000000000C000
00C000000000C000
00C000000000C000
00C000000000C000
00C000000000C000
00C000000000C000
00C000000000C000
00C000000000C000
00C000000000C000
00C000000000C000
00C000000000C000
00C000000000C000
00C000000000C000
00C000000000C000
00C000000000C000
ENDCHAR
STARTCHAR 0127
ENCODING 295
SWIDTH 551 0
DWIDTH 49 0
BBX 37 66 4 0
BITMAP
0200000000
0200000000
0200000000
0200000000
0200000000
0200000000
0200000000
0200000000
FFFFFC0000
FFFFFC0000
0200000000
0200000000
0200000000
0200000000
0200000000
0200000000
0200000000
0200000000
0200000000
0200000000
02007FE000
0203FFFC00
020F001E00
021C000700
0230000180
02600000C0
02C0000060
0280000060
0380000030
0300000030
0300000010
0300000018
0300000018
0200000018
0200000018
0200000018
0200000018
0200000018
0200000018
0200000018
0200000018
0200000018
0200000018
0200000018
0200000018
0200000018
0200000018
0200000018
0200000018
0200000018
0200000018
0200000018
0200000018
0200000018
0200000018
0200000018
0200000018
0200000018
0200000018
0200000018
0200000018
0200000018
0200000018
0200000018
0200000018
0200000018
ENDCHAR
STARTCHAR 0128
ENCODING 296
SWIDTH 371 0
DWIDTH 33 0
BBX 26 78 4 0
BITMAP
3FC00000
70F00000
C03800C0
800E0180
0003CF00
0000FC00
00000000
00000000
00000000
00000000
00000000
00000000
00000000
00000000
00000000
00000000
3FFFFE00
3FFFFE00
000C0000
000C0000
000C0000
000C0000
000C0000
000C0000
000C0000
000C0000
000C0000
000C0000
000C0000
000C0000
000C0000
000C0000
000C0000
000C0000
000C0000
000C0000
000C0000
000C0000
000C0000
000C0000
000C0000
000C0000
000C0000
000C0000
000C0000
000C0000
000C0000
000C0000
000C0000
000C0000
000C0000
000C0000
000C0000
000C0000
000C0000
000C0000
000C0000
000C0000
000C0000
000C0000
000C0000
000C0000
000C0000
000C0000
000C0000
000C0000
000C0000
000C0000
000C0000
000C0000
000C0000
000C0000
000C0000
000C0000
000C0000
000C0000
3FFFFE00
3FFFFE00
ENDCHAR
STARTCHAR 0129
ENCODING 297
SWIDTH 225 0
DWIDTH 20 0
BBX 26 62 -3 0
BITMAP
1FE00000
38780000
601C0040
C00701C0
0003EF80
0000FE00
00000000
00000000
00000000
00000000
00000000
00000000
00000000
00000000
00000000
00000000
00000000
000C0000
000C0000
000C0000
000C0000
000C0000
000C0000
000C0000
000C0000
000C0000
000C0000
000C0000
000C0000
000C0000
000C0000
000C0000
000C0000
000C0000
000C0000
000C0000
000C0000
000C0000
000C0000
000C0000
000C0000
000C0000
000C0000
000C0000
000C0000
000C0000
000C0000
000C0000
000C0000
000C0000
000C0000
000C0000
000C0000
000C0000
000C0000
000C0000
000C0000
000C0000
000C0000
000C0000
000C0000
000C0000
ENDCHAR
STARTCHAR 012A
ENCODING 298
SWIDTH 371 0
DWIDTH 33 0
BBX 23 76 5 0
BITMAP
FFFFFE
FFFFFE
000000
000000
000000
000000
000000
000000
000000
000000
000000
000000
000000
000000
7FFFFC
7FFFFC
001800
001800
001800
001800
001800
001800
001800
001800
001800
001800
001800
001800
001800
001800
001800
001800
001800
001800
001800
001800
001800
001800
001800
001800
001800
001800
001800
001800
001800
001800
001800
001800
001800
001800
001800
001800
001800
001800
001800
001800
001800
001800
001800
001800
001800
001800
001800
001800
001800
001800
001800
001800
001800
001800
001800
001800
001800
001800
7FFFFC
7FFFFC
ENDCHAR
STARTCHAR 012B
ENCODING 299
SWIDTH 225 0
DWIDTH 20 0
BBX 23 60 -1 0
BITMAP
FFFFFE
FFFFFE
000000
000000
000000
000000
000000
000000
000000
000000
000000
000000
000000
000000
000000
003000
003000
003000
003000
003000
003000
003000
003000
003000
003000
003000
003000
003000
003000
003000
003000
003000
003000
003000
003000
003000
003000
003000
003000
003000
003000
003000
003000
003000
003000
003000
003000
003000
003000
003000
003000
003000
003000
003000
003000
003000
003000
003000
003000
003000
ENDCHAR
STARTCHAR 012C
ENCODING 300
SWIDTH 371 0
DWIDTH 33 0
BBX 23 81 5 0
BITMAP
800002
C00006
600004
60000C
300018
300018
180030
0C0060
0600C0
03FF80
00FE00
000000
000000
000000
000000
000000
000000
000000
000000
7FFFFC
7FFFFC
001800
001800
001800
001800
001800
001800
001800
001800
001800
001800
001800
001800
001800
001800
001800
001800
001800
001800
001800
001800
001800
001800
001800
001800
001800
001800
001800
001800
001800
001800
001800
001800
001800
001800
001800
001800
001800
001800
001800
001800
001800
001800
001800
001800
001800
001800
001800
001800
001800
001800
001800
001800
001800
001800
001800
001800
001800
001800
7FFFFC
7FFFFC
ENDCHAR
STARTCHAR 012D
ENCODING 301
SWIDTH 225 0
DWIDTH 20 0
BBX 23 65 -1 0
BITMAP
800006
C00006
C0000C
60000C
200018
300030
180030
0C0060
0E01C0
03FF80
00FE00
000000
000000
000000
000000
000000
000000
000000
000000
000000
003000
003000
003000
003000
003000
003000
003000
003000
003000
003000
003000
003000
003000
003000
003000
003000
003000
003000
003000
003000
003000
003000
003000
003000
003000
003000
003000
003000
003000
003000
003000
003000
003000
003000
003000
003000
003000
003000
003000
003000
003000
003000
003000
003000
003000
ENDCHAR
STARTCHAR 012E
ENCODING 302
SWIDTH 371 0
DWIDTH 33 0
BBX 22 80 6 -18
BITMAP
FFFFF8
FFFFF8
003000
003000
003000
003000
003000
003000
003000
003000
003000
003000
003000
003000
003000
003000
003000
003000
003000
003000
003000
003000
003000
003000
003000
003000
003000
003000
003000
003000
003000
003000
003000
003000
003000
003000
003000
003000
003000
003000
003000
003000
003000
003000
003000
003000
003000
003000
003000
003000
003000
003000
003000
003000
003000
003000
003000
003000
003000
003000
FFFFF8
FFFFF8
000030
000060
000180
000300
000600
000C00
001800
003000
006000
006000
006000
004000
004000
006000
006000
00301C
001FF8
0007E0
ENDCHAR
STARTCHAR 012F
ENCODING 303
SWIDTH 225 0
DWIDTH 20 0
BBX 14 82 1 -18
BITMAP
00E0
01E0
01E0
00E0
0000
0000
0000
0000
0000
0000
0000
0000
0000
0000
0000
0000
0000
0000
0000
00C0
00C0
00C0
00C0
00C0
00C0
00C0
00C0
00C0
00C0
00C0
00C0
00C0
00C0
00C0
00C0
00C0
00C0
00C0
00C0
00C0
00C0
00C0
00C0
00C0
00C0
00C0
00C0
00C0
00C0
00C0
00C0
00C0
00C0
00C0
00C0
00C0
00C0
00C0
00C0
00C0
00C0
00C0
00C0
00C0
00C0
0180
0700
0E00
1C00
1800
3000
6000
6000
6000
C000
C000
C000
6000
6008
301C
1FF8
0FE0
ENDCHAR
STARTCHAR 0130
ENCODING 304
SWIDTH 371 0
DWIDTH 33 0
BBX 21 77 6 0
BITMAP
007000
00F800
007800
007000
000000
000000
000000
000000
000000
000000
000000
000000
000000
000000
000000
FFFFF8
FFFFF8
003000
003000
003000
003000
003000
003000
003000
003000
003000
003000
003000
003000
003000
003000
003000
003000
003000
003000
003000
003000
003000
003000
003000
003000
003000
003000
003000
003000
003000
003000
003000
003000
003000
003000
003000
003000
003000
003000
003000
003000
003000
003000
003000
003000
003000
003000
003000
003000
003000
003000
003000
003000
003000
003000
003000
003000
003000
003000
FFFFF8
FFFFF8
ENDCHAR
STARTCHAR 0131
ENCODING 305
SWIDTH 225 0
DWIDTH 20 0
BBX 2 45 9 0
BITMAP
C0
C0
C0
C0
C0
C0
C0
C0
C0
C0
C0
C0
C0
C0
C0
C0
C0
C0
C0
C0
C0
C0
C0
C0
C0
C0
C0
C0
C0
C0
C0
C0
C0
C0
C0
C0
C0
C0
C0
C0
C0
C0
C0
C0
C0
ENDCHAR
STARTCHAR 0132
ENCODING 306
SWIDTH 630 0
DWIDTH 56 0
BBX 38 63 9 -1
BITMAP
C0001FFFFC
C0001FFFFC
C00000000C
C00000000C
C00000000C
C00000000C
C00000000C
C00000000C
C00000000C
C00000000C
C00000000C
C00000000C
C00000000C
C00000000C
C00000000C
C00000000C
C00000000C
C00000000C
C00000000C
C00000000C
C00000000C
C00000000C
C00000000C
C00000000C
C00000000C
C00000000C
C00000000C
C00000000C
C00000000C
C00000000C
C00000000C
C00000000C
C00000000C
C00000000C
C00000000C
C00000000C
000000000C
000000000C
000000000C
000000000C
000000000C
000000000C
000000000C
000000000C
000000000C
000000000C
000000000C
000000000C
000000000C
000000000C
C000000018
C000000018
6000000018
6000000030
7000000030
3000000060
18000000E0
1C000001C0
0E00000380
0780000F00
01F0007C00
007FFFF000
000FFF0000
ENDCHAR
STARTCHAR 0133
ENCODING 307
SWIDTH 461 0
DWIDTH 41 0
BBX 25 82 8 -18
BITMAP
70000700
F0000780
F0000780
70000700
00000000
00000000
00000000
00000000
00000000
00000000
00000000
00000000
00000000
00000000
00000000
00000000
00000000
00000000
00000000
60000300
60000300
60000300
60000300
60000300
60000300
60000300
60000300
60000300
60000300
60000300
60000300
60000300
60000300
60000300
60000300
60000300
60000300
60000300
60000300
60000300
60000300
60000300
60000300
60000300
60000300
60000300
60000300
60000300
60000300
60000300
60000300
60000300
60000300
60000300
60000300
60000300
60000300
60000300
60000300
60000300
60000300
60000300
60000300
60000300
00000300
00000300
00000300
00000300
00000300
00000300
00000300
00000300
00000300
00000300
00000300
00000300
00000300
00000300
00000300
00000300
0003FE00
0003FC00
ENDCHAR
STARTCHAR 0134
ENCODING 308
SWIDTH 461 0
DWIDTH 41 0
BBX 31 83 2 -1
BITMAP
00007000
0000F800
0001CC00
00038600
00070300
000E0180
001C00C0
00380060
00700030
00E00018
01C0000C
01800006
01000000
00000000
00000000
00000000
00000000
00000000
00000000
00000000
01FFFFFC
01FFFFFC
0000000C
0000000C
0000000C
0000000C
0000000C
0000000C
0000000C
0000000C
0000000C
0000000C
0000000C
0000000C
0000000C
0000000C
0000000C
0000000C
0000000C
0000000C
0000000C
0000000C
0000000C
0000000C
0000000C
0000000C
0000000C
0000000C
0000000C
0000000C
0000000C
0000000C
0000000C
0000000C
0000000C
0000000C
0000000C
0000000C
0000000C
0000000C
0000000C
0000000C
0000000C
0000000C
0000000C
0000000C
0000000C
0000000C
0000000C
0000000C
0000000C
4000000C
C000000C
C0000018
60000018
70000030
30000030
18000060
0C0000E0
07000380
03C00F00
00FFFE00
003FF000
ENDCHAR
STARTCHAR 0135
ENCODING 309
SWIDTH 225 0
DWIDTH 20 0
BBX 24 84 -2 -18
BITMAP
001C00
003E00
006700
00C380
0181C0
0300E0
060070
0C0038
18001C
30000E
600007
C00003
000001
000000
000000
000000
000000
000000
000000
000000
000000
001800
001800
001800
001800
001800
001800
001800
001800
001800
001800
001800
001800
001800
001800
001800
001800
001800
001800
001800
001800
001800
001800
001800
001800
001800
001800
001800
001800
001800
001800
001800
001800
001800
001800
001800
001800
001800
001800
001800
001800
001800
001800
001800
001800
001800
001800
001800
001800
001800
001800
001800
001800
001800
001800
001800
001800
001800
001800
001800
001800
001800
0FF800
0FF000
ENDCHAR
STARTCHAR 0136
ENCODING 310
SWIDTH 562 0
DWIDTH 50 0
BBX 39 81 10 -19
BITMAP
C00000000C
C000000018
C000000030
C000000070
C0000000E0
C0000001C0
C000000380
C000000700
C000000600
C000000C00
C000001800
C000003000
C000006000
C00000C000
C00001C000
C000038000
C000070000
C0000E0000
C0001C0000
C000180000
C000300000
C000600000
C000C00000
C001800000
C003000000
C007000000
C00E000000
C01F000000
C03B000000
C071800000
C060C00000
C0C0C00000
C180600000
C300300000
C600380000
CC00180000
D8000C0000
F8000E0000
F000060000
E000030000
C000038000
C000018000
C00000C000
C00000E000
C000006000
C000003000
C000003800
C000001800
C000000C00
C000000E00
C000000600
C000000300
C000000380
C000000180
C0000000C0
C0000000E0
C000000060
C000000030
C000000038
C000000018
C00000000C
C00000000E
0000000000
0000000000
0000000000
0000000000
0000000000
0000000000
0000F00000
0000F00000
0000F00000
0000F00000
0000300000
0000300000
0000200000
0000200000
0000600000
0000400000
0000C00000
0001800000
0001000000
ENDCHAR
STARTCHAR 0137
ENCODING 311
SWIDTH 483 0
DWIDTH 43 0
BBX 32 85 9 -19
BITMAP
C0000000
C0000000
C0000000
C0000000
C0000000
C0000000
C0000000
C0000000
C0000000
C0000000
C0000000
C0000000
C0000000
C0000000
C0000000
C0000000
C0000000
C0000000
C0000000
C0000000
C0000000
C000001C
C0000038
C0000070
C00000E0
C00001C0
C0000380
C0000700
C0000E00
C0001C00
C0003800
C0007000
C000E000
C001C000
C0038000
C0070000
C00E0000
C01C0000
C0380000
C0700000
C0F00000
C1F80000
C3980000
C70C0000
CE060000
DC070000
F8038000
F001C000
E000C000
C0006000
C0003000
C0003800
C0001C00
C0000E00
C0000600
C0000300
C0000180
C00001C0
C00000E0
C0000060
C0000030
C0000018
C000000C
C000000E
C0000007
C0000003
00000000
00000000
00000000
00000000
00000000
00000000
00078000
00078000
00078000
00078000
00018000
00018000
00010000
00010000
00030000
00020000
00060000
00040000
00080000
ENDCHAR
STARTCHAR 0138
ENCODING 312
SWIDTH 483 0
DWIDTH 43 0
BBX 32 45 9 0
BITMAP
C000000E
C000001C
C0000038
C0000070
C00000E0
C00001C0
C0000380
C0000700
C0000E00
C0001C00
C0003800
C0007000
C000E000
C001C000
C0038000
C0070000
C00E0000
C01C0000
C0380000
C0700000
C0F00000
C1F80000
C39C0000
C70C0000
CE060000
DC030000
F8018000
F001C000
E000E000
C0007000
C0003000
C0001800
C0000C00
C0000600
C0000300
C0000380
C00001C0
C00000C0
C0000060
C0000030
C0000018
C000000C
C000000E
C0000007
C0000003
ENDCHAR
STARTCHAR 0139
ENCODING 313
SWIDTH 472 0
DWIDTH 42 0
BBX 32 83 8 0
BITMAP
00400000
00600000
00C00000
01C00000
01800000
03000000
06000000
0E000000
0C000000
18000000
30000000
70000000
60000000
C0000000
00000000
00000000
00000000
00000000
00000000
00000000
00000000
30000000
30000000
30000000
30000000
30000000
30000000
30000000
30000000
30000000
30000000
30000000
30000000
30000000
30000000
30000000
30000000
30000000
30000000
30000000
30000000
30000000
30000000
30000000
30000000
30000000
30000000
30000000
30000000
30000000
30000000
30000000
30000000
30000000
30000000
30000000
30000000
30000000
30000000
30000000
30000000
30000000
30000000
30000000
30000000
30000000
30000000
30000000
30000000
30000000
30000000
30000000
30000000
30000000
30000000
30000000
30000000
30000000
30000000
30000000
30000000
3FFFFFFF
3FFFFFFF
ENDCHAR
STARTCHAR 013A
ENCODING 314
SWIDTH 247 0
DWIDTH 22 0
BBX 11 84 8 1
BITMAP
00E0
00C0
0180
0380
0300
0600
0C00
1C00
1800
3000
6000
6000
C000
8000
0000
0000
0000
0000
6000
6000
6000
6000
6000
6000
6000
6000
6000
6000
6000
6000
6000
6000
6000
6000
6000
6000
6000
6000
6000
6000
6000
6000
6000
6000
6000
6000
6000
6000
6000
6000
6000
6000
6000
6000
6000
6000
6000
6000
6000
6000
6000
6000
6000
6000
6000
6000
6000
6000
6000
6000
6000
6000
6000
6000
6000
6000
6000
6000
6000
6000
6000
6000
7FE0
3FE0
ENDCHAR
STARTCHAR 013B
ENCODING 315
SWIDTH 472 0
DWIDTH 42 0
BBX 30 81 10 -19
BITMAP
C0000000
C0000000
C0000000
C0000000
C0000000
C0000000
C0000000
C0000000
C0000000
C0000000
C0000000
C0000000
C0000000
C0000000
C0000000
C0000000
C0000000
C0000000
C0000000
C0000000
C0000000
C0000000
C0000000
C0000000
C0000000
C0000000
C0000000
C0000000
C0000000
C0000000
C0000000
C0000000
C0000000
C0000000
C0000000
C0000000
C0000000
C0000000
C0000000
C0000000
C0000000
C0000000
C0000000
C0000000
C0000000
C0000000
C0000000
C0000000
C0000000
C0000000
C0000000
C0000000
C0000000
C0000000
C0000000
C0000000
C0000000
C0000000
C0000000
C0000000
FFFFFFFC
FFFFFFFC
00000000
00000000
00000000
00000000
00000000
00000000
0003C000
0003C000
0003C000
0003C000
0000C000
0000C000
00008000
00008000
00018000
00010000
00030000
00060000
00040000
ENDCHAR
STARTCHAR 013C
ENCODING 316
SWIDTH 247 0
DWIDTH 22 0
BBX 10 85 9 -19
BITMAP
C000
C000
C000
C000
C000
C000
C000
C000
C000
C000
C000
C000
C000
C000
C000
C000
C000
C000
C000
C000
C000
C000
C000
C000
C000
C000
C000
C000
C000
C000
C000
C000
C000
C000
C000
C000
C000
C000
C000
C000
C000
C000
C000
C000
C000
C000
C000
C000
C000
C000
C000
C000
C000
C000
C000
C000
C000
C000
C000
C000
C000
C000
C000
C000
FFC0
7FC0
0000
0000
0000
0000
0000
0000
0E00
1E00
1E00
0E00
0200
0200
0600
0600
0400
0C00
0800
1800
3000
ENDCHAR
STARTCHAR 013D
ENCODING 317
SWIDTH 472 0
DWIDTH 42 0
BBX 30 66 10 0
BITMAP
000C0000
000C0000
000C0000
000C0000
C00C0000
C0180000
C0180000
C0180000
C0180000
C0180000
C0180000
C0180000
C0180000
C0100000
C0100000
C0100000
C0000000
C0000000
C0000000
C0000000
C0000000
C0000000
C0000000
C0000000
C0000000
C0000000
C0000000
C0000000
C0000000
C0000000
C0000000
C0000000
C0000000
C0000000
C0000000
C0000000
C0000000
C0000000
C0000000
C0000000
C0000000
C0000000
C0000000
C0000000
C0000000
C0000000
C0000000
C0000000
C0000000
C0000000
C0000000
C0000000
C0000000
C0000000
C0000000
C0000000
C0000000
C0000000
C0000000
C0000000
C0000000
C0000000
C0000000
C0000000
FFFFFFFC
FFFFFFFC
ENDCHAR
STARTCHAR 013E
ENCODING 318
SWIDTH 247 0
DWIDTH 22 0
BBX 14 66 9 0
BITMAP
C00C
C00C
C00C
C00C
C00C
C00C
C018
C018
C018
C018
C018
C018
C018
C018
C010
C010
C000
C000
C000
C000
C000
C000
C000
C000
C000
C000
C000
C000
C000
C000
C000
C000
C000
C000
C000
C000
C000
C000
C000
C000
C000
C000
C000
C000
C000
C000
C000
C000
C000
C000
C000
C000
C000
C000
C000
C000
C000
C000
C000
C000
C000
C000
C000
C000
FFC0
7FC0
ENDCHAR
STARTCHAR 013F
ENCODING 319
SWIDTH 472 0
DWIDTH 42 0
BBX 30 62 10 0
BITMAP
C0000000
C0000000
C0000000
C0000000
C0000000
C0000000
C0000000
C0000000
C0000000
C0000000
C0000000
C0000000
C0000000
C0000000
C0000000
C0000000
C0000000
C0000000
C0000000
C0000000
C0000000
C0000000
C0000000
C0000000
C0000000
C0000000
C0000000
C0000000
C0000000
C0000000
C0000000
C0000000
C0000000
C0000000
C0000F00
C0000F00
C0000F00
C0000600
C0000000
C0000000
C0000000
C0000000
C0000000
C0000000
C0000000
C0000000
C0000000
C0000000
C0000000
C0000000
C0000000
C0000000
C0000000
C0000000
C0000000
C0000000
C0000000
C0000000
C0000000
C0000000
FFFFFFFC
FFFFFFFC
ENDCHAR
STARTCHAR 0140
ENCODING 320
SWIDTH 270 0
DWIDTH 24 0
BBX 15 66 9 0
BITMAP
C000
C000
C000
C000
C000
C000
C000
C000
C000
C000
C000
C000
C000
C000
C000
C000
C000
C000
C000
C000
C000
C000
C000
C000
C000
C000
C000
C000
C000
C000
C000
C000
C000
C000
C000
C000
C000
C000
C000
C000
C00C
C01E
C01E
C01E
C00C
C000
C000
C000
C000
C000
C000
C000
C000
C000
C000
C000
C000
C000
C000
C000
C000
C000
C000
C000
FFC0
7FC0
ENDCHAR
STARTCHAR 0141
ENCODING 321
SWIDTH 472 0
DWIDTH 42 0
BBX 40 62 1 0
BITMAP
0060000000
0060000000
0060000000
0060000000
0060000000
0060000000
0060000000
0060000000
0060000000
0060000000
0060000000
0060000000
0060000000
0060000000
0060000000
0060000000
0060000000
0060000000
0060000000
0060000000
0060000000
0060000000
0060000000
0060000000
0060000000
0060000000
0060000000
0060001800
006000F800
006007E000
00603E0000
0061F00000
007F800000
00FC000000
07E0000000
3F60000000
F060000000
8060000000
0060000000
0060000000
0060000000
0060000000
0060000000
0060000000
0060000000
0060000000
0060000000
0060000000
0060000000
0060000000
0060000000
0060000000
0060000000
0060000000
0060000000
0060000000
0060000000
0060000000
0060000000
0060000000
007FFFFFFF
007FFFFFFF
ENDCHAR
STARTCHAR 0142
ENCODING 322
SWIDTH 247 0
DWIDTH 22 0
BBX 17 66 3 0
BITMAP
010000
010000
010000
010000
010000
010000
010000
010000
010000
010000
010000
010000
010000
010000
010000
010000
010000
010000
010000
010000
010000
010000
010000
010000
010000
010000
010000
010000
010000
010000
010380
011F80
01FC00
07E000
3F0000
F10000
810000
010000
010000
010000
010000
010000
010000
010000
010000
010000
010000
010000
010000
010000
010000
010000
010000
010000
010000
010000
010000
010000
010000
010000
010000
010000
010000
010000
01FF00
01FF00
ENDCHAR
STARTCHAR 0143
ENCODING 323
SWIDTH 686 0
DWIDTH 61 0
BBX 42 83 10 0
BITMAP
000000100000
000000180000
000000380000
000000700000
000000600000
000000C00000
000001800000
000003800000
000003000000
000006000000
00000C000000
00000C000000
000018000000
000030000000
000000000000
000000000000
000000000000
000000000000
000000000000
000000000000
000000000000
E000000000C0
E000000000C0
B000000000C0
B800000000C0
9800000000C0
8C00000000C0
8E00000000C0
8600000000C0
8300000000C0
8300000000C0
8180000000C0
81C0000000C0
80C0000000C0
8060000000C0
8070000000C0
8030000000C0
8018000000C0
8018000000C0
800C000000C0
800E000000C0
8006000000C0
8003000000C0
8003800000C0
8001800000C0
8000C00000C0
8000C00000C0
8000600000C0
8000700000C0
8000300000C0
8000180000C0
80001C0000C0
80000C0000C0
8000060000C0
8000060000C0
8000030000C0
8000038000C0
8000018000C0
800000C000C0
800000E000C0
8000006000C0
8000003000C0
8000003000C0
8000001800C0
8000001C00C0
8000000C00C0
8000000600C0
8000000700C0
8000000300C0
8000000180C0
8000000180C0
80000000C0C0
80000000E0C0
8000000060C0
8000000030C0
8000000038C0
8000000018C0
800000000CC0
800000000CC0
8000000006C0
8000000007C0
8000000003C0
8000000001C0
ENDCHAR
STARTCHAR 0144
ENCODING 324
SWIDTH 551 0
DWIDTH 49 0
BBX 32 67 9 0
BITMAP
00000100
00000380
00000300
00000600
00000E00
00001C00
00001800
00003000
00007000
00006000
0000C000
00018000
00038000
00030000
00020000
00000000
00000000
00000000
00000000
00000000
00000000
001FF800
C07FFF00
C1E003C0
C30000E0
C6000030
CC000018
D800001C
D000000C
E0000006
E0000006
E0000006
C0000006
C0000003
C0000003
C0000003
C0000003
C0000003
C0000003
C0000003
C0000003
C0000003
C0000003
C0000003
C0000003
C0000003
C0000003
C0000003
C0000003
C0000003
C0000003
C0000003
C0000003
C0000003
C0000003
C0000003
C0000003
C0000003
C0000003
C0000003
C0000003
C0000003
C0000003
C0000003
C0000003
C0000003
C0000003
ENDCHAR
STARTCHAR 0145
ENCODING 325
SWIDTH 686 0
DWIDTH 61 0
BBX 42 81 10 -19
BITMAP
E000000000C0
E000000000C0
B000000000C0
B800000000C0
9800000000C0
8C00000000C0
8E00000000C0
8600000000C0
8300000000C0
8300000000C0
8180000000C0
81C0000000C0
80C0000000C0
8060000000C0
8070000000C0
8030000000C0
8018000000C0
8018000000C0
800C000000C0
800E000000C0
8006000000C0
8003000000C0
8003800000C0
8001800000C0
8000C00000C0
8000C00000C0
8000600000C0
8000700000C0
8000300000C0
8000180000C0
80001C0000C0
80000C0000C0
8000060000C0
8000060000C0
8000030000C0
8000038000C0
8000018000C0
800000C000C0
800000E000C0
8000006000C0
8000003000C0
8000003000C0
8000001800C0
8000001C00C0
8000000C00C0
8000000600C0
8000000700C0
8000000300C0
8000000180C0
8000000180C0
80000000C0C0
80000000E0C0
8000000060C0
8000000030C0
8000000038C0
8000000018C0
800000000CC0
800000000CC0
8000000006C0
8000000007C0
8000000003C0
8000000001C0
000000000000
000000000000
000000000000
000000000000
000000000000
000000000000
00001C000000
00001E000000
00001E000000
00001E000000
000006000000
000004000000
000004000000
00000C000000
00000C000000
000008000000
000018000000
000030000000
000060000000
ENDCHAR
STARTCHAR 0146
ENCODING 326
SWIDTH 551 0
DWIDTH 49 0
BBX 32 65 9 -19
BITMAP
001FF800
C07FFF00
C1E003C0
C30000E0
C6000030
CC000018
D800001C
D000000C
E0000006
E0000006
E0000006
C0000006
C0000003
C0000003
C0000003
C0000003
C0000003
C0000003
C0000003
C0000003
C0000003
C0000003
C0000003
C0000003
C0000003
C0000003
C0000003
C0000003
C0000003
C0000003
C0000003
C0000003
C0000003
C0000003
C0000003
C0000003
C0000003
C0000003
C0000003
C0000003
C0000003
C0000003
C0000003
C0000003
C0000003
C0000003
00000000
00000000
00000000
00000000
00000000
00000000
0003C000
0003C000
0003C000
0003C000
00004000
0000C000
0000C000
00008000
00018000
00010000
00030000
00020000
00040000
ENDCHAR
STARTCHAR 0147
ENCODING 327
SWIDTH 686 0
DWIDTH 61 0
BBX 42 82 10 0
BITMAP
00C000018000
006000030000
003000060000
0018000C0000
000C00180000
000600300000
000300700000
000180E00000
0000C1C00000
000063800000
000037000000
00001E000000
000000000000
000000000000
000000000000
000000000000
000000000000
000000000000
000000000000
000000000000
E000000000C0
E000000000C0
B000000000C0
B800000000C0
9800000000C0
8C00000000C0
8E00000000C0
8600000000C0
8300000000C0
8300000000C0
8180000000C0
81C0000000C0
80C0000000C0
8060000000C0
8070000000C0
8030000000C0
8018000000C0
8018000000C0
800C000000C0
800E000000C0
8006000000C0
8003000000C0
8003800000C0
8001800000C0
8000C00000C0
8000C00000C0
8000600000C0
8000700000C0
8000300000C0
8000180000C0
80001C0000C0
80000C0000C0
8000060000C0
8000060000C0
8000030000C0
8000038000C0
8000018000C0
800000C000C0
800000E000C0
8000006000C0
8000003000C0
8000003000C0
8000001800C0
8000001C00C0
8000000C00C0
8000000600C0
8000000700C0
8000000300C0
8000000180C0
8000000180C0
80000000C0C0
80000000E0C0
8000000060C0
8000000030C0
8000000038C0
8000000018C0
800000000CC0
800000000CC0
8000000006C0
8000000007C0
8000000003C0
8000000001C0
ENDCHAR
ENDFONT
